<svg version="1.1" id="EuropaColon_Ukraine_logo_inverse" xmlns="http://www.w3.org/2000/svg" xmlns:xlink="http://www.w3.org/1999/xlink"
	 x="0px" y="0px" viewBox="0 0 1240 860" style="enable-background:new 0 0 1240 860;" xml:space="preserve">
<style type="text/css">
	.st0{fill:#6DCFF6;}
	.st1{fill:#FFFFFF;}
	.st2{fill:#00AEEF;}
</style>
<g>
	<g>
		<g>
			<circle class="st0" cx="665.7" cy="222.3" r="45.7"/>
		</g>
		<path class="st1" d="M737.2,339.5c-30,30-71.5,48.6-117.2,48.6c-91.4,0-165.8-74.4-165.8-165.8S528.6,56.5,620,56.5V5
			c-120,0-217.3,97.3-217.3,217.3S500,439.6,620,439.6c60,0,114.3-24.3,153.7-63.6L737.2,339.5z"/>
		<path class="st2" d="M517.1,222.3c0-56.8,46.2-102.9,102.9-102.9s102.9,46.2,102.9,102.9h51.5c0-85.3-69.1-154.4-154.4-154.4
			c-85.3,0-154.4,69.1-154.4,154.4H517.1z"/>
	</g>
	<g>
		<g>
			<polygon class="st1" points="5.5,662.8 84,662.8 84,639.7 28.8,639.7 28.8,593.1 84,593.1 84,570 28.8,570 28.8,534.6 
				84.6,534.6 84.6,511.6 5.5,511.6 			"/>
			<path class="st1" d="M181.7,548.6v53.6c0,15.7-1,21.9-1.8,24.3c-1.7,5-4.7,8.9-9.2,12c-4.5,3.1-10,4.6-16.6,4.6
				c-6.7,0-12.2-1.6-16.9-4.8c-4.6-3.2-7.6-7.3-9.3-12.8c-0.8-2.8-1.8-9.1-1.8-23.5v-53.6h-22.7v55.2c0,15.7,1.8,27.3,5.5,35.5
				c3.7,8.2,9.5,14.8,17.2,19.4c7.6,4.6,17,6.9,28,6.9c22.7,0,30-11.5,30-11.5v8.6h20.4v-58v-56.1h-20.4H181.7z"/>
			<path class="st1" d="M282.3,550c-11.3-6.3-21.6-5.1-31,1.1c-2,1.3-4,2.9-6,4.8v-7.3h-23v114.2h23v-40.1c0-17.7,0.8-29.5,2.3-35.1
				c1.9-6.9,4.7-12,8.2-15.1c3.4-3,6.6-4.4,10-4.4c0.9,0,2.5,0.3,5.3,1.5l3.6,1.6l11.7-18.8L282.3,550z"/>
			<path class="st1" d="M339.8,545.9c-17.5,0-32.2,6.5-43.7,19.2c-10.4,11.5-15.7,25.3-15.7,40.9c0,15.8,5.6,29.8,16.6,41.6
				c11.1,11.9,25.5,17.9,42.9,17.9c17.3,0,31.7-6,42.8-17.9c11-11.8,16.6-25.8,16.6-41.6c0-15.7-5.3-29.5-15.7-41
				C371.9,552.3,357.2,545.9,339.8,545.9z M371.3,625.3c-3.3,5.8-7.7,10.3-13.2,13.5c-11.1,6.3-25.7,6.3-36.8,0
				c-5.5-3.1-9.9-7.7-13.2-13.5c-3.3-5.8-4.9-12.2-4.9-19c0-10.6,3.5-19.5,10.8-26.9c7.2-7.4,15.7-11.1,25.7-11.1
				c10,0,18.4,3.6,25.7,11.1c7.3,7.5,10.9,16.3,10.9,26.9C376.3,613,374.6,619.4,371.3,625.3z"/>
			<path class="st1" d="M473.4,545.9c-9.3,0-17.8,2-25.4,6c-4.2,2.2-8.1,5-11.7,8.4v-11.8h-22.7v152.6h22.7v-49.8
				c3.9,3.4,8,6.2,12.4,8.3c7.6,3.8,16.1,5.7,25.1,5.7c16.1,0,30-5.9,41.3-17.6c11.3-11.6,17.1-25.9,17.1-42.6
				c0-16.3-5.8-30.4-17.2-42C503.5,551.7,489.5,545.9,473.4,545.9z M504.2,624.8c-3.4,6-7.9,10.7-13.6,14.1c-11.5,6.8-25.2,6.6-37,0
				c-6-3.3-10.4-7.7-13.6-13.4c-3.2-5.6-4.8-12.1-4.8-19.3c0-11,3.5-19.9,10.7-27.3c7.2-7.3,15.8-10.9,26.3-10.9
				c6.7,0,12.9,1.7,18.5,4.9c5.6,3.3,10.2,7.9,13.5,13.9c3.4,6,5,12.3,5,19C509.4,612.4,507.6,618.8,504.2,624.8z"/>
			<path class="st1" d="M638.2,560.3c-3.6-3.4-7.5-6.2-11.7-8.4c-7.6-4-16.2-6-25.5-6c-16.1,0-30.1,5.9-41.6,17.5
				c-11.4,11.6-17.3,25.7-17.3,42c0,16.6,5.7,30.9,17.1,42.6c11.4,11.6,25.3,17.6,41.4,17.6c9,0,17.5-1.9,25.1-5.7
				c4.4-2.2,8.6-5,12.5-8.4v11.3h22.5V548.6h-22.5V560.3z M634.3,625.5c-3.2,5.7-7.6,10.1-13.5,13.4c-11.8,6.6-25.6,6.7-37.1,0
				c-5.7-3.3-10.2-8.1-13.6-14.1c-3.4-6-5.1-12.4-5.1-19c0-6.6,1.7-13,5.1-19c3.3-5.9,7.9-10.6,13.5-13.9c5.6-3.3,11.9-4.9,18.5-4.9
				c10.5,0,19.1,3.6,26.3,10.9c7.2,7.4,10.7,16.3,10.7,27.3C639.1,613.3,637.5,619.8,634.3,625.5z"/>
		</g>
		<g>
			<path class="st0" d="M804.9,622c-12.6,14.7-27.8,21.8-46.5,21.8c-17,0-30.7-5.3-41.8-16.1c-11.1-10.8-16.4-23.9-16.4-40.1
				c0-10.6,2.5-20.2,7.3-28.7c4.9-8.4,11.8-15.2,20.7-20.2c17.1-9.6,39.1-9.8,55.8-1.8c8,3.8,14.9,9.5,20.6,17l2.8,3.6l18.4-14.1
				l-2.6-3.6c-7.2-10-16.6-17.9-28-23.5c-11.3-5.5-24-8.3-37.9-8.3c-23.1,0-42.6,7.6-58,22.6c-15.4,15-23.3,33.8-23.3,55.8
				c0,20.8,6.5,38.8,19.2,53.6c15.2,17.5,36.1,26.4,62.3,26.4c13.7,0,26.3-2.6,37.4-7.8c11.2-5.2,20.7-12.7,28.2-22.2l2.9-3.7
				l-18.3-13.9L804.9,622z"/>
			<path class="st0" d="M894,545.9c-17.5,0-32.2,6.5-43.7,19.2c-10.4,11.5-15.7,25.3-15.7,40.9c0,15.8,5.6,29.8,16.6,41.6
				c11.1,11.9,25.5,17.9,42.9,17.9c17.3,0,31.7-6,42.8-17.9c11-11.8,16.6-25.8,16.6-41.6c0-15.7-5.3-29.5-15.7-41
				C926.1,552.3,911.5,545.9,894,545.9z M925.5,625.3c-3.3,5.8-7.7,10.3-13.2,13.5c-11.1,6.3-25.7,6.3-36.8,0
				c-5.5-3.1-9.9-7.7-13.2-13.5c-3.3-5.8-4.9-12.2-4.9-19c0-10.6,3.5-19.5,10.8-26.9c7.2-7.4,15.7-11.1,25.7-11.1
				c10,0,18.4,3.6,25.7,11.1c7.3,7.5,10.9,16.3,10.9,26.9C930.5,613,928.8,619.4,925.5,625.3z"/>
			<rect x="965.7" y="508" class="st0" width="22.7" height="154.8"/>
			<path class="st0" d="M1060.1,545.9c-17.5,0-32.2,6.5-43.7,19.2c-10.4,11.5-15.7,25.3-15.7,40.9c0,15.8,5.6,29.8,16.6,41.6
				c11.1,11.9,25.5,17.9,42.9,17.9c17.3,0,31.7-6,42.8-17.9c11-11.8,16.6-25.8,16.6-41.6c0-15.7-5.3-29.5-15.7-41
				C1092.2,552.3,1077.5,545.9,1060.1,545.9z M1091.6,625.3c-3.3,5.8-7.7,10.3-13.2,13.5c-11.1,6.3-25.7,6.3-36.8,0
				c-5.5-3.1-9.9-7.7-13.2-13.5c-3.3-5.8-4.9-12.2-4.9-19c0-10.6,3.5-19.5,10.8-26.9c7.2-7.4,15.7-11.1,25.7-11.1
				c10,0,18.4,3.6,25.7,11.1c7.3,7.5,10.9,16.3,10.9,26.9C1096.6,613,1094.9,619.4,1091.6,625.3z"/>
			<path class="st0" d="M1229.8,570.8c-3.3-7.6-8.3-13.7-15.2-18.1c-13.4-8.8-32.4-8.8-47-0.8c-3.9,2.1-7.7,4.9-11.2,8.2v-11.4
				h-22.7v114.2h22.7v-43.1c0-13.4,0.6-22.7,1.8-27.4c1.8-7.1,5.5-12.9,11.3-17.7c5.7-4.7,11.9-7,19-7c6.1,0,11,1.4,14.5,4.3
				c3.6,2.9,6,7.2,7.4,13.2c0.6,2.5,1.4,8.6,1.4,23.1v54.7h22.7v-58.6C1234.5,589.1,1233,578.2,1229.8,570.8z"/>
		</g>
	</g>
	<g>
		<path class="st1" d="M383.8,753.9h9.9v59.5c0,7.1,0.1,11.5,0.4,13.2c0.5,3.9,1.6,7.1,3.4,9.8c1.8,2.6,4.5,4.8,8.2,6.6
			c3.7,1.8,7.4,2.6,11.2,2.6c3.3,0,6.4-0.7,9.4-2.1c3-1.4,5.5-3.3,7.5-5.8c2-2.5,3.5-5.4,4.4-8.9c0.7-2.5,1-7.6,1-15.4v-59.5h9.9
			v59.5c0,8.8-0.9,15.9-2.6,21.3c-1.7,5.4-5.2,10.2-10.3,14.2c-5.2,4-11.4,6-18.7,6c-8,0-14.8-1.9-20.4-5.7
			c-5.7-3.8-9.5-8.8-11.4-15.1c-1.2-3.8-1.8-10.8-1.8-20.8V753.9z"/>
		<path class="st1" d="M471.3,751.5h9.4V809l33.8-29.4h13.8l-40.1,34.8l42.4,38.1h-13.2l-36.7-32.8v32.8h-9.4V751.5z"/>
		<path class="st1" d="M536.3,779.6h9.6v10.7c2.9-4.2,5.9-7.3,9-9.4c3.2-2.1,6.5-3.1,9.9-3.1c2.6,0,5.4,0.8,8.3,2.5l-4.9,7.9
			c-2-0.8-3.6-1.3-5-1.3c-3.1,0-6.1,1.3-9,3.9c-2.9,2.6-5.1,6.6-6.6,12c-1.2,4.2-1.7,12.6-1.7,25.2v24.7h-9.6V779.6z"/>
		<path class="st1" d="M653.4,779.6v72.9h-9.2V840c-3.9,4.8-8.3,8.4-13.2,10.8c-4.9,2.4-10.2,3.6-16,3.6c-10.3,0-19.1-3.7-26.4-11.2
			c-7.3-7.5-11-16.6-11-27.3c0-10.5,3.7-19.5,11.1-26.9c7.4-7.5,16.2-11.2,26.6-11.2c6,0,11.4,1.3,16.3,3.8
			c4.8,2.5,9.1,6.4,12.8,11.5v-13.4H653.4z M615.9,786.8c-5.2,0-10,1.3-14.5,3.8c-4.4,2.6-7.9,6.2-10.5,10.8
			c-2.6,4.6-3.9,9.5-3.9,14.7c0,5.1,1.3,10,3.9,14.7c2.6,4.7,6.2,8.3,10.6,10.9c4.4,2.6,9.2,3.9,14.3,3.9c5.1,0,10-1.3,14.6-3.9
			c4.6-2.6,8.1-6.1,10.6-10.5c2.5-4.4,3.7-9.4,3.7-14.9c0-8.4-2.8-15.5-8.3-21.2C630.9,789.6,624,786.8,615.9,786.8z"/>
		<path class="st1" d="M677.4,749.6c2.1,0,4,0.8,5.5,2.3c1.5,1.5,2.3,3.3,2.3,5.5c0,2.1-0.8,3.9-2.3,5.4c-1.5,1.5-3.3,2.3-5.5,2.3
			c-2.1,0-3.9-0.8-5.4-2.3c-1.5-1.5-2.3-3.3-2.3-5.4c0-2.1,0.8-4,2.3-5.5C673.5,750.3,675.3,749.6,677.4,749.6z M672.7,779.6h9.4
			v72.9h-9.4V779.6z"/>
		<path class="st1" d="M701.2,779.6h9.4v13.1c3.8-5,7.9-8.7,12.5-11.2c4.6-2.5,9.5-3.7,14.9-3.7c5.5,0,10.3,1.4,14.5,4.2
			c4.2,2.8,7.3,6.5,9.3,11.2c2,4.7,3,12,3,21.9v37.5h-9.4v-34.8c0-8.4-0.3-14-1-16.8c-1.1-4.8-3.2-8.5-6.3-10.9
			c-3.1-2.4-7.1-3.7-12.1-3.7c-5.7,0-10.8,1.9-15.3,5.6c-4.5,3.8-7.4,8.4-8.9,13.9c-0.9,3.6-1.3,10.2-1.3,19.8v26.7h-9.4V779.6z"/>
		<path class="st1" d="M845.8,828.3l7.9,4.2c-2.6,5.1-5.6,9.2-9,12.3c-3.4,3.1-7.2,5.5-11.5,7.1c-4.3,1.6-9.1,2.4-14.4,2.4
			c-11.9,0-21.2-3.9-27.9-11.7c-6.7-7.8-10.1-16.6-10.1-26.4c0-9.2,2.8-17.5,8.5-24.7c7.2-9.2,16.8-13.8,28.9-13.8
			c12.4,0,22.4,4.7,29.8,14.1c5.3,6.7,8,15,8,24.9h-65.6c0.2,8.5,2.9,15.4,8.1,20.8c5.2,5.4,11.7,8.1,19.4,8.1
			c3.7,0,7.3-0.6,10.8-1.9c3.5-1.3,6.5-3,9-5.1C840.3,836.5,843,833.1,845.8,828.3z M845.8,808.7c-1.3-5-3.1-9-5.5-12
			c-2.4-3-5.6-5.4-9.5-7.2c-3.9-1.8-8.1-2.7-12.4-2.7c-7.2,0-13.3,2.3-18.5,6.9c-3.8,3.3-6.6,8.4-8.5,15.1H845.8z"/>
	</g>
</g>
</svg>
