<svg xmlns="http://www.w3.org/2000/svg" viewBox="0 0 293.41 156.04"><defs><style>.cls-1{fill:#fff;}</style></defs><g id="Слой_2" data-name="Слой 2"><g id="Layer_2" data-name="Layer 2"><path class="cls-1" d="M0,106.1c.82-1.53,2.3-2.41,3.56-3.48Q14.71,93.26,25.89,84a15.79,15.79,0,0,1,10.26-3.74c13,0,26,0,39,0A5.71,5.71,0,0,1,81,86c-.1,8.43,0,16.86,0,25.28,0,4.58,0,9.15,0,13.72a12.07,12.07,0,0,1-4.35,9.46c-5.64,4.82-11.36,9.53-17,14.29-2.43,2-4.86,4-7.28,6.08a6.92,6.92,0,0,1-2,1.24H49.14a2.57,2.57,0,0,1-1.33-2.29c0-.35,0-.69,0-1V114c0-3.1-1.52-5.2-4.21-5.89a6.25,6.25,0,0,0-1.67-.13h-39A3.45,3.45,0,0,1,0,107.06Z"/><path class="cls-1" d="M293.41,9.41a3.69,3.69,0,0,0-.47,0c-.6.08-.84-.12-.83-.78,0-2.41,0-4.82-.1-7.26L289.74,7c-.26.64-.54,1.26-.77,1.91a.7.7,0,0,1-.76.53.71.71,0,0,1-.74-.57c-.94-2.49-1.91-5-3-7.43v3c0,1.46,0,2.92,0,4.38,0,.48-.13.68-.62.67s-.68-.1-.68-.62c0-2.68,0-5.37,0-8a1,1,0,0,1,.34-.76H285a1.84,1.84,0,0,1,.79,1.12l2.49,6.31c.28-.17.3-.45.4-.69C289.42,4.85,290.21,3,291,1a3.26,3.26,0,0,1,.67-1h1.76V9.41Z"/><path class="cls-1" d="M281.76,0c.19,1,.16,1.06-.83,1.06C279,1.06,279,1.06,279,3s0,3.76,0,5.65c0,.47,0,.81-.66.82s-.61-.4-.61-.84c0-2.28,0-4.56,0-6.84,0-.55-.14-.77-.7-.71-.4,0-.8,0-1.2,0-1,0-1,0-1-1.06Z"/><path class="cls-1" d="M78.51,41.72V60.86a5.27,5.27,0,0,1-5.34,5.45c-9,0-18,0-27,0-.51,0-.7-.11-.7-.66,0-5.18-.08-10.37.06-15.55a11.92,11.92,0,0,1,4.53-9q10-8.4,20.06-16.76c1.48-1.25,3-2.48,4.47-3.72a2.43,2.43,0,0,1,.25-.2c.79-.51,1.62-1,2.59-.52a2.38,2.38,0,0,1,1.11,2.39Z"/><path class="cls-1" d="M96,96.17c0-3.43,0-6.86,0-10.29a5.36,5.36,0,0,1,5.64-5.65h38a5.22,5.22,0,0,1,1.88.26,1.21,1.21,0,0,1,.73,1.85,4.76,4.76,0,0,1-1.3,1.49l-24.27,20.29A16.5,16.5,0,0,1,106.08,108c-3.08.06-6.16,0-9.24,0-.66,0-.86-.16-.86-.84C96,103.5,96,99.84,96,96.17Z"/><path class="cls-1" d="M154.5,36.54c-1.26,2-2.48,4-3.72,6q-2.29,3.68-4.61,7.33a2.13,2.13,0,0,1-2,.51c-.2-.13-.13-.34-.13-.51,0-5,0-10,0-15.07,0-.68.37-.56.76-.56s.83-.12.81.6c-.07,4.14.07,8.29-.08,12.43v.64c.33,0,.36-.24.46-.39q4-6.37,8-12.74a2.06,2.06,0,0,1,2-.51c.19.14.12.34.12.52,0,5,0,10,0,15.07,0,.77-.48.5-.85.54s-.72,0-.72-.61C154.51,45.36,154.5,41,154.5,36.54Z"/><path class="cls-1" d="M266.45,8.69c-1.75,2.78-3.37,5.38-5,8q-1.72,2.76-3.47,5.51a2.24,2.24,0,0,1-2,.45c-.16-.14-.08-.35-.09-.53,0-5,0-10,0-15.07,0-.4.1-.53.52-.54,1.09,0,1.1,0,1.09,1.09-.06,4.09.14,8.18-.12,12.26a.94.94,0,0,0,.06.29c.27,0,.3-.21.39-.35l7.87-12.6a1.8,1.8,0,0,1,2-.67c.32.1.19.34.19.52,0,5.05,0,10.1,0,15.14,0,.56-.29.56-.63.49s-.93.34-.92-.46,0-1.49,0-2.23C266.37,16.28,266.25,12.59,266.45,8.69Z"/><path class="cls-1" d="M249.84,8.78l-8.41,13.39a2,2,0,0,1-1.9.47c-.22-.12-.15-.32-.15-.49,0-5,0-10.1,0-15.15,0-.8.55-.43.89-.48s.68-.07.67.53c-.05,4.22-.05,8.45-.07,12.67v.72l3.71-5.94q2.33-3.71,4.63-7.41a1.92,1.92,0,0,1,1.94-.57c.27.13.15.37.15.55,0,5,0,10.05,0,15.07,0,.71-.41.51-.77.53s-.75.11-.74-.56c0-4.2,0-8.4,0-12.6Z"/><path class="cls-1" d="M126.83,14.53c0-2.45,0-4.9,0-7.34,0-.69.27-.67.78-.7s.74.12.74.73c0,4.44,0,8.88,0,13.32,0,.62.09.86.8.85,2.36-.05,4.73-.05,7.09,0,.67,0,.77-.21.77-.8,0-4.44,0-8.88,0-13.32,0-.65.2-.77.8-.78s.78.17.77.79c0,4.36,0,8.72,0,13.08,0,.79.14,1.19,1,1,.16,0,.32,0,.48,0,.33,0,.47.07.46.44,0,1.32,0,2.65,0,4,0,.32-.11.39-.41.41-1.2.08-1.19.09-1.2-1.14,0-.76.27-1.8-.12-2.23s-1.5-.14-2.28-.14c-3,0-6,0-8.94,0-.52,0-.65-.14-.64-.66C126.84,19.52,126.83,17,126.83,14.53Z"/><path class="cls-1" d="M156.21,6.34c3.89-.13,6.44,2.76,7,6.3a10,10,0,0,1-1,6.78c-1.5,2.65-3.91,3.6-6.84,3.4A6.37,6.37,0,0,1,149.71,19a10,10,0,0,1-.15-8.62A6.52,6.52,0,0,1,156.21,6.34Zm-5.83,8.26a12.53,12.53,0,0,0,.24,2.37,5.62,5.62,0,0,0,4.88,4.55,5.42,5.42,0,0,0,5.69-3.67,9.22,9.22,0,0,0-.07-6.68A5.36,5.36,0,0,0,152.43,9,7.09,7.09,0,0,0,150.38,14.6Z"/><path class="cls-1" d="M107.41,14.6c0,2.48,0,5,0,7.42,0,.72-.35.63-.81.66s-.72-.1-.71-.68c0-2.13,0-4.25,0-6.38,0-.57-.17-.7-.71-.69q-3.56,0-7.09,0c-.55,0-.66.17-.66.67,0,2.15,0,4.31,0,6.46,0,.68-.32.61-.76.62S96,22.68,96,22q.06-7.45,0-14.91c0-.65.28-.65.75-.63s.79-.07.77.62c-.05,1.93,0,3.88,0,5.81,0,.48.05.71.62.7,2.42,0,4.84,0,7.26,0,.46,0,.57-.16.57-.59,0-2,0-3.94,0-5.9,0-.65.27-.66.75-.64s.78-.07.77.61C107.38,9.61,107.41,12.11,107.41,14.6Z"/><path class="cls-1" d="M165.77,14.56c0-2.47,0-4.94,0-7.41,0-.64.25-.68.74-.65s.86-.1.84.65c-.06,1.93,0,3.88,0,5.82,0,.51.13.67.66.66,2.36,0,4.73,0,7.09,0,.6,0,.69-.21.68-.73,0-1.91,0-3.83,0-5.74,0-.73.36-.65.82-.66s.76,0,.76.63q-.06,7.46,0,14.91c0,.66-.29.65-.76.64s-.84.06-.82-.67c.05-2.15,0-4.3,0-6.46,0-.49-.12-.63-.62-.62-2.39,0-4.79,0-7.18,0-.56,0-.64.21-.63.69,0,2.12,0,4.25,0,6.38,0,.81-.43.63-.89.68s-.69-.15-.69-.7C165.79,19.51,165.77,17,165.77,14.56Z"/><path class="cls-1" d="M113.6,42.28c0,2.47,0,4.95,0,7.42,0,.6-.2.71-.73.67s-.86.08-.84-.66c0-2.12,0-4.25,0-6.38,0-.54-.14-.72-.7-.71q-3.51,0-7,0c-.55,0-.72.14-.71.7,0,2.13,0,4.25,0,6.38,0,.72-.36.65-.83.67s-.75,0-.75-.66q0-7.41,0-14.83c0-.68.28-.68.79-.7s.8.08.79.73c0,1.91,0,3.83,0,5.74,0,.57.17.69.71.68,2.34,0,4.68,0,7,0,.64,0,.73-.2.72-.76,0-1.88,0-3.77,0-5.66,0-.73.33-.7.85-.74s.73.21.72.77C113.58,37.39,113.6,39.84,113.6,42.28Z"/><path class="cls-1" d="M224.47,14.57c0-2.47,0-4.94,0-7.41,0-.72.34-.63.81-.67s.72.1.71.68c0,1.94,0,3.88,0,5.82,0,.47.11.65.61.64,2.42,0,4.84,0,7.26,0,.45,0,.58-.11.57-.57,0-2,0-4,0-6,0-.64.32-.61.73-.57s.85-.23.85.54q0,7.53,0,15.06c0,.75-.46.54-.84.55s-.75.12-.74-.55c.06-2.18,0-4.36,0-6.54,0-.54-.17-.65-.67-.64-2.34,0-4.67,0-7,0-.66,0-.78.22-.77.82,0,2.07,0,4.14,0,6.21,0,.61-.16.76-.75.74s-.79,0-.77-.71C224.5,19.51,224.47,17,224.47,14.57Z"/><path class="cls-1" d="M217,50.36l2.38-6c1.25-3.16,2.52-6.33,3.75-9.5a.9.9,0,0,1,1-.71c1.29,0,1.29,0,1.79,1.22l6,14.24a1.22,1.22,0,0,1,.19.72,8.49,8.49,0,0,0-1,0,.62.62,0,0,1-.71-.46c-.46-1.15-1-2.29-1.43-3.44-.14-.35-.29-.54-.73-.53-2.44,0-4.88,0-7.33,0a.6.6,0,0,0-.67.48c-.38,1-.81,1.95-1.15,2.95-.25.76-.63,1.18-1.47,1A4,4,0,0,0,217,50.36Zm7.43-14.59c-.18.47-.33.83-.47,1.2l-2.81,7.14c-.08.21-.38.52.17.53h6.84C226.89,41.65,225.67,38.77,224.41,35.77Z"/><path class="cls-1" d="M207.42,14.6c0,2.47,0,5,0,7.42,0,.6-.21.69-.72.66s-.81,0-.8-.68c0-4.49,0-9,0-13.47,0-.61-.17-.74-.75-.72-1.59,0-3.19,0-4.78,0-.57,0-.76.09-.75.72q0,4.22-.09,8.44a10.09,10.09,0,0,1-.8,3.94,3.11,3.11,0,0,1-3.48,1.92c-.63-.07-.49-.47-.51-.86s.22-.47.59-.46A1.89,1.89,0,0,0,197.51,20a14.18,14.18,0,0,0,.63-4.53q0-4.11,0-8.21c0-.55.07-.77.71-.76,2.66,0,5.32,0,8,0,.5,0,.62.13.62.62C207.41,9.61,207.42,12.11,207.42,14.6Z"/><path class="cls-1" d="M124.12,22.6l-.1,0c-1.45.1-1.45.1-2-1.22-.38-.9-.78-1.8-1.13-2.71a.74.74,0,0,0-.83-.53q-3.54,0-7.1,0a.7.7,0,0,0-.8.54c-.38,1-.86,2-1.19,3-.24.72-.59,1.06-1.36.92a4.77,4.77,0,0,0-.66,0c.66-1.69,1.3-3.32,2-5q2.09-5.26,4.16-10.53c.18-.47.38-.82,1-.68s1.25-.34,1.64.6c2,4.94,4.11,9.85,6.18,14.77C123.93,22.12,124,22.36,124.12,22.6ZM116.4,8.14a3.48,3.48,0,0,0-.49,1.1C115,11.61,114,14,113.1,16.37c-.09.22-.36.52.16.52,2.25,0,4.49,0,6.83,0C118.84,13.92,117.63,11,116.4,8.14Z"/><path class="cls-1" d="M178.75,22.64c.73-1.82,1.43-3.58,2.13-5.34q2-5.11,4-10.24c.18-.44.42-.65.88-.55s1.25-.37,1.62.52c2.11,5.07,4.25,10.13,6.38,15.19a3.93,3.93,0,0,1,.13.45,9.23,9.23,0,0,0-1.06,0c-.42.05-.6-.14-.75-.51-.47-1.17-1-2.33-1.45-3.51a.64.64,0,0,0-.7-.47q-3.61,0-7.25,0a.67.67,0,0,0-.74.52c-.38,1-.85,2-1.19,3-.24.73-.59,1.12-1.4.94A3.77,3.77,0,0,0,178.75,22.64Zm3.95-5.79h7.18l-3.71-8.79C185,11.06,183.86,13.92,182.7,16.85Z"/><path class="cls-1" d="M246.6,50.32a3,3,0,0,1-3.08-.87c-2-2.24-4.22-4.34-6.34-6.5a7.34,7.34,0,0,1-.51-.6l-.22.08v1.14c0,2-.07,4.09,0,6.13,0,.72-.36.65-.83.67s-.75,0-.74-.66c0-4.94,0-9.88,0-14.83,0-.67.28-.69.79-.7s.81.08.79.73c0,1.88,0,3.77,0,5.66a1.32,1.32,0,0,0,.11.83c.32-.3.63-.57.92-.85l5.2-5.17c1.21-1.2,1.21-1.21,2.94-1.17.06.34-.25.45-.41.61-2.2,2.16-4.38,4.33-6.62,6.45-.55.51-.44.75,0,1.2,2.57,2.46,5.11,5,7.66,7.44C246.33,50,246.43,50.13,246.6,50.32Z"/><path class="cls-1" d="M212,14.6c0-2.5,0-5,0-7.5,0-.7.36-.6.78-.6s.82-.1.79.61c-.05,1.8,0,3.61,0,5.42,0,.49.13.62.62.62a17.53,17.53,0,0,1,4.28.23A4.26,4.26,0,0,1,221.93,18a4.68,4.68,0,0,1-3.62,4.47c-2,.39-4,.1-6,.18-.47,0-.31-.35-.31-.57C212,19.6,212,17.1,212,14.6Zm1.54,3.26c0,1,0,2,0,3,0,.3.05.49.43.48,1,0,2,.05,3,0A3.36,3.36,0,0,0,220.3,18a3.18,3.18,0,0,0-2.77-3.42,25.15,25.15,0,0,0-3.58-.1c-.43,0-.37.27-.37.53Z"/><path class="cls-1" d="M206.67,42.28c0-2.47,0-4.94,0-7.41,0-.5.1-.71.65-.68,1.54.07,3.08-.11,4.62.1a4.3,4.3,0,0,1,3.79,4.46A4.33,4.33,0,0,1,212,43.44a14.49,14.49,0,0,1-2.94.1c-.66,0-.91.09-.88.84.07,1.78,0,3.56,0,5.34,0,.63-.26.66-.75.65s-.84,0-.83-.68C206.7,47.22,206.67,44.75,206.67,42.28Zm1.54-3.46c0,1,0,2,0,3,0,.31,0,.5.42.48a22.72,22.72,0,0,0,2.86-.12,3.06,3.06,0,0,0,2.61-3.35,3,3,0,0,0-2.73-3.19c-.86-.09-1.75,0-2.62-.08-.49,0-.56.19-.55.6C208.23,37,208.21,37.92,208.21,38.82Z"/><path class="cls-1" d="M183.64,34.28c-1.2,2.86-2.38,5.7-3.59,8.54-.87,2-1.62,4.07-2.62,6a2.78,2.78,0,0,1-2.92,1.75c-1.3-.12-1.4-.22-1.17-1.57,1.55.53,2.23.19,3-1.29a2.51,2.51,0,0,0,0-2.5c-1.73-3.45-3.37-6.94-5-10.41-.2-.41-.31-.62.34-.65a1.38,1.38,0,0,1,1.56.94c1.38,3.15,3.07,6.15,4.35,9.34a1.55,1.55,0,0,0,.2.22c1.15-2.78,2.28-5.52,3.42-8.26l.43-1C182.06,34.06,182.06,34.06,183.64,34.28Z"/><path class="cls-1" d="M254.53,44.77l3.89-9.34c.56-1.35.56-1.35,2.14-1.15L258.16,40c-1.11,2.63-2.22,5.25-3.32,7.88a7.24,7.24,0,0,1-1,1.8,2.81,2.81,0,0,1-3.4.74c-.6-.23-.16-.89-.25-1.36,1.72.54,2.34.22,3.08-1.42a2.23,2.23,0,0,0,0-2.13c-1.77-3.55-3.45-7.14-5.17-10.71-.06-.14-.12-.29-.19-.43,1.37-.35,1.55-.27,2.13.93C251.54,38.38,253.13,41.45,254.53,44.77Z"/><path class="cls-1" d="M129.15,48.56c0,1.72.22,1.37-1.3,1.7a11.67,11.67,0,0,1-5.06.11,7.3,7.3,0,0,1-5.68-6.65,9.87,9.87,0,0,1,1.42-6.55A7.29,7.29,0,0,1,125.1,34a10.82,10.82,0,0,1,2.6.25c1.63.43,1.34.11,1.14,1.74q-5.9-2-8.74,1.8a8.09,8.09,0,0,0-.31,8.7C121.48,49,124,50.08,129.15,48.56Z"/><path class="cls-1" d="M136.58,43c0,2.23,0,4.47,0,6.7,0,.71-.34.64-.81.67s-.7-.15-.7-.7c0-4.47,0-8.93,0-13.4,0-.58-.12-.79-.73-.76-1.2.05-2.39,0-3.59,0-.59,0-.54-.31-.55-.7s0-.64.53-.64c3.38,0,6.75,0,10.13,0,.65,0,.46.4.5.73s0,.63-.54.61c-1.23,0-2.45,0-3.67,0-.5,0-.62.15-.62.63C136.6,38.43,136.58,40.71,136.58,43Z"/><path class="cls-1" d="M163.52,43c0-2.25,0-4.51,0-6.77,0-.52-.13-.69-.66-.67-1.17,0-2.34,0-3.51,0-.52,0-.7-.12-.67-.65s0-.7.63-.7q5,.06,10,0c.57,0,.63.2.65.68s-.14.68-.67.66c-1.17,0-2.34,0-3.5,0-.56,0-.71.14-.71.7,0,4.41,0,8.82,0,13.23a.9.9,0,0,1-1.35.91c-.32-.13-.19-.41-.19-.62Q163.52,46.34,163.52,43Z"/><path class="cls-1" d="M191.08,43c0,2.23,0,4.46,0,6.7,0,.68-.3.68-.81.7s-.77-.09-.77-.73c0-4.46,0-8.93,0-13.4,0-.57-.1-.77-.72-.74-1.2.05-2.4,0-3.59,0-.63,0-.51-.36-.52-.72s0-.64.51-.63q5.11,0,10.21,0c.58,0,.49.33.48.67s.12.69-.47.67c-1.19,0-2.39,0-3.58,0-.6,0-.82.11-.81.77C191.11,38.51,191.08,40.74,191.08,43Z"/><path class="cls-1" d="M143.59,14.6c0-2.5,0-5,0-7.48,0-.68.32-.65.77-.61s.87-.22.87.59q-.06,7.47,0,15c0,.68-.33.65-.77.61s-.89.22-.87-.59C143.62,19.59,143.59,17.09,143.59,14.6Z"/><path class="cls-1" d="M97.15,42.28c0-2.45,0-4.89,0-7.34,0-.58.11-.79.73-.76s.79.07.78.72q0,7.38,0,14.76c0,.65-.24.7-.78.72s-.74-.18-.73-.76C97.17,47.17,97.15,44.73,97.15,42.28Z"/><path class="cls-1" d="M221.2,62.11c0-.8,0-1.59,0-2.39,0-.47.06-.72.64-.71s.69.16.68.68c0,1.25,0,2.5,0,3.74,0,.56.17.72.72.72,1.78,0,1.78,0,1.78-1.78,0-.85,0-1.7,0-2.55,0-.44-.06-.81.62-.81s.66.29.65.77c0,1.22,0,2.45,0,3.67,0,.33-.11.72.47.7.3,0,.28.25.28.46,0,.4,0,.8,0,1.2s0,.75-.6.74-.67-.27-.62-.73-.16-.58-.59-.57c-1.09,0-2.18,0-3.27,0-.63,0-.77-.2-.74-.77C221.23,63.71,221.2,62.91,221.2,62.11Z"/><path class="cls-1" d="M136,62c1,.64,1.22,1.14,1,2a1.94,1.94,0,0,1-1.86,1.24c-2.46.2-2.46.2-2.46-2.26,0-1.14,0-2.28,0-3.42,0-.42.14-.57.55-.54.66,0,1.33,0,2,.08s1.35.3,1.54,1.13A1.5,1.5,0,0,1,136,62Zm-2,1.55c0,.27-.22.83.58.76s1.19-.35,1.16-.91c0-.71-.55-.78-1.12-.84C133.89,62.47,134,63,134,63.53Zm0-2.69c0,.31-.16.78.52.74s1-.18,1-.76-.45-.75-1-.8S134,60.41,134,60.84Z"/><path class="cls-1" d="M213,62.19c0-2,1.08-3.17,3-3.17a2.86,2.86,0,0,1,3,3.12,2.93,2.93,0,0,1-3.06,3.2A2.85,2.85,0,0,1,213,62.19Zm4.67,0c0-1.43-.59-2.26-1.64-2.29s-1.72.9-1.72,2.24.66,2.34,1.71,2.32S217.65,63.59,217.65,62.17Z"/><path class="cls-1" d="M127.51,65.29a3.14,3.14,0,1,1,3-3.13A2.83,2.83,0,0,1,127.51,65.29ZM129.22,62c0-.23-.08-.57-.16-.9a1.64,1.64,0,0,0-1.56-1.26A1.57,1.57,0,0,0,126,61a3.37,3.37,0,0,0,0,2.26,1.58,1.58,0,0,0,2.57.76A2.73,2.73,0,0,0,129.22,62Z"/><path class="cls-1" d="M160.54,62.14c0,2.07-1,3.16-3,3.15s-3-1.12-3-3.14,1.07-3.13,3-3.13S160.54,60.14,160.54,62.14Zm-1.32.09a2.79,2.79,0,0,0-.26-1.48,1.49,1.49,0,0,0-1.41-.86,1.43,1.43,0,0,0-1.4.87,3.22,3.22,0,0,0,0,2.84,1.55,1.55,0,0,0,2.73.07A2.3,2.3,0,0,0,159.22,62.23Z"/><path class="cls-1" d="M147.26,62.15c0-.88,0-1.76,0-2.63,0-.49.25-.52.6-.49s.75-.13.7.46c0,.11,0,.21,0,.32,0,1.92.15,2,2.12,1.77.3,0,.42-.15.41-.44,0-.48,0-1,0-1.44s.12-.69.66-.69.62.19.61.66c0,1.65,0,3.29,0,4.94,0,.46-.09.66-.61.66s-.73-.16-.65-.68a2.54,2.54,0,0,0,0-.39c-.05-.52.25-1.28-.14-1.52-.58-.35-1.39-.1-2.1-.11-.31,0-.29.26-.29.47,0,.58,0,1.17,0,1.75s-.38.45-.7.47-.62,0-.61-.48C147.28,63.9,147.26,63,147.26,62.15Z"/><path class="cls-1" d="M117.25,62.13c0-.85,0-1.7,0-2.55,0-.49.21-.57.62-.56s.72,0,.65.53a1.92,1.92,0,0,0,0,.24c0,1.86,0,1.84,1.86,1.79.44,0,.63-.12.61-.58s0-1,0-1.44.25-.53.64-.54.64,0,.64.55q0,2.55,0,5.1c0,.53-.21.6-.66.6s-.66-.08-.62-.57,0-.9,0-1.35c0-.16.06-.38,0-.47-.55-.69-1.31-.18-2-.32-.4-.08-.49.18-.48.53s0,1,0,1.43-.08.75-.68.76-.59-.34-.59-.76C117.26,63.73,117.25,62.93,117.25,62.13Z"/><path class="cls-1" d="M108.48,65.18c-.88.19-1.6.2-1.77-.88,0-.33-.31-.46-.65-.45a5,5,0,0,1-1,0c-.77-.11-1.26.1-1.44.93-.08.42-1,.68-1.3.44s-.09-.33,0-.49c.71-1.78,1.44-3.54,2.12-5.32.16-.43.45-.4.76-.37s.75-.21,1,.31C106.93,61.29,107.71,63.23,108.48,65.18Zm-3.2-4.83c-.25.72-.4,1.26-.62,1.78s-.17.8.48.72a3.49,3.49,0,0,1,.56,0c.3,0,.46-.08.34-.42Z"/><path class="cls-1" d="M139,65.28c.82-2.05,1.61-4,2.36-5.93.18-.43.51-.32.8-.31s.69-.18.88.29c.76,2,1.54,3.88,2.32,5.86-.88.17-1.59.2-1.77-.87-.07-.37-.35-.5-.72-.47a4.17,4.17,0,0,1-.79,0c-.81-.11-1.33.09-1.56,1S139.56,65.11,139,65.28Zm3.15-5c-.26.77-.41,1.33-.64,1.86s0,.71.5.66a3.37,3.37,0,0,1,.55,0c.35,0,.49-.09.34-.46C142.62,61.79,142.41,61.17,142.11,60.33Z"/><path class="cls-1" d="M186.2,62.87a2,2,0,0,1-3-2.14A1.84,1.84,0,0,1,185.07,59c1.34-.05,2.08.4,2.34,1.54a6.22,6.22,0,0,1,0,2.91,2.62,2.62,0,0,1-3.48,1.77c-.46-.17-.28-.52-.25-.8s.31-.22.53-.18c1.37.22,2-.21,2-1.41l0-.05Zm0-1.66c0-.65-.12-1.17-.81-1.21s-.87.54-.88,1.07.12,1.12.82,1.13S186.18,61.71,186.19,61.21Z"/><path class="cls-1" d="M200.28,62.16a11.74,11.74,0,0,1-.13,1.33,2,2,0,0,1-2.36,1.8c-1.08-.06-1.69-.71-1.89-2a7.06,7.06,0,0,1,0-2.2c.24-1.45.9-2.1,2.21-2.09s1.94.7,2.11,2.1a7.08,7.08,0,0,1,0,1ZM199,62.3a4.39,4.39,0,0,0-.2-1.8.73.73,0,0,0-1.39,0,5.23,5.23,0,0,0,0,3.34.7.7,0,0,0,.72.51.76.76,0,0,0,.71-.54A3.25,3.25,0,0,0,199,62.3Z"/><path class="cls-1" d="M206.77,62.14c0-.85,0-1.7,0-2.55,0-.4.08-.59.52-.57a12.64,12.64,0,0,1,2.3.15,1.9,1.9,0,0,1-.24,3.71c-1.28.14-1.27.14-1.3,1.52,0,.37.23.88-.53.88-.58,0-.81-.13-.76-.75C206.82,63.74,206.77,62.94,206.77,62.14ZM208,61c.15.34-.29,1,.54,1a1,1,0,0,0,1.06-1c0-.69-.48-.87-1-.91C207.76,60,208.18,60.63,208,61Z"/><path class="cls-1" d="M99.33,62a1.73,1.73,0,0,1-.85,3.31,5.47,5.47,0,0,1-2-.17c-.53-.17-.43-.56-.36-.9s.4-.13.61-.08a4.1,4.1,0,0,0,1.25.17c.51-.07,1-.22,1-.83s-.45-.81-1-.91c-.33-.07-.93.33-.93-.46,0-.34,0-.57.46-.55a2.26,2.26,0,0,0,.63-.07.73.73,0,0,0,.65-.78c0-.42-.35-.56-.7-.65a2.33,2.33,0,0,0-1.25.16c-.26.06-.48.13-.52-.23s-.21-.63.2-.74a3.9,3.9,0,0,1,2.87,0C100.37,59.79,100.35,61,99.33,62Z"/><path class="cls-1" d="M191.08,64.26c.87,0,1.53,0,2.19,0,.41,0,.56.13.56.55s-.25.45-.57.45c-1,0-2,0-2.95,0-.24,0-.6.15-.69-.19a.94.94,0,0,1,.22-1.09,10.29,10.29,0,0,0,1.73-1.76c.4-.54,1-1.12.51-1.82s-1.24-.38-1.89-.11l-.36.12c-.32-.75-.08-1.11.67-1.27a4.86,4.86,0,0,1,1.74-.08,1.68,1.68,0,0,1,1.12,2.55A7.94,7.94,0,0,1,191.08,64.26Z"/><path class="cls-1" d="M166.61,59.12a1.32,1.32,0,0,1,1.89,1,19.54,19.54,0,0,0,1,2.18c.44-1,.87-1.86,1.22-2.76.26-.7.8-.47,1.26-.45.25,0,.09.25,0,.37-.81,1.73-1.61,3.47-2.45,5.17a1.68,1.68,0,0,1-2,.64c-.31-.13-.24-.37-.23-.6s.16-.33.41-.35c1-.13,1.21-.46.74-1.4C167.89,61.64,167.26,60.39,166.61,59.12Z"/><path class="cls-1" d="M113.66,65.29c-2.2,0-3.42-1.15-3.43-3.07a3,3,0,0,1,3.26-3.2c.32,0,.64,0,1,0,.52,0,.66.34.59.8s-.48.29-.73.25c-1.84-.28-3,.94-2.64,2.7a2.08,2.08,0,0,0,2.54,1.45c.26,0,.7-.57.83.17s-.23.8-.74.84Z"/><path class="cls-1" d="M179.68,60.51l-.79.64c-.29.25-.41,0-.57-.18s-.32-.35,0-.59c.47-.39.92-.81,1.39-1.2a1.14,1.14,0,0,1,1.07-.11c.37.1.19.5.19.76,0,1.6,0,3.19,0,4.79,0,.46-.09.65-.61.66s-.68-.18-.67-.69C179.7,63.3,179.68,62,179.68,60.51Z"/><path class="cls-1" d="M264.59,2.72c.8.89.8.89-.09,1.63A4,4,0,0,1,259,4.11c-.42-.42-.38-.7,0-1.12s.57,0,.76.17C261.22,4.39,262.8,4.25,264.59,2.72Z"/><path class="cls-1" d="M229,62.06c0-.82,0-1.64,0-2.46,0-.56.25-.58.67-.58s.64,0,.63.55q0,2.58,0,5.16c0,.51-.25.53-.63.54s-.7,0-.67-.59C229,63.81,229,62.94,229,62.06Z"/><path class="cls-1" d="M186.2,62.87l0-.07,0,.05Z"/></g></g></svg>