<svg xmlns="http://www.w3.org/2000/svg" viewBox="0 0 211.59 69.86"><defs><style>.cls-1{fill:#fff;}</style></defs><g id="Слой_2" data-name="Слой 2"><g id="Layer_2" data-name="Layer 2"><path class="cls-1" d="M15.39,20.07A15.69,15.69,0,0,0,0,36.2c0,7.38,5,15.4,15.5,15.4,7.06,0,14.78-5.48,14.78-16.27C30.28,27.18,24.31,20.07,15.39,20.07Zm.59,30c-4.88,0-8.15-6.61-8.15-16,0-7.94,2.51-12.41,6.62-12.41,5,0,8.05,6.25,8.05,15.28C22.5,47.62,19.37,50.06,16,50.06Z"/><path class="cls-1" d="M43.56,43.35V9.8c0-5.54.19-8.36.26-9.76a48.16,48.16,0,0,1-11,2.41v.94c3.78.77,4,1.2,4,6.07V43.35c0,5.38-.34,5.73-4.23,6.37v1h15v-1C43.76,49,43.56,48.68,43.56,43.35Z"/><path class="cls-1" d="M126.17,44V30.91c0-6.74-2.89-10.84-8.2-10.84a8.8,8.8,0,0,0-5.11,1.78c-1.7,1.08-3.38,2.37-5,3.63-1.31-3.57-3.87-5.41-7.21-5.41-1.91,0-3.51.7-5.83,2.2-1.51,1-2.69,2-4,2.89,0-1.47,0-3.67.14-5.29-3.09,1.29-7.41,1.05-10.93,1.05H68.18v.95c4.58.92,4.92,1.65,4.07,4.31-1.28,4.38-4,11.27-6,16.8L59.62,25.83c-1-2.61-.83-3.13,2.86-4v-.95h-15v.95c3.38.69,3.76,1.55,5.17,4.95,1.81,4.58,6,14.5,9.14,23.06.44,1.24.86,2.51.67,3.06-.35,1.07-1,2.47-2,4.56a15,15,0,0,1-5.82,6.69c-1.46,1-1.75,1.6-1.75,2.26,0,1.86,2.2,3.41,4.3,3.41.89,0,1.57-.43,2-2,1.06-3.72,2.51-8.25,6.72-19.31,4.39-11.4,6.54-16.93,8.46-21.32,1.74-4,2.27-5.43,5.53-5.38,3.06.07,4.1,3.08,4.1,7.4V43.74c0,4.91-.26,5.33-4.28,6v1h14.7v-1c-3.55-.66-3.73-1.14-3.73-5.61V26.76c1.9-1.58,3.7-2.54,5.76-2.54,3.5,0,5.27,2,5.27,7.13V44.19c0,4.46-.17,4.91-3.84,5.53v1h14.25v-1c-3.21-.62-3.71-1.09-3.71-5.53V30.08a19.53,19.53,0,0,0-.26-3.25,9,9,0,0,1,6-2.58c3.54,0,5.25,2.27,5.25,7.49V43.47c0,5.16-.11,5.61-3.94,6.25v1h14.27v-1C126.43,49.06,126.17,48.8,126.17,44Z"/><path class="cls-1" d="M158,30.15a10.28,10.28,0,0,0-10.62-10.08,13.81,13.81,0,0,0-10,4.62,17.45,17.45,0,0,0-4.74,12.17c0,7.73,5.08,14.74,13.75,14.74,2.34,0,7.38-1.74,11.58-7.47l-.61-.79a10.64,10.64,0,0,1-7.77,3.39c-4.94,0-10.37-4-10.34-13.65,7.72-.23,16.45-.79,18.37-1.24C157.89,31.76,158,31.26,158,30.15Zm-8.17.74c-2.31.24-7,.26-10.39.21.57-6.41,3-9.17,6-9.17,3.62,0,5.68,3.95,5.68,7.91C151,30.64,150.59,30.82,149.79,30.89Z"/><path class="cls-1" d="M190.1,42.42V8.81c0-3.12.09-7,.24-8.81a52.43,52.43,0,0,1-12,2.31v.91c4.65.88,5,1.44,5,5.91V20.44a17.13,17.13,0,0,0-3.78-.37c-9.9,0-17.79,7.43-17.79,16.6,0,9.86,7,14.93,12.56,14.93a9,9,0,0,0,3.78-1.16,51.72,51.72,0,0,0,5.23-3c0,1.38-.07,3.44-.14,4.47a64.2,64.2,0,0,1,11.39-2.78v-1l-1.63-.35C190.59,47.22,190.1,46.54,190.1,42.42ZM183.32,46a8.09,8.09,0,0,1-4.9,1.73c-4.29,0-8.95-4.5-9-13.52,0-9.83,4.06-12.17,7.1-12.17,2.45,0,5.42,1.08,6.79,3.58Z"/><path class="cls-1" d="M207.3,43.65a4.29,4.29,0,1,0,4.29,4.29A4.29,4.29,0,0,0,207.3,43.65Z"/></g></g></svg>