<svg xmlns="http://www.w3.org/2000/svg" viewBox="0 0 155.68 75"><defs><style>.cls-1{fill:#626366}.cls-2,.cls-3{fill:#ed2131}.cls-3{fill-rule:evenodd}</style></defs><g id="Слой_2" data-name="Слой 2"><g id="main_page" data-name="main page"><path class="cls-1" d="M6.9 67.75h-.58c-.2 0-.4 0-.6-.08a4.78 4.78 0 01-.57-.12 2.31 2.31 0 01-.47-.18l.38-1.1a5.34 5.34 0 00.53.16l.5.1h.75A2 2 0 008 66.27a1.14 1.14 0 00.42-1 1.61 1.61 0 00-.1-.59 1.05 1.05 0 00-.32-.4 1.24 1.24 0 00-.42-.28L7 63.79c-.36-.13-.69-.25-1-.37a2.75 2.75 0 01-.78-.42 2 2 0 01-.48-.66 2.62 2.62 0 01-.17-1 2.21 2.21 0 01.25-1.1 2.14 2.14 0 01.65-.72 2.81 2.81 0 01.92-.39A4.59 4.59 0 017.45 59H8l.53.09.52.13a3 3 0 01.43.17l-.38 1.06a3.19 3.19 0 00-.65-.19 4.82 4.82 0 00-.6-.07 4.2 4.2 0 00-.47 0h-.22a2.14 2.14 0 00-.32 0 1 1 0 00-.35.16.87.87 0 00-.29.31.91.91 0 00-.12.49 1.46 1.46 0 00.07.51.93.93 0 00.23.35 1.67 1.67 0 00.42.25 5.87 5.87 0 00.61.22 10.51 10.51 0 011.07.41 2.65 2.65 0 01.79.52 2 2 0 01.49.74 3 3 0 01.16 1.07 2.51 2.51 0 01-.23 1.15 2.14 2.14 0 01-.64.78 2.65 2.65 0 01-1 .44 4.93 4.93 0 01-1.15.16zM13.61 67.77a2.41 2.41 0 01-1.17-.25 2 2 0 01-.77-.67 3.15 3.15 0 01-.42-1 5.19 5.19 0 01-.13-1.2 5.57 5.57 0 01.12-1.16 3.16 3.16 0 01.42-1 2.19 2.19 0 01.79-.72 2.46 2.46 0 011.21-.27 2.52 2.52 0 011.19.25 2.07 2.07 0 01.79.67 2.77 2.77 0 01.42 1 5 5 0 01.13 1.19 5.23 5.23 0 01-.13 1.19 3 3 0 01-.42 1 2.23 2.23 0 01-.79.7 2.56 2.56 0 01-1.24.27zm.05-5.26a.91.91 0 00-.56.16 1 1 0 00-.33.43 2.31 2.31 0 00-.16.64 6.6 6.6 0 000 .8 8.17 8.17 0 000 .91 2.52 2.52 0 00.16.68 1.07 1.07 0 00.34.43.9.9 0 00.55.16.85.85 0 00.87-.57 4.71 4.71 0 00.22-1.58 6.77 6.77 0 00-.05-.81 2.28 2.28 0 00-.17-.65 1 1 0 00-.32-.44.94.94 0 00-.55-.16zM20 66.68a4.17 4.17 0 00.8-.08c.25-.06.51-.14.78-.23l.28.94a4.29 4.29 0 01-.89.33 4.13 4.13 0 01-1.13.13 2.75 2.75 0 01-1.11-.22 2.16 2.16 0 01-.79-.61 2.6 2.6 0 01-.49-1 4.28 4.28 0 01-.17-1.22 5.06 5.06 0 01.17-1.34 3 3 0 01.5-1 2.31 2.31 0 01.82-.67 2.68 2.68 0 011.13-.23 4.43 4.43 0 011.07.12 4.23 4.23 0 01.83.3l-.27.92a5.8 5.8 0 00-.69-.17 3.53 3.53 0 00-.79-.08 1.1 1.1 0 00-1 .51 3 3 0 00-.31 1.53 5.06 5.06 0 00.06.79 2 2 0 00.19.65 1.05 1.05 0 001 .61zM23.25 62.61l-.66-.16v-.8h2v5.94h-1.34zm.6-2.16a.82.82 0 01-.58-.23.85.85 0 01-.23-.6.86.86 0 01.23-.59.78.78 0 01.58-.24.74.74 0 01.58.25.82.82 0 01.24.58.78.78 0 01-.24.58.74.74 0 01-.58.25zM27.55 65c0 .22 0 .43.06.64a1.38 1.38 0 00.19.55 1.07 1.07 0 00.41.38 1.49 1.49 0 00.72.14 4.67 4.67 0 00.72 0 4.51 4.51 0 00.91-.25l.3.92a4.94 4.94 0 01-1 .33 4.23 4.23 0 01-1.09.13 3.12 3.12 0 01-1.36-.25 2.06 2.06 0 01-.83-.67 2.52 2.52 0 01-.41-1 5.66 5.66 0 01-.11-1.19 6.94 6.94 0 01.07-.94 3.22 3.22 0 01.33-1.05 2.34 2.34 0 01.75-.85 2.16 2.16 0 011.32-.35 2.5 2.5 0 011.35.31 1.91 1.91 0 01.72.8 3.24 3.24 0 01.3 1.12v1.26zm2.06-.86a4.17 4.17 0 000-.63 1.9 1.9 0 00-.15-.51.81.81 0 00-.32-.34.93.93 0 00-.52-.13.83.83 0 00-.48.14 1.12 1.12 0 00-.31.37 1.78 1.78 0 00-.18.52 3.54 3.54 0 00-.07.58zM34.33 67.77a2.3 2.3 0 01-.92-.16 1.3 1.3 0 01-.51-.44 1.72 1.72 0 01-.22-.66 5.4 5.4 0 01-.06-.83v-3h-.95v-.72l1-.26.43-1.59h.9v1.59h1.5v1H34v3.17a.93.93 0 00.18.66.74.74 0 00.58.19 3 3 0 00.43 0l.49-.07c0 .15 0 .3.08.45s.05.31.08.46a1.88 1.88 0 01-.42.14l-.44.09a2.87 2.87 0 01-.39 0zM38.86 66.1l.45-1.45.94-3h1.35l-2.76 8.4h-1.33l.87-2.8-.53-.55-1.66-5h1.43l.85 3.11.36 1.33zM48.38 67.77a2.46 2.46 0 01-1.18-.25 2.08 2.08 0 01-.77-.67 3.15 3.15 0 01-.42-1 5.81 5.81 0 01-.13-1.2A5 5 0 0146 63.5a2.77 2.77 0 01.42-1 2.16 2.16 0 01.78-.72 2.46 2.46 0 011.21-.27 2.6 2.6 0 011.2.25 2.11 2.11 0 01.78.67 2.6 2.6 0 01.42 1A5 5 0 0151 64.6a5.23 5.23 0 01-.13 1.19 2.77 2.77 0 01-.42 1 2.23 2.23 0 01-.79.7 2.54 2.54 0 01-1.28.28zm0-5.26a.91.91 0 00-.56.16 1 1 0 00-.33.43 2.31 2.31 0 00-.16.64 6.69 6.69 0 000 .8 8.35 8.35 0 000 .91 2.19 2.19 0 00.17.68.92.92 0 00.34.43 1 1 0 001.41-.41 4.46 4.46 0 00.22-1.58 6.77 6.77 0 000-.81 2.28 2.28 0 00-.17-.65 1 1 0 00-.32-.44.92.92 0 00-.56-.16zM55.57 60h-.39a2.68 2.68 0 00-.39 0 .9.9 0 00-.63.19.79.79 0 00-.21.62v.9h1.41v1H54v5h-1.43v-5h-.81V62l.81-.25v-.9a2.57 2.57 0 01.1-.73 1.71 1.71 0 01.33-.72 1.64 1.64 0 01.59-.43 2 2 0 01.89-.17 2.85 2.85 0 01.61.07 3 3 0 01.68.22zM62.12 67.75h-.58a6 6 0 01-.61-.08 5.05 5.05 0 01-.56-.12 2.31 2.31 0 01-.47-.18l.38-1.1a5.16 5.16 0 00.52.16l.51.1h.75a2 2 0 001.13-.29 1.11 1.11 0 00.42-1 1.63 1.63 0 00-.09-.59 1.05 1.05 0 00-.27-.39 1.24 1.24 0 00-.45-.26l-.63-.23c-.36-.13-.69-.25-1-.37a2.6 2.6 0 01-.75-.44 1.76 1.76 0 01-.48-.66 2.45 2.45 0 01-.17-1 2.32 2.32 0 01.24-1.1 2.28 2.28 0 01.66-.72 2.81 2.81 0 01.92-.39 4.57 4.57 0 011-.12h.5l.54.09.52.13a3.5 3.5 0 01.43.17l-.34 1.05a3.11 3.11 0 00-.64-.19 4.76 4.76 0 00-.61-.07 4 4 0 00-.46 0h-.22a2.14 2.14 0 00-.32 0 1 1 0 00-.36.16.85.85 0 00-.28.31.83.83 0 00-.13.49 1.43 1.43 0 00.08.51.82.82 0 00.23.35 1.59 1.59 0 00.41.25c.17.07.38.15.61.22a10.75 10.75 0 011.08.41 2.78 2.78 0 01.79.52 2 2 0 01.48.74 3 3 0 01.17 1.07 2.65 2.65 0 01-.23 1.15 2.06 2.06 0 01-.65.78 2.68 2.68 0 01-1 .44 5 5 0 01-1.07.2zM67.9 65.56a2.9 2.9 0 000 .43 1 1 0 00.11.35.64.64 0 00.24.22.81.81 0 00.41.08 1.52 1.52 0 00.68-.17 4.83 4.83 0 00.52-.33v-4.48h1.38v5.93h-1.08L69.9 67l-.81.49a3.91 3.91 0 01-.41.2 1.14 1.14 0 01-.41.08 1.75 1.75 0 01-1-.22 1.44 1.44 0 01-.52-.55 1.78 1.78 0 01-.22-.72 6.06 6.06 0 010-.7v-3.9h1.37zM73.9 61.65l.23.91a3.84 3.84 0 01.93-.74 2.75 2.75 0 011.06-.34l.22 1.43c-.48 0-.89.08-1.23.13a6.24 6.24 0 00-.94.19v4.36h-1.38v-5.94zM78.82 70.28a5.07 5.07 0 01-1.13-.11 2.16 2.16 0 01-.73-.32 1.11 1.11 0 01-.38-.44 1.08 1.08 0 01-.11-.5 1.11 1.11 0 01.11-.48 1.72 1.72 0 01.28-.47l.49-.61-.63-.24a.52.52 0 01-.08-.24 1.21 1.21 0 010-.25 1.08 1.08 0 01.08-.38 2.82 2.82 0 01.21-.38 3.51 3.51 0 01.29-.36 3.07 3.07 0 01.34-.29 1.92 1.92 0 01-.78-1.59 2.06 2.06 0 01.17-.81 2 2 0 01.5-.67 2.37 2.37 0 01.77-.47 3.06 3.06 0 011-.17 3.14 3.14 0 011.06.15h2v.64l-.87.21a2 2 0 01.31 1.07 2.08 2.08 0 01-.17.82 2 2 0 01-.49.66 2.49 2.49 0 01-.8.45 3.66 3.66 0 01-1.92.06.94.94 0 00-.26.33.69.69 0 00-.08.25.28.28 0 00.08.2.34.34 0 00.26.08h1.86a2.39 2.39 0 011.5.42 1.38 1.38 0 01.55 1.16 1.67 1.67 0 01-.25.89 2.32 2.32 0 01-.71.72 3.56 3.56 0 01-1.08.47 5.09 5.09 0 01-1.39.2zm2.1-2.18a.44.44 0 00-.24-.4 1 1 0 00-.55-.14h-1.88c-.14.16-.26.32-.38.48a.79.79 0 00-.17.45.57.57 0 00.36.53 2.1 2.1 0 00.92.18 3.79 3.79 0 00.77-.08 2 2 0 00.61-.21 1.19 1.19 0 00.41-.35.75.75 0 00.15-.46zm-.61-4.52a1.28 1.28 0 000-.38 1 1 0 00-.17-.37.93.93 0 00-.34-.27 1.24 1.24 0 00-.54-.11 1.28 1.28 0 00-.55.11.89.89 0 00-.32.28 1.12 1.12 0 00-.17.37 2.81 2.81 0 000 .36 2.18 2.18 0 00.05.43 1 1 0 00.17.38.89.89 0 00.33.27 1.2 1.2 0 00.54.11 1.3 1.3 0 00.52-.1.93.93 0 00.34-.27.85.85 0 00.18-.37 1.61 1.61 0 00-.04-.44zM83.77 62.61l-.65-.16v-.8h2v5.94h-1.35zm.6-2.16a.82.82 0 01-.58-.23.85.85 0 01-.23-.6.86.86 0 01.23-.59.78.78 0 01.58-.24.74.74 0 01.63.21.82.82 0 01.24.58.78.78 0 01-.24.58.74.74 0 01-.63.29zM89.36 66.68a4.17 4.17 0 00.8-.08c.25-.06.51-.14.77-.23l.29.94a4.52 4.52 0 01-.89.33 4.13 4.13 0 01-1.13.13 2.75 2.75 0 01-1.11-.22 2.16 2.16 0 01-.79-.61 2.6 2.6 0 01-.49-1 4.28 4.28 0 01-.17-1.22 5.06 5.06 0 01.17-1.34 3 3 0 01.5-1 2.23 2.23 0 01.82-.67 2.65 2.65 0 011.13-.23 4.43 4.43 0 011.07.12 4.23 4.23 0 01.83.3l-.27.92a5.8 5.8 0 00-.69-.17 3.59 3.59 0 00-.79-.08 1.08 1.08 0 00-1 .51 3 3 0 00-.31 1.53 6.7 6.7 0 00.05.79 2 2 0 00.2.65 1.05 1.05 0 001 .61zM97 67.53a3.77 3.77 0 01-.58.14 2.77 2.77 0 01-.53.06.81.81 0 01-.47-.11.62.62 0 01-.23-.4l-.07-.22-.64.41a1.75 1.75 0 01-.89.34 2 2 0 01-.93-.18 1.56 1.56 0 01-.52-.45 1.73 1.73 0 01-.22-.57 3.74 3.74 0 010-.55 1.66 1.66 0 01.27-1 1.94 1.94 0 01.7-.63 3.34 3.34 0 011-.34 7.86 7.86 0 011.21-.13v-.36a1 1 0 00-.22-.7 1 1 0 00-.77-.24 4.26 4.26 0 00-.8.08l-.72.18-.3-.86a5.78 5.78 0 011-.37 4.35 4.35 0 011-.12 3.3 3.3 0 011 .14 1.55 1.55 0 01.66.41 1.59 1.59 0 01.36.68 3.85 3.85 0 01.11.94v3H97zm-1.92-2.76h-.57a2 2 0 00-.6.15 1.27 1.27 0 00-.48.34.8.8 0 00-.19.57 1.15 1.15 0 00.14.61.62.62 0 00.54.22 1.11 1.11 0 00.28 0l.32-.13a3.14 3.14 0 00.31-.18l.25-.17zM98.3 59.82l-.63-.17v-.79h2v8.73H98.3zM107.64 67.77a2.94 2.94 0 01-1.43-.32 2.46 2.46 0 01-.93-.91 4.09 4.09 0 01-.5-1.39 9.92 9.92 0 01-.15-1.8 8.89 8.89 0 01.16-1.79 4.23 4.23 0 01.52-1.39 2.45 2.45 0 01.93-.88 3.27 3.27 0 012.8 0 2.43 2.43 0 01.92.88 4.09 4.09 0 01.52 1.38 10.59 10.59 0 010 3.61 4.3 4.3 0 01-.49 1.39 2.46 2.46 0 01-.93.91 3 3 0 01-1.42.31zm0-7.6a1.18 1.18 0 00-.75.23 1.51 1.51 0 00-.44.66 4 4 0 00-.2 1 12.55 12.55 0 000 1.28v1.33a4.26 4.26 0 00.21 1 1.42 1.42 0 00.44.65 1.29 1.29 0 001.47 0 1.4 1.4 0 00.43-.65 3.6 3.6 0 00.21-1 13 13 0 00.06-1.32v-1.28a4 4 0 00-.2-1 1.6 1.6 0 00-.44-.66 1.17 1.17 0 00-.79-.24zM115.25 67.59v-3.66-.49a1.3 1.3 0 00-.09-.42.61.61 0 00-.23-.29.84.84 0 00-.46-.11 1 1 0 00-.34.06 2.52 2.52 0 00-.33.13 2.69 2.69 0 00-.29.16 1.58 1.58 0 00-.22.16v4.46h-1.39v-5.92h1.1l.26.62.82-.49a2.49 2.49 0 01.4-.2 1.08 1.08 0 01.4-.09 1.89 1.89 0 011 .22 1.49 1.49 0 01.53.56 2.16 2.16 0 01.22.72 4.43 4.43 0 010 .7v3.88zM120.6 66.68a4.28 4.28 0 00.81-.08c.25-.06.51-.14.77-.23l.29.94a4.52 4.52 0 01-.89.33 4.16 4.16 0 01-1.14.13 2.73 2.73 0 01-1.1-.22 2.19 2.19 0 01-.8-.61 2.74 2.74 0 01-.48-1 4.28 4.28 0 01-.17-1.22 5.06 5.06 0 01.17-1.34 2.83 2.83 0 01.5-1 2.23 2.23 0 01.82-.67 2.65 2.65 0 011.13-.23 4.29 4.29 0 011.06.12 4.11 4.11 0 01.84.3l-.28.92a5.6 5.6 0 00-.68-.17 3.62 3.62 0 00-.8-.08 1.08 1.08 0 00-1 .51 3 3 0 00-.31 1.53 5.08 5.08 0 00.05.79 2.27 2.27 0 00.19.65 1.09 1.09 0 00.38.44 1.06 1.06 0 00.64.19zM125.69 67.77a2.46 2.46 0 01-1.18-.25 2.08 2.08 0 01-.77-.67 3.15 3.15 0 01-.42-1 5.81 5.81 0 01-.13-1.2 5 5 0 01.13-1.16 2.77 2.77 0 01.42-1 2.25 2.25 0 01.78-.72 2.48 2.48 0 011.22-.27 2.51 2.51 0 011.18.25 2.07 2.07 0 01.79.67 2.6 2.6 0 01.42 1 5 5 0 01.13 1.19 5.23 5.23 0 01-.13 1.19 2.77 2.77 0 01-.42 1 2.23 2.23 0 01-.79.7 2.54 2.54 0 01-1.23.27zm0-5.26a.94.94 0 00-.57.16 1 1 0 00-.33.43 2.31 2.31 0 00-.16.64 6.69 6.69 0 000 .8 8.35 8.35 0 000 .91 2.5 2.5 0 00.17.68.92.92 0 00.34.43 1 1 0 001.41-.41 4.46 4.46 0 00.22-1.58 6.77 6.77 0 000-.81 2.69 2.69 0 00-.16-.65 1.07 1.07 0 00-.33-.44.91.91 0 00-.54-.16zM129.77 59.82l-.63-.17v-.79h2v8.73h-1.38zM135.05 67.77a2.48 2.48 0 01-1.18-.25 2.05 2.05 0 01-.76-.67 2.75 2.75 0 01-.42-1 5.19 5.19 0 01-.13-1.2 5.57 5.57 0 01.12-1.16 2.77 2.77 0 01.42-1 2.25 2.25 0 01.78-.72 2.5 2.5 0 011.22-.27 2.55 2.55 0 011.19.25 2 2 0 01.78.67 2.78 2.78 0 01.43 1 5 5 0 01.13 1.19 5.23 5.23 0 01-.13 1.19 3 3 0 01-.43 1 2.15 2.15 0 01-.79.7 2.54 2.54 0 01-1.23.27zm0-5.26a.89.89 0 00-.56.16.92.92 0 00-.34.43 2.72 2.72 0 00-.16.64v1.71a2.5 2.5 0 00.17.68 1 1 0 00.34.43.88.88 0 00.55.16.84.84 0 00.86-.57 4.46 4.46 0 00.22-1.58 6.86 6.86 0 000-.81 2.67 2.67 0 00-.17-.65 1.07 1.07 0 00-.33-.44.91.91 0 00-.53-.16zM140.9 70.28a5.17 5.17 0 01-1.14-.11 2.36 2.36 0 01-.73-.32 1.11 1.11 0 01-.38-.44 1.22 1.22 0 01-.11-.5 1.28 1.28 0 01.11-.48 2 2 0 01.28-.47l.5-.61-.63-.24a.67.67 0 01-.09-.24 2.5 2.5 0 010-.25 1.08 1.08 0 01.08-.38 1.58 1.58 0 01.21-.38 2 2 0 01.29-.36 4.28 4.28 0 01.33-.29 1.87 1.87 0 01-.77-1.59 1.9 1.9 0 01.17-.81 2 2 0 01.49-.67 2.32 2.32 0 01.78-.47 3 3 0 011-.17 3.2 3.2 0 011.07.15h2v.64l-.88.21a2 2 0 01.31 1.07 1.91 1.91 0 01-.17.82 1.84 1.84 0 01-.49.66 2.38 2.38 0 01-.8.45 3.66 3.66 0 01-1.92.06 1.07 1.07 0 00-.26.33.63.63 0 00-.07.25.24.24 0 00.08.2.32.32 0 00.25.08h1.89a2.43 2.43 0 011.5.42 1.41 1.41 0 01.55 1.19 1.68 1.68 0 01-.26.89 2.39 2.39 0 01-.7.72 3.52 3.52 0 01-1.09.47 5 5 0 01-1.4.17zm2.1-2.18a.45.45 0 00-.23-.4 1 1 0 00-.55-.14h-1.88a5.31 5.31 0 00-.34.44.74.74 0 00-.18.45.58.58 0 00.37.53 2.07 2.07 0 00.92.18 3.69 3.69 0 00.76-.08 2.05 2.05 0 00.62-.21 1.29 1.29 0 00.41-.35.74.74 0 00.1-.42zm-.6-4.52a1.73 1.73 0 000-.38.89.89 0 00-.52-.64 1.19 1.19 0 00-.53-.11 1.22 1.22 0 00-.55.11 1 1 0 00-.33.28 1.1 1.1 0 00-.16.37 1.71 1.71 0 000 .36 1.63 1.63 0 000 .43 1.18 1.18 0 00.16.38.89.89 0 00.33.27 1.22 1.22 0 00.55.11 1.34 1.34 0 00.52-.1 1 1 0 00.34-.27.85.85 0 00.18-.37 2.12 2.12 0 000-.44zM147.6 66.1l.44-1.45.94-3h1.35l-2.76 8.4h-1.33l.87-2.8-.53-.55-1.66-5h1.43l.85 3.11.36 1.33zM60 50.63a2 2 0 01-.55.81 2.46 2.46 0 01-.91.53 4.08 4.08 0 01-1.28.18A3.78 3.78 0 0156 52a2.31 2.31 0 01-.85-.52 2 2 0 01-.5-.81 3.52 3.52 0 01-.16-1.06v-6h1.46v6a1.82 1.82 0 00.29 1.06 1.16 1.16 0 001 .4 1.39 1.39 0 001.09-.38 1.52 1.52 0 00.36-1.08v-6h1.46v6a2.69 2.69 0 01-.15 1.02zM66.68 46.06c-.39.46-.77.91-1.14 1.37s-.76.91-1.16 1.37l1.19 1.59c.39.52.79 1 1.18 1.59h-1.62l-2.06-3v3h-1.38v-8.74h1.38v5.4l2.05-2.58zM68.85 46l.23.92a3.41 3.41 0 01.93-.74 2.71 2.71 0 011.06-.35l.22 1.43c-.49 0-.9.08-1.23.13a7.8 7.8 0 00-.94.19V52h-1.38v-6zM76.91 51.92l-.58.14a2.68 2.68 0 01-.53 0 .84.84 0 01-.47-.1.62.62 0 01-.23-.4l-.1-.19-.64.41a1.78 1.78 0 01-.89.35 2 2 0 01-.93-.19 1.26 1.26 0 01-.51-.45 1.56 1.56 0 01-.23-.57 3.65 3.65 0 010-.55 1.64 1.64 0 01.26-1 2 2 0 01.7-.63 3.41 3.41 0 011-.35A9 9 0 0175 48.3v-.36a1 1 0 00-.22-.7A1 1 0 0074 47a3.42 3.42 0 00-.79.08 7.08 7.08 0 00-.73.18l-.26-.89a4.73 4.73 0 011-.37 3.93 3.93 0 011-.13 3 3 0 011 .15 1.55 1.55 0 01.67.41 1.63 1.63 0 01.35.68 3.73 3.73 0 01.11.94v3h.55zM75 49.15l-.57.05a2.41 2.41 0 00-.6.16 1.37 1.37 0 00-.48.33.87.87 0 00-.19.57 1.19 1.19 0 00.14.62.62.62 0 00.54.21 1 1 0 00.28-.05 2.69 2.69 0 00.32-.13 2.27 2.27 0 00.31-.17 1.8 1.8 0 00.25-.18zM78.47 47l-.66-.16V46h2v6h-1.34zm.6-2.15a.78.78 0 01-.58-.24.81.81 0 01-.23-.59.84.84 0 01.23-.59.76.76 0 01.58-.25.74.74 0 01.58.25.84.84 0 01.24.59.82.82 0 01-.24.58.78.78 0 01-.58.24zM84.87 52v-3.69-.49a1.36 1.36 0 00-.09-.42.6.6 0 00-.23-.29.85.85 0 00-.46-.1 1.33 1.33 0 00-.34.05 2.52 2.52 0 00-.33.13 2.69 2.69 0 00-.29.16l-.22.16V52h-1.39v-5.94h1.09l.26.61.82-.49.4-.2a1.05 1.05 0 01.4-.08 1.8 1.8 0 011 .22 1.39 1.39 0 01.53.55 2 2 0 01.22.72 4.43 4.43 0 010 .7V52zM88.14 47l-.65-.16V46h2v6h-1.35zm.6-2.15a.75.75 0 01-.57-.24.78.78 0 01-.24-.59.81.81 0 01.24-.59.79.79 0 011.15 0 .84.84 0 01.24.59.82.82 0 01-.24.58.76.76 0 01-.58.24zM96.06 51.92l-.58.14a2.71 2.71 0 01-.54 0 .86.86 0 01-.47-.1.61.61 0 01-.22-.4l-.06-.24-.65.41a1.72 1.72 0 01-.88.35 2 2 0 01-.93-.19 1.36 1.36 0 01-.52-.45 1.54 1.54 0 01-.22-.57 3.74 3.74 0 010-.55 1.65 1.65 0 01.27-1 1.94 1.94 0 01.7-.63 3.34 3.34 0 011-.35 9.18 9.18 0 011.2-.13v-.36a1 1 0 00-.21-.7 1.06 1.06 0 00-.77-.23 3.56 3.56 0 00-.8.08 6.31 6.31 0 00-.72.18l-.26-.89a4.55 4.55 0 011-.37 3.87 3.87 0 011-.13 3 3 0 011 .15 1.46 1.46 0 01.66.41 1.77 1.77 0 01.36.68 3.73 3.73 0 01.11.94v3h.55zm-1.92-2.77l-.57.05a2.3 2.3 0 00-.6.16 1.28 1.28 0 00-.48.33.82.82 0 00-.19.57 1.19 1.19 0 00.14.62.6.6 0 00.54.21 1 1 0 00.27-.05 2.15 2.15 0 00.32-.13 2.4 2.4 0 00.32-.17 1.8 1.8 0 00.25-.18zM100.51 52v-3.69-.49a1.12 1.12 0 00-.09-.42.55.55 0 00-.23-.29.85.85 0 00-.46-.1 1.33 1.33 0 00-.34.05l-.33.13a2.69 2.69 0 00-.29.16l-.22.16V52h-1.39v-5.94h1.1l.26.61.81-.49a3.13 3.13 0 01.41-.2 1 1 0 01.39-.08 1.75 1.75 0 011 .22 1.39 1.39 0 01.53.55 2.25 2.25 0 01.23.72 6.06 6.06 0 01.05.7V52z"/><g id="mB8zI5"><path class="cls-2" d="M20.4 51.16v2.44l1.23.08c0 .44.07.8.1 1.15h1.14c0-.4.06-.76.1-1.14l1.16-.1v-2.41H23c0 .42-.07.8-.09 1.15h-1.23c0-.42-.07-.78-.1-1.21l-1.2.06v-1.27h-1.19V51zm-18-4l-1.16.23v1.05h1.18v-1.3l1.28.1c0-.49.06-.85.09-1.23H5c0 .42.09.8.12 1.16h1.11v-2.4l-1.16-.09c0-.42-.07-.8-.11-1.19H3.81c0 .43-.06.81-.09 1.19l-1.17.09c-.04.85-.08 1.62-.11 2.4zm0 4v2.43l1.26.1c0 .42.07.77.1 1.14H5c0-.4.07-.75.11-1.14l1.15-.12v-2.41H5.13c0 .42-.09.79-.13 1.18H3.79c0-.43-.07-.81-.11-1.23l-1.23.07v-1.25H1.29v1.11zm39.64-4.07v-2.36l-1.27-.09c0-.43-.07-.81-.11-1.19h-1.07c0 .43-.06.8-.1 1.19l-1.16.09v2.41h1.13c0-.42.07-.79.11-1.16h1.22c0 .42.05.78.09 1.23l1.24-.1v1.31h1.15v-1.1zm0 4l1.24-.09v-1.1h-1.16v1.29l-1.24-.07c0 .48-.06.86-.09 1.24h-1.21c0-.41-.09-.79-.13-1.17h-1.11v2.42l1.17.07c0 .44.08.8.11 1.15h1.14c0-.41.06-.76.09-1.15l1.25-.09zm1.33 1.28v1.16l1.17.08c0 .44.07.8.1 1.14h1.14c0-.4.06-.76.1-1.14l1.16-.1.12-1.18 1.19-.1v-2.38H46c0 .41-.06.79-.09 1.19l-1.21.1c0 .42 0 .78-.08 1.18zm3.83-6.47c0-.43-.06-.79-.1-1.17l-1.17-.11c0-.44-.08-.82-.11-1.19h-1.11c0 .42-.08.79-.13 1.2l-1.14.09v1.14l1.15.08c0 .44.08.81.11 1.2l1.17.08c.05.42.1.79.14 1.15h2.41V46zm-21.66 0l1.19.1c0 .43.08.81.12 1.26 1.07-.28 1.42.19 1.22 1.17h2.44V46l-1.17-.09c0-.41-.07-.79-.11-1.19l-1.15-.08c0-.42-.09-.8-.13-1.19h-1.12c0 .43-.07.81-.11 1.2l-1.18.09zm0 6.54v1.16l1.16.07q.08.6.15 1.14H28c0-.41.07-.76.1-1.14l1.16-.08c0-.4.08-.78.12-1.19l1.17-.11V49.9h-2.43c0 .42-.07.78-.1 1.16l-1.18.1c0 .43-.07.79-.1 1.18zm-10.31 0c0 .44.05.8.08 1.19l1.19.09c0 .41.07.76.11 1.15h1.13c0-.41.07-.79.1-1.16l1.16-.12v-1.15l-1.17-.08c0-.42-.08-.79-.12-1.2l-1.16-.06c0-.41-.08-.79-.12-1.18h-2.4v2.4zM9 47.2l1.17.1c.05.41.08.78.12 1.16h2.4v-2.4l-1.19-.12c0-.41-.06-.77-.09-1.16l-1.18-.08c0-.45-.07-.83-.1-1.19H8.94c0 .43-.06.79-.09 1.18l-1.16.12v1.12l1.16.07c.03.41.06.77.15 1.2zm1.25 6.5l1.18-.1c0-.42.06-.8.09-1.17l1.15-.11v-2.4h-2.44c0 .44-.07.81-.1 1.18L9 51.19c0 .43-.06.8-.09 1.19l-1.15.09v1.15l1.14.09c0 .42.08.77.11 1.14h1.09c.04-.4.07-.76.1-1.15zm26.72-1.28l-1.18-.09c-.05-.42-.09-.8-.13-1.19l-1.16-.08c0-.42-.08-.79-.12-1.18H32v2.43l1.16.09c0 .41.06.77.09 1.16l1.18.11c0 .41.07.76.11 1.15h1.12c0-.39.07-.75.11-1.14l1.19-.12zm-2.57-4c0-.42.06-.79.09-1.18l1.18-.09c0-.42.06-.8.1-1.19l1.14-.09v-1.14l-1.15-.09c0-.45-.07-.82-.1-1.2h-1.17c0 .41-.08.79-.12 1.2l-1.18.1c0 .42 0 .78-.08 1.17l-1.17.09v2.4zm-16.61-5h-1.17c0 .41-.08.79-.12 1.19l-1.18.11c0 .43-.06.81-.09 1.17l-1.17.11v2.39h2.47c-.3-1.12.29-1.38 1.2-1.24 0-.45.07-.81.1-1.2L19 45.9v-1.14l-1.19-.09c0-.41-.04-.77-.07-1.2zm2.7 3.68h1.15c0-.43.06-.78.09-1.16h1.21c0 .43.08.81.11 1.16h1.11v-2.34l-1.16-.1c0-.42-.07-.8-.1-1.18h-1.2c0 .43-.06.8-.09 1.19l-1.17.1zm1.24 2.64h1.21v-1.17h-1.26zM5 49.82V48.6H3.81v1.21zm35.8-1.28h-1.23v1.22h1.21zm-10.17-3.92h1.18v-1.21h-1.18zm0 10.21h1.18v-1.16h-1.17zM12.76 43.44v1.23h1.15v-1.23zM14 54.88V53.7h-1.24v1.18zm29.47-6.3v1.14h1.14v-1.14zm-35.8 1.17h1.12v-1.1H7.67zm12.66-2.43h-1.15v1.12h1.15zm4 2.56V51h1.11v-1.12zm0-1.45h1.12v-1.1h-1.19zM0 49.77h1.14v-1.12H0zm38.19-2.47h-1.13v1.12h1.13zm0 2.57H37c0 .42 0 .78.05 1.15h1.12zm-6.37-.14v-1.11h-1.17v1.11zM19 49.76v-1.14h-1.1v1.14zm-5.12-1.11h-1.11v1.09h1.15zm11.63 0v1.14h1.12V48.6zm11.36 0h-1.09v1.13h1.13zm-29.35 2.4v-1.13H6.4v1.13zm-1.08-2.59h1.07v-1.08c-1.2-.18-1.29-.1-1.07 1.08z"/><path class="cls-3" d="M43.43 52.41l1.18-.09c0-.4 0-.76.08-1.18L45.9 51c0-.4.06-.78.09-1.19h2.43v2.42l-1.19.1-.12 1.18-1.16.1c0 .38-.07.74-.1 1.14h-1.14c0-.34-.06-.7-.1-1.14l-1.17-.08c0-.34 0-.7-.01-1.12zM47.2 45.9l1.22.08v2.4H46c0-.36-.09-.73-.14-1.15l-1.17-.08c0-.39-.07-.76-.11-1.2l-1.15-.08v-1.14l1.14-.09c.05-.41.09-.78.13-1.2h1.11c0 .37.07.75.11 1.19l1.17.11c.05.37.08.73.11 1.16zM25.54 45.89v-1.13l1.18-.09c0-.39.07-.77.11-1.2H28c0 .39.08.77.13 1.19l1.15.08c0 .4.07.78.11 1.19l1.17.09v2.39h-2.49c.2-1-.15-1.45-1.22-1.17 0-.45-.08-.83-.12-1.26zM25.56 52.43l1.18-.08c0-.39.06-.75.1-1.18l1.18-.1c0-.38.07-.74.1-1.16h2.41v2.39l-1.17.11c0 .41-.08.79-.12 1.19l-1.16.08c0 .38-.06.73-.1 1.14h-1.11q-.07-.54-.15-1.14l-1.16-.07zM15.25 52.41l-1.19-.08v-2.4h2.4c0 .39.08.77.12 1.18l1.16.06c0 .41.08.78.12 1.2l1.17.08v1.15l-1.17.09c0 .37-.07.75-.1 1.16h-1.13c0-.39-.07-.74-.11-1.15l-1.19-.09c-.03-.4-.05-.76-.08-1.2zM9 47.2c0-.43-.07-.79-.1-1.19l-1.16-.09V44.8l1.16-.12c0-.39.06-.75.09-1.18h1.14c0 .36.06.74.1 1.19l1.18.08c0 .39.06.75.09 1.16l1.19.12v2.4h-2.4c0-.38-.07-.75-.12-1.16zM10.2 53.7c0 .39-.06.75-.1 1.14H9c0-.37-.07-.72-.11-1.14l-1.14-.09v-1.15l1.15-.09c0-.39.06-.76.09-1.19l1.18-.09c0-.37.06-.74.1-1.18h2.39v2.4l-1.15.11c0 .37-.06.75-.09 1.17zM36.92 52.42v1.13l-1.19.12c0 .39-.07.75-.11 1.14H34.5c0-.39-.07-.74-.11-1.15l-1.18-.11c0-.39-.06-.75-.09-1.16L32 52.31v-2.43h2.37c0 .39.08.76.12 1.18l1.16.08c0 .39.08.77.13 1.19zM34.35 48.43h-2.41V46l1.17-.11c0-.39 0-.75.08-1.17l1.18-.1c0-.41.08-.79.12-1.2h1.12c0 .38.06.75.1 1.2l1.15.09v1.15l-1.14.14c0 .39-.07.77-.1 1.19l-1.18.09c-.03.36-.06.72-.09 1.15zM17.74 43.47c0 .43.07.79.1 1.2l1.19.09v1.14l-1.19.1c0 .39-.06.75-.1 1.2-.91-.14-1.5.12-1.2 1.24h-2.47v-2.39l1.16-.05c0-.36 0-.74.09-1.17l1.18-.11c0-.4.08-.78.12-1.19zM42.1 51.13v2.43l-1.25.09c0 .39-.06.74-.09 1.15h-1.14c0-.35-.07-.71-.11-1.15l-1.17-.07v-2.42h1.11c0 .38.09.76.13 1.17h1.21c0-.38.06-.76.09-1.24l1.24.07zM42.13 47.1l-1.25.1c0-.45-.06-.81-.09-1.23h-1.22c0 .37-.07.74-.11 1.16h-1.13v-2.39l1.16-.09c0-.39.07-.76.1-1.19h1.14c0 .38.07.76.11 1.19l1.27.09v2.39zM20.44 47.15v-2.38l1.17-.1c0-.39.06-.76.09-1.19h1.15c0 .38.06.76.1 1.18l1.16.1v2.39H23c0-.35-.07-.73-.11-1.16h-1.21c0 .38-.06.73-.09 1.16zM2.45 51.21l1.23-.07c0 .42.07.8.11 1.23H5c0-.39.09-.76.13-1.18h1.09v2.41l-1.15.12c0 .39-.07.74-.11 1.14H3.84c0-.37-.06-.72-.1-1.14l-1.26-.1v-2.43zM2.43 47.17c0-.78.08-1.55.12-2.38l1.17-.09c0-.38.06-.76.09-1.19H5c0 .39.07.77.11 1.19l1.16.09v2.4H5.12c0-.36-.08-.74-.12-1.16H3.79c0 .38-.06.74-.09 1.23l-1.28-.1zM20.38 51.18l1.2-.06c0 .43.06.79.1 1.21h1.23c0-.35.05-.73.09-1.15h1.13v2.41l-1.16.1c0 .38-.06.74-.1 1.14h-1.14c0-.35-.06-.71-.1-1.15l-1.23-.08v-2.44zM21.68 49.79v-1.22h1.21v1.22zM5 49.82H3.81v-1.21H5zM40.78 48.54v1.22h-1.21v-1.22zM30.63 44.62v-1.21h1.18v1.21zM30.64 54.83v-1.16h1.18v1.16z"/><path class="cls-3" d="M42.12 51.16v-1.29h1.16V51l-1.18.16zM42.11 47.12l1.17.2v1.09h-1.15V47.1zM2.47 51.19l-1.18-.14v-1.11h1.16v1.28zM2.42 47.15v1.3H1.28V47.4l1.16-.23zM20.4 51.16L19.19 51v-1.08h1.19v1.27zM12.76 43.44h1.15v1.23h-1.15zM14 54.88h-1.23V53.7H14zM43.42 48.58h1.14v1.14h-1.14zM7.67 49.75v-1.09h1.12v1.1zM20.33 47.32v1.12h-1.15v-1.12zM24.28 49.88h1.11V51h-1.11zM24.26 48.43v-1.1h1.12v1.1zM0 49.77v-1.11h1.14v1.12zM38.19 47.3v1.12h-1.13V47.3zM38.18 49.87V51h-1.12c0-.37 0-.73-.05-1.15zM31.81 49.73h-1.16v-1.11h1.16zM19 49.76h-1.1v-1.14H19zM13.92 48.65v1.09h-1.15v-1.09zM25.55 48.6h1.13v1.14h-1.12c0-.37-.01-.74-.01-1.14zM36.91 48.59v1.13h-1.13v-1.13zM7.52 51.05H6.4v-1.13h1.12zM6.44 48.46c-.22-1.18-.13-1.26 1.07-1.08v1.08z"/></g><g id="mB8zI5-2" data-name="mB8zI5"><path class="cls-2" d="M136.48 51v-1.11h-1.18v1.27l-1.2-.06c0 .43-.06.79-.1 1.21h-1.23c0-.35-.06-.73-.09-1.15h-1.13v2.41l1.16.1c0 .38.06.74.09 1.14h1.2c0-.35.06-.71.1-1.15l1.22-.08v-2.44zm16.65-6.24L152 44.7c0-.38 0-.76-.08-1.19h-1.14c0 .39-.07.77-.12 1.19l-1.15.09v2.4h1.1c0-.36.08-.74.13-1.16h1.21c0 .38.06.74.09 1.23l1.28-.1v1.3h1.14V47.4l-1.16-.23c-.09-.78-.13-1.55-.17-2.38zm1.26 6.26v-1.08h-1.16v1.28l-1.23-.08c0 .42-.08.8-.12 1.23h-1.21c0-.39-.08-.76-.12-1.18h-1.1v2.41l1.15.12c0 .39.07.74.1 1.14h1.14c0-.37.06-.72.1-1.14l1.26-.1v-2.43zm-42-3.73v1.09h1.16V47.1l1.25.1c0-.45.06-.81.09-1.23h1.22c0 .37.07.74.11 1.16h1.13v-2.39l-1.17-.09c0-.39-.06-.76-.1-1.19H115c0 .38-.07.76-.11 1.19l-1.27.09v2.39zm1.17 6.24l1.25.09c0 .39.07.74.1 1.15h1.14c0-.35.06-.71.1-1.15l1.18-.07v-2.39h-1.12c0 .38-.08.76-.12 1.17h-1.21c0-.38-.06-.76-.09-1.24l-1.24.07v-1.29h-1.15V51l1.18.16c0 .76 0 1.54-.01 2.4zm-2.5-1.24c0-.4-.06-.76-.09-1.18l-1.2-.1c0-.4-.06-.78-.09-1.19h-2.43v2.42l1.2.1.12 1.18 1.16.1c0 .38.06.74.1 1.14H111c0-.34.06-.7.09-1.14l1.18-.08v-1.13zm-3.8-6.29v2.4h2.41c0-.36.09-.73.14-1.15l1.16-.08c0-.39.07-.76.12-1.2l1.15-.08v-1.16l-1.14-.09c0-.41-.09-.78-.13-1.2h-1.11c0 .37-.07.75-.11 1.19l-1.17.11c0 .38-.07.74-.1 1.17zm22.88-1.22l-1.14-.11c0-.39-.07-.77-.12-1.2h-1.11c0 .39-.08.77-.13 1.19l-1.15.08c0 .4-.07.78-.12 1.19l-1.16.09v2.39h2.45c-.21-1 .14-1.45 1.22-1.17 0-.45.08-.83.12-1.26l1.19-.1zm-1.2 7.59c0-.39-.06-.75-.1-1.18l-1.18-.1c0-.38-.07-.74-.11-1.16h-2.4v2.39l1.18.11c0 .41.08.79.11 1.19l1.17.08c0 .38.06.73.09 1.14h1.12c.05-.36.09-.74.14-1.14l1.17-.07v-1.2zm12.68 0v-2.4h-2.4c0 .39-.08.77-.12 1.18l-1.16.06c0 .41-.08.78-.12 1.2l-1.17.08v1.15l1.17.09c0 .37.06.75.1 1.16h1.13c0-.39.07-.74.11-1.15l1.19-.09c0-.39.05-.75.07-1.19zm5.21-6.37l1.16-.09V44.8l-1.17-.12c0-.39 0-.75-.08-1.18h-1.15c0 .36-.06.74-.09 1.19l-1.19.08c0 .39-.05.75-.09 1.16l-1.18.12v2.4h2.4c0-.38.07-.75.11-1.16l1.18-.1c.03-.42.06-.78.1-1.19zm-1.26 8.83h1.14c0-.37.06-.72.1-1.14l1.15-.09v-1.15l-1.15-.09c0-.39-.06-.76-.09-1.19l-1.18-.09c0-.37-.07-.74-.1-1.18h-2.39v2.4l1.16.11c0 .37 0 .75.08 1.17l1.19.1zm-26.81-1.29l1.19.12c0 .39.07.75.1 1.14h1.13c0-.39.07-.74.1-1.15l1.19-.11c0-.39 0-.75.09-1.16l1.16-.09v-2.41h-2.37c0 .39-.08.76-.12 1.18l-1.16.08c0 .39-.08.77-.13 1.19l-1.18.09zm5-5.12V46l-1.17-.11c0-.39-.06-.75-.09-1.17l-1.17-.1-.12-1.2h-1.12c0 .38-.06.75-.1 1.2l-1.15.09v1.15L120 46c0 .39.07.77.1 1.19l1.18.09c0 .39.06.76.09 1.18zm14.1-3.76l-1.19.09v1.14l1.2.11c0 .39.06.75.1 1.2.91-.14 1.5.12 1.2 1.24h2.47v-2.38l-1.2-.06c0-.36-.05-.74-.08-1.17l-1.18-.11c0-.4-.08-.78-.13-1.19h-1.11c-.03.37-.07.73-.1 1.14zm-2.6.1l-1.18-.1c0-.39-.05-.76-.09-1.19h-1.14c0 .38-.07.76-.1 1.18l-1.16.1v2.39h1.1c0-.35.07-.73.11-1.16h1.2c0 .38.05.73.09 1.16h1.15zM134 48.57h-1.21v1.22H134zm17.87 1.25v-1.21h-1.17v1.22zm-37-.06h1.21v-1.22h-1.18zm10.15-6.35h-1.18v1.21H125c0-.41.05-.79.05-1.21zm0 10.26h-1.18v1.16H125v-1.16zm16.73-10.23v1.23h1.16v-1.23zm1.14 11.44V53.7h-1.18v1.18zm-31.79-6.3v1.14h1.14v-1.14zm36.89.08h-1.12v1.1H148zm-12.66-.22h1.14v-1.12h-1.15zm-5.06 1.44v1.14h1.12v-1.14zm1.13-2.55h-1.1v1.1h1.12zm24.26 1.33h-1.15v1.12h1.15zm-38.2-.24h1.14V47.3h-1.14zm0 2.6h1.13v-1.15h-1.09c-.01.42-.01.76-.01 1.13zm7.54-1.29v-1.11h-1.16v1.11zm12.76 0v-1.11h-1.14v1.14zm4 0h1.15v-1.08h-1.15zM129 48.6v1.14h1.13V48.6zm-10.23 1.12h1.13v-1.13h-1.13zm30.51 1.33v-1.13h-1.12v1.13zm-1.11-3.67v1.08h1.06c.22-1.18.14-1.26-1.06-1.08z"/><path class="cls-3" d="M112.24 52.41l-1.17-.09c0-.4-.06-.76-.09-1.18l-1.2-.1c0-.4-.06-.78-.09-1.19h-2.43v2.42l1.2.1.12 1.18 1.16.1c0 .38.06.74.1 1.14H111c0-.34.06-.7.09-1.14l1.18-.08zM108.48 45.9l-1.22.08v2.4h2.41c0-.36.09-.73.14-1.15l1.16-.08c0-.39.07-.76.12-1.2l1.15-.08v-1.14l-1.14-.09c0-.41-.09-.78-.13-1.2h-1.11c0 .37-.07.75-.11 1.19l-1.17.11c-.04.37-.07.73-.1 1.16zM130.14 45.89v-1.13l-1.14-.09c0-.39-.07-.77-.12-1.2h-1.11c0 .39-.08.77-.13 1.19l-1.15.08c0 .4-.07.78-.12 1.19l-1.16.09v2.39h2.45c-.21-1 .14-1.45 1.22-1.17 0-.45.08-.83.12-1.26zM130.12 52.43l-1.18-.08c0-.39-.06-.75-.1-1.18l-1.18-.1c0-.38-.07-.74-.11-1.16h-2.4v2.39l1.18.11c0 .41.08.79.11 1.19l1.17.08c0 .38.06.73.09 1.14h1.12c.05-.36.09-.74.14-1.14l1.17-.07zM140.42 52.41l1.2-.08v-2.4h-2.4c0 .39-.08.77-.12 1.18l-1.16.06c0 .41-.08.78-.12 1.2l-1.17.08v1.15l1.17.09c0 .37.06.75.1 1.16h1.13c0-.39.07-.74.11-1.15l1.19-.09c.02-.4.05-.76.07-1.2zM146.73 47.2c0-.43.06-.79.1-1.19l1.16-.09V44.8l-1.17-.12c0-.39 0-.75-.08-1.18h-1.15c0 .36-.06.74-.09 1.19l-1.19.08c0 .39-.05.75-.09 1.16l-1.18.12v2.4h2.4c0-.38.07-.75.11-1.16zM145.48 53.7l.09 1.14h1.14c0-.37.06-.72.1-1.14l1.15-.09v-1.15l-1.15-.09c0-.39-.06-.76-.09-1.19l-1.18-.09c0-.37-.07-.74-.1-1.18h-2.39v2.4l1.16.11c0 .37 0 .75.08 1.17zM118.76 52.42v1.13l1.19.12c0 .39.07.75.1 1.14h1.13c0-.39.07-.74.1-1.15l1.19-.11c0-.39 0-.75.09-1.16l1.16-.09v-2.42h-2.37c0 .39-.08.76-.12 1.18l-1.16.08c0 .39-.08.77-.13 1.19zM121.33 48.43h2.41V46l-1.17-.11c0-.39-.06-.75-.09-1.17l-1.17-.1-.12-1.2h-1.12c0 .38-.06.75-.1 1.2l-1.15.09v1.15L120 46c0 .39.07.77.1 1.19l1.18.09c-.01.36.02.72.05 1.15zM137.94 43.47c0 .43-.07.79-.1 1.2l-1.19.09v1.14l1.2.11c0 .39.06.75.1 1.2.91-.14 1.5.12 1.2 1.24h2.47v-2.39l-1.18-.06c0-.36-.05-.74-.08-1.17l-1.18-.11c0-.4-.08-.78-.13-1.19zM113.58 51.13v2.43l1.25.09c0 .39.07.74.1 1.15h1.14c0-.35.06-.71.1-1.15l1.18-.07v-2.42h-1.12c0 .38-.08.76-.12 1.17h-1.21c0-.38-.06-.76-.09-1.24l-1.24.07zM113.55 47.1l1.25.1c0-.45.06-.81.09-1.23h1.22c0 .37.07.74.11 1.16h1.13v-2.39l-1.17-.09c0-.39-.06-.76-.1-1.19H115c0 .38-.07.76-.11 1.19l-1.27.09v2.39zM135.24 47.15v-2.38l-1.18-.1c0-.39-.05-.76-.09-1.19h-1.14c0 .38-.07.76-.1 1.18l-1.16.1v2.39h1.1c0-.35.07-.73.11-1.16H134c0 .38.05.73.09 1.16zM153.23 51.21l-1.23-.07c0 .42-.08.8-.12 1.23h-1.21c0-.39-.08-.76-.12-1.18h-1.1v2.41l1.15.12c0 .39.07.74.1 1.14h1.14c0-.37.06-.72.1-1.14l1.26-.1v-2.43zM153.24 47.17c0-.78-.07-1.55-.11-2.38L152 44.7c0-.38 0-.76-.08-1.19h-1.14c0 .39-.07.77-.12 1.19l-1.15.09v2.4h1.1c0-.36.08-.74.13-1.16h1.21c0 .38.06.74.09 1.23l1.28-.1zM135.3 51.18l-1.2-.06c0 .43-.06.79-.1 1.21h-1.23c0-.35-.06-.73-.09-1.15h-1.13v2.41l1.16.1c0 .38.06.74.09 1.14h1.2c0-.35.06-.71.1-1.15l1.22-.08v-2.44zM134 49.79v-1.22h-1.21v1.22zM150.69 49.82h1.18v-1.21h-1.17c0 .39 0 .75-.01 1.21zM114.9 48.54v1.22h1.21v-1.22zM125 44.62v-1.21h-1.18v1.21zM125 54.83v-1.16h-1.18v1.16z"/><path class="cls-3" d="M113.56 51.16v-1.29h-1.16V51l1.18.16zM113.57 47.12l-1.17.2v1.09h1.16V47.1zM153.2 51.19l1.19-.14v-1.11h-1.16v1.28zM153.26 47.15v1.3h1.14V47.4l-1.16-.23zM135.28 51.16l1.2-.13v-1.11h-1.18v1.27zM142.92 43.44h-1.15v1.23h1.16zM141.73 54.88h1.18V53.7h-1.18zM112.26 48.58h-1.14v1.14h1.14v-1.14zM148 49.75v-1.09h-1.12v1.1zM135.35 47.32v1.12h1.14v-1.12zM131.4 49.88h-1.11v1.14h1.12zM131.42 48.43v-1.1h-1.12v1.1zM155.68 49.77v-1.11h-1.15v1.12zM117.48 47.3v1.12h1.14V47.3zM117.5 49.87v1.15h1.13v-1.15zM123.87 49.73H125v-1.11h-1.16zM136.64 49.76h1.14v-1.14h-1.14zM141.76 48.65v1.09h1.15v-1.09zM130.13 48.6H129v1.14h1.13c-.01-.37-.01-.74 0-1.14zM118.77 48.59v1.13h1.13v-1.13zM148.16 51.05h1.12v-1.13h-1.12zM149.23 48.46c.22-1.18.14-1.26-1.06-1.08v1.08z"/></g><path class="cls-2" d="M46.83 32.05a9.72 9.72 0 01-2.66 3.63A12.56 12.56 0 0139.79 38a19.69 19.69 0 01-6 .84 18.66 18.66 0 01-5.95-.84 11.36 11.36 0 01-4.12-2.33 9.08 9.08 0 01-2.41-3.62 13.78 13.78 0 01-.79-4.74V1.08h8.53v25.5a7.09 7.09 0 001 4c.69 1 1.93 1.55 3.73 1.55a5 5 0 004.09-1.57 6.11 6.11 0 001.29-4V1.08h8.53v26.26a11.91 11.91 0 01-.86 4.71zM63.18 35.24c-.73 0-1.52 0-2.38-.12s-1.74-.2-2.62-.36a19.51 19.51 0 01-2.56-.62 11.1 11.1 0 01-2.19-.9L55.32 28a17.15 17.15 0 002.32.69c.77.18 1.51.32 2.21.44s1.31.18 1.84.21 1 .05 1.25.05a7 7 0 003.93-.89 3.56 3.56 0 001.29-3.15 4.72 4.72 0 00-.3-1.79 2.87 2.87 0 00-.89-1.2 6.3 6.3 0 00-1.54-.87c-.64-.25-1.4-.53-2.29-.81-1.57-.52-3-1-4.19-1.52a11.36 11.36 0 01-3.13-1.85 7.41 7.41 0 01-2-2.72 10.38 10.38 0 01-.7-4.12 8.81 8.81 0 011-4.4 8.4 8.4 0 012.69-2.92 11.41 11.41 0 013.89-1.59 20.48 20.48 0 014.53-.48 21.28 21.28 0 012.16.12 18.8 18.8 0 012.39.38 23 23 0 012.37.65 12.9 12.9 0 012 .86q-.1.24-.33 1c-.15.48-.31 1-.5 1.57S73 6.7 72.87 7.18s-.26.8-.33 1a18.9 18.9 0 00-2.41-.7 19.25 19.25 0 00-2.27-.36C67.17 7 66.56 7 66.05 7h-1a6 6 0 00-1.47.17 4.27 4.27 0 00-1.3.52 2.65 2.65 0 00-.92 1A3.32 3.32 0 0061 10.2a2.92 2.92 0 001.07 2.53 11.65 11.65 0 003.45 1.51 46.16 46.16 0 014.86 1.83 11.43 11.43 0 013.28 2.14 7.22 7.22 0 011.85 2.9 12.89 12.89 0 01.57 4.09 10.22 10.22 0 01-1 4.61 8.39 8.39 0 01-2.69 3.12 11.63 11.63 0 01-4.08 1.76 22.62 22.62 0 01-5.13.55zM88.5 35.24c-.73 0-1.53 0-2.39-.12s-1.74-.2-2.62-.36a19.9 19.9 0 01-2.56-.62 11.1 11.1 0 01-2.19-.9L80.63 28a18.05 18.05 0 002.32.69c.78.18 1.51.32 2.21.44s1.31.18 1.84.21 1 .05 1.25.05a7 7 0 003.93-.89 3.57 3.57 0 001.3-3.15 4.92 4.92 0 00-.3-1.79 3 3 0 00-.9-1.2 6.3 6.3 0 00-1.54-.87c-.63-.25-1.4-.53-2.29-.81-1.56-.52-3-1-4.18-1.52a11.28 11.28 0 01-3.14-1.85 7.41 7.41 0 01-2-2.72 10.38 10.38 0 01-.7-4.12 8.81 8.81 0 011-4.4 8.4 8.4 0 012.69-2.92A11.41 11.41 0 0186 1.56a20.48 20.48 0 014.53-.48 21.28 21.28 0 012.16.12 18.8 18.8 0 012.39.38 23 23 0 012.37.65 12.9 12.9 0 012 .86 9.25 9.25 0 00-.32 1c-.16.48-.32 1-.5 1.57s-.35 1.08-.5 1.56-.26.8-.33 1a18.9 18.9 0 00-2.41-.7 19.43 19.43 0 00-2.26-.36C92.48 7 91.87 7 91.36 7h-1a6 6 0 00-1.47.17 4.27 4.27 0 00-1.3.52 2.73 2.73 0 00-.92 1 3.32 3.32 0 00-.34 1.56 2.92 2.92 0 001.07 2.53 11.61 11.61 0 003.46 1.51 45.91 45.91 0 014.85 1.83A11.49 11.49 0 0199 18.21a7.3 7.3 0 011.84 2.9 12.89 12.89 0 01.57 4.09 10.09 10.09 0 01-1 4.61 8.39 8.39 0 01-2.69 3.12 11.47 11.47 0 01-4.08 1.76 22.6 22.6 0 01-5.14.55zM120.86 38.56a15 15 0 01-7-1.47 11.79 11.79 0 01-4.52-4.09 17.33 17.33 0 01-2.44-6.14 38.42 38.42 0 01-.73-7.77 35.88 35.88 0 01.78-7.75 17.22 17.22 0 012.53-6A11.9 11.9 0 01114 1.41a17.42 17.42 0 0113.66 0 11.74 11.74 0 014.51 3.9 16.58 16.58 0 012.5 6 36.72 36.72 0 01.76 7.8 39.14 39.14 0 01-.73 7.74 17.89 17.89 0 01-2.39 6.15 11.65 11.65 0 01-4.49 4.06 14.88 14.88 0 01-6.96 1.5zm0-31.85a4.39 4.39 0 00-2.94.93 5.77 5.77 0 00-1.68 2.57 14.66 14.66 0 00-.76 3.92c-.11 1.52-.17 3.18-.17 5s.07 3.7.2 5.25a16 16 0 00.78 4 5.65 5.65 0 001.71 2.51 4.37 4.37 0 002.88.9 4.29 4.29 0 002.84-.92 5.62 5.62 0 001.65-2.6 17.55 17.55 0 00.76-4c.13-1.55.2-3.27.2-5.14s-.06-3.42-.17-4.93a15.91 15.91 0 00-.76-4 5.93 5.93 0 00-1.66-2.59 4.19 4.19 0 00-2.88-.9zM.9 73.81h154.21V75H.9z"/></g></g></svg>