<svg xmlns="http://www.w3.org/2000/svg" viewBox="0 0 188.04 100"><defs><style>.cls-2{fill:#231f20}</style></defs><g id="Слой_2" data-name="Слой 2"><g id="main_page" data-name="main page"><path d="M0 68a8.2 8.2 0 012.28-2.23q7.14-6 14.31-12a10.16 10.16 0 016.58-2.4h25a3.66 3.66 0 013.73 3.71c-.06 5.4 0 10.8 0 16.2v8.79a7.75 7.75 0 01-2.79 6.06c-3.61 3.09-7.28 6.11-10.92 9.16-1.56 1.3-3.12 2.59-4.67 3.9a4.39 4.39 0 01-1.29.79h-.72a1.65 1.65 0 01-.85-1.47V73.08a3.55 3.55 0 00-2.7-3.78 4.29 4.29 0 00-1.07-.08h-25A2.21 2.21 0 010 68.61z" fill="#005081"/><path class="cls-2" d="M188 6a1.51 1.51 0 00-.3 0c-.39 0-.54-.08-.53-.51 0-1.54 0-3.08-.07-4.65l-1.45 3.6c-.17.41-.35.81-.5 1.22a.42.42 0 01-.48.34.46.46 0 01-.48-.36c-.6-1.6-1.22-3.18-1.92-4.77v4.71c0 .3-.08.43-.4.42s-.44-.06-.43-.39V.45a.62.62 0 01.26-.45h.92a1.21 1.21 0 01.51.72c.52 1.34 1.05 2.69 1.59 4 .18-.11.19-.29.25-.44.51-1.21 1-2.43 1.51-3.65a2.33 2.33 0 01.43-.67H188V6zM180.57 0c.13.65.1.68-.53.68-1.24 0-1.24 0-1.24 1.22v3.62c0 .3 0 .52-.42.53s-.39-.26-.39-.54V1.13c0-.35-.09-.49-.45-.46a6.43 6.43 0 01-.76 0c-.66 0-.66 0-.61-.68z"/><path d="M50.32 26.74V39a3.39 3.39 0 01-3.43 3.5H29.57c-.32 0-.45-.07-.45-.42 0-3.33-.05-6.65 0-10a7.64 7.64 0 012.91-5.8q6.41-5.38 12.85-10.74l2.86-2.38a1.53 1.53 0 01.16-.13c.51-.33 1-.66 1.66-.33a1.51 1.51 0 01.71 1.53q.06 6.27.05 12.51z" fill="#4c98c6"/><path d="M61.52 61.63V55a3.44 3.44 0 013.62-3.62h24.32a3.23 3.23 0 011.2.17.77.77 0 01.47 1.18 3.07 3.07 0 01-.83 1l-15.56 13A10.5 10.5 0 0168 69.2h-5.93c-.42 0-.55-.1-.55-.54.01-2.33 0-4.66 0-7.03z" fill="#0074ad"/><path class="cls-2" d="M99 23.42l-2.38 3.82-2.95 4.7a1.37 1.37 0 01-1.26.32c-.13-.08-.09-.21-.09-.32v-9.66c0-.44.24-.36.48-.36s.53-.08.53.38v8.41c.21 0 .22-.15.29-.25l5.1-8.17a1.31 1.31 0 011.25-.32c.13.09.08.22.08.33v9.66c0 .49-.31.32-.54.34s-.47 0-.46-.39C99 29.07 99 26.26 99 23.42zM170.76 5.57l-3.2 5.11-2.22 3.54a1.47 1.47 0 01-1.28.28c-.1-.09-.05-.22-.05-.34V4.51c0-.26.06-.35.34-.35.69 0 .7 0 .69.7 0 2.62.09 5.24-.08 7.86a1.16 1.16 0 000 .18c.18 0 .2-.13.25-.22q2.52-4 5-8.08a1.17 1.17 0 011.26-.43c.21.07.12.22.12.33v9.71c0 .36-.19.36-.41.31s-.6.22-.59-.29 0-1 0-1.43c.12-2.37.05-4.73.17-7.23zM160.12 5.63l-5.4 8.58a1.3 1.3 0 01-1.21.3c-.15-.08-.1-.21-.1-.31V4.49c0-.51.35-.28.57-.31s.43 0 .43.34v8.58l2.38-3.81 3-4.75a1.23 1.23 0 011.21-.36c.17.08.1.23.1.35v9.66c0 .45-.27.33-.49.34s-.49.07-.48-.36V6.1zM81.28 9.31v-4.7c0-.44.17-.43.5-.45s.47.08.47.47v8.53c0 .4.06.56.52.55h4.54c.43 0 .5-.14.49-.52V4.65c0-.41.12-.49.51-.5s.5.11.49.51v8.38c0 .51.09.76.64.66h.31c.1 0 .3 0 .3.28v2.55c0 .21-.07.25-.26.26-.76 0-.76.06-.77-.72 0-.49.17-1.16-.07-1.43s-1-.09-1.47-.1h-5.72c-.34 0-.42-.1-.42-.43-.05-1.6-.06-3.2-.06-4.8zM100.11 4.06a4.42 4.42 0 014.49 4 6.45 6.45 0 01-.65 4.35 4.32 4.32 0 01-4.39 2.18A4.06 4.06 0 0196 12.2a6.42 6.42 0 01-.1-5.53 4.2 4.2 0 014.21-2.61zm-3.73 5.29a7.09 7.09 0 00.15 1.53 3.62 3.62 0 003.12 2.91 3.46 3.46 0 003.65-2.35 5.81 5.81 0 000-4.28 3.43 3.43 0 00-5.56-1.37 4.5 4.5 0 00-1.36 3.56zM68.84 9.36v4.75c0 .47-.23.4-.52.43s-.46-.07-.45-.44v-4.09c0-.36-.1-.45-.45-.44h-4.55c-.35 0-.42.11-.41.43v4.14c0 .43-.2.39-.49.39s-.48 0-.48-.41V4.57c0-.41.18-.42.48-.41s.51 0 .49.4v3.73c0 .3 0 .45.4.45h4.65c.3 0 .36-.1.36-.38V4.58c0-.41.18-.42.48-.41s.51 0 .5.4c-.03 1.59-.01 3.19-.01 4.79zM106.24 9.33V4.58c0-.4.16-.44.48-.42s.55-.06.54.42v3.73c0 .33.08.43.42.43h4.55c.38 0 .44-.14.43-.47V4.59c0-.47.23-.42.53-.43s.48 0 .48.41v9.56c0 .42-.18.41-.48.4s-.54 0-.53-.42V9.97c0-.32-.08-.41-.4-.4h-4.6c-.36 0-.41.13-.4.44v4.09c0 .52-.28.4-.57.43s-.45-.09-.44-.44c0-1.59-.01-3.17-.01-4.76zM72.8 27.1v4.75c0 .38-.13.46-.47.43s-.55 0-.54-.42v-4.09c0-.35-.08-.46-.45-.46h-4.49c-.35 0-.47.08-.46.44v4.09c0 .46-.23.42-.54.43s-.47 0-.47-.42v-9.5c0-.44.18-.44.5-.45s.52.05.51.46v3.68c0 .37.1.44.45.44h4.49c.41 0 .47-.12.46-.48v-3.63c0-.47.21-.45.55-.47s.47.13.46.49c-.01 1.61 0 3.14 0 4.71zM143.86 9.34V4.59c0-.46.22-.41.52-.43s.47.06.46.44v3.72c0 .31.07.42.39.42h4.65c.29 0 .37-.07.37-.36V4.55c0-.41.2-.39.46-.37s.55-.15.55.35v9.65c0 .48-.29.34-.54.36s-.48.07-.47-.36V9.99c0-.35-.1-.42-.42-.41h-4.5c-.42 0-.5.15-.49.53v4c0 .39-.1.49-.48.47s-.51 0-.5-.45c.02-1.62 0-3.21 0-4.79zM139.06 32.27l1.52-3.82q1.21-3 2.4-6.09a.58.58 0 01.66-.45c.82 0 .82 0 1.14.78l3.84 9.12a.83.83 0 01.12.46h-.65a.39.39 0 01-.45-.3c-.3-.73-.62-1.46-.92-2.2-.09-.22-.18-.34-.46-.34h-4.7a.41.41 0 00-.44.31c-.23.63-.52 1.25-.73 1.89-.16.48-.4.75-.94.64a2.21 2.21 0 00-.39 0zm4.76-9.35l-.3.77-1.8 4.58c-.05.13-.25.34.11.34h4.38c-.8-1.92-1.58-3.76-2.39-5.69zM132.93 9.36v4.75c0 .38-.13.44-.46.43s-.52 0-.51-.44V5.47c0-.4-.1-.48-.47-.47h-3.07c-.36 0-.48.07-.48.47q0 2.7-.06 5.4a6.46 6.46 0 01-.51 2.53 2 2 0 01-2.23 1.23c-.4 0-.31-.3-.33-.55s.14-.3.38-.29a1.21 1.21 0 001.36-1 8.92 8.92 0 00.4-2.9V4.62c0-.35 0-.49.46-.48h5.11c.32 0 .39.08.39.4.01 1.62.02 3.22.02 4.82zM79.55 14.48h-.07c-.93.07-.93.07-1.28-.78-.25-.58-.5-1.15-.73-1.73a.45.45 0 00-.53-.34H72.4a.45.45 0 00-.52.34c-.24.65-.55 1.28-.76 1.94-.15.46-.38.68-.87.59a3 3 0 00-.43 0l1.25-3.17c.89-2.25 1.79-4.5 2.67-6.75.12-.3.24-.53.61-.44s.8-.22 1.05.39c1.29 3.16 2.64 6.31 4 9.46.02.18.08.34.15.49zm-5-9.26a2.21 2.21 0 00-.32.7l-1.8 4.57c0 .14-.23.34.11.34H77zM114.56 14.51c.46-1.17.92-2.29 1.36-3.42.87-2.19 1.73-4.37 2.59-6.56.11-.29.26-.42.56-.36s.8-.24 1 .34c1.35 3.25 2.72 6.48 4.09 9.73 0 .07 0 .16.08.29h-.68c-.21 0-.39-.08-.48-.32-.3-.75-.63-1.5-.93-2.25a.41.41 0 00-.45-.3h-4.6a.43.43 0 00-.48.33c-.24.65-.54 1.28-.76 1.94-.16.46-.38.71-.9.6-.11-.02-.23-.01-.4-.02zm2.53-3.71h4.6c-.8-1.89-1.57-3.73-2.38-5.63-.75 1.92-1.48 3.75-2.22 5.63zM158 32.25a1.87 1.87 0 01-2-.56c-1.3-1.44-2.71-2.78-4.07-4.16a3.89 3.89 0 01-.32-.39l-.15.05v4.66c0 .46-.23.42-.54.43s-.47 0-.47-.42v-9.5c0-.44.17-.45.5-.45s.52 0 .51.46V26a.85.85 0 00.07.53c.21-.19.41-.36.59-.54l3.34-3.32c.77-.77.77-.77 1.88-.74 0 .21-.16.28-.26.39-1.41 1.38-2.81 2.77-4.25 4.13-.35.33-.28.48 0 .77 1.65 1.58 3.28 3.17 4.91 4.76zM135.89 9.36V4.55c0-.45.23-.38.5-.38s.52-.07.51.38v3.48c0 .31.08.4.39.4a11.52 11.52 0 012.75.14 2.74 2.74 0 012.22 3 3 3 0 01-2.32 2.87 25.67 25.67 0 01-3.82.11c-.3 0-.2-.23-.2-.37zm1 2.09v1.94c0 .19 0 .31.28.31h1.94a2.15 2.15 0 002.09-2.15 2 2 0 00-1.77-2.19 16 16 0 00-2.3-.06c-.27 0-.23.17-.23.34zM132.45 27.1v-4.75c0-.33.07-.46.42-.44 1 .05 2-.07 3 .07a2.75 2.75 0 012.43 2.85 2.78 2.78 0 01-2.38 3 9.12 9.12 0 01-1.88.06c-.42 0-.59.06-.57.54.05 1.14 0 2.28 0 3.42 0 .41-.17.43-.48.42s-.54 0-.53-.43c.01-1.58-.01-3.16-.01-4.74zm1-2.22v1.89c0 .2 0 .32.28.31a14 14 0 001.83-.08 2 2 0 001.67-2.15 2 2 0 00-1.75-2c-.55-.06-1.12 0-1.68 0-.31 0-.36.12-.35.38 0 .49-.01 1.07-.01 1.65zM117.69 22c-.77 1.83-1.53 3.65-2.3 5.47-.56 1.29-1 2.61-1.68 3.87a1.78 1.78 0 01-1.87 1.12c-.83-.08-.9-.14-.75-1 1 .33 1.43.12 1.9-.84a1.61 1.61 0 000-1.6c-1.11-2.21-2.16-4.44-3.24-6.67-.13-.26-.19-.39.22-.42a.88.88 0 011 .61c.88 2 2 3.94 2.79 6a.64.64 0 00.12.14l2.2-5.29.27-.65c.33-.91.33-.91 1.34-.74zM163.12 28.69l2.5-6c.36-.87.35-.87 1.37-.74l-1.54 3.64-2.13 5.05a4.49 4.49 0 01-.65 1.15 1.78 1.78 0 01-2.17.47c-.39-.14-.11-.56-.17-.86 1.1.34 1.5.14 2-.91a1.42 1.42 0 000-1.37c-1.13-2.27-2.21-4.57-3.31-6.86l-.12-.28c.88-.22 1-.17 1.36.6.95 2.01 1.97 3.98 2.86 6.11zM82.77 31.12c0 1.1.14.88-.84 1.09a7.53 7.53 0 01-3.24.07A4.7 4.7 0 0175.05 28a6.39 6.39 0 01.91-4.2 4.68 4.68 0 014.21-2 7.22 7.22 0 011.67.16c1 .28.86.07.73 1.12-2.52-.84-4.39-.45-5.6 1.15a5.2 5.2 0 00-.2 5.58c1.08 1.56 2.67 2.28 6 1.31zM87.53 27.56v4.29c0 .46-.22.41-.53.43s-.45-.09-.45-.45v-8.58c0-.38-.08-.51-.47-.49h-2.3c-.38 0-.35-.2-.35-.45s0-.41.34-.41h6.49c.42 0 .29.26.32.47s0 .4-.35.39h-2.35c-.32 0-.4.09-.39.4.05 1.47.04 2.93.04 4.4zM104.8 27.53v-4.34c0-.34-.08-.45-.43-.43h-2.24c-.33 0-.45-.07-.43-.42s0-.45.4-.44h6.39c.36 0 .4.13.41.44s-.09.43-.43.42h-2.25c-.35 0-.45.09-.45.45v8.48a.58.58 0 01-.87.58c-.2-.09-.12-.26-.12-.4zM122.46 27.54v4.3c0 .43-.19.43-.52.44s-.49-.05-.49-.46v-8.59c0-.37-.07-.49-.47-.48h-2.3c-.4 0-.32-.22-.33-.45s0-.41.33-.41h6.54c.37 0 .32.21.31.43s.08.44-.3.43h-2.3c-.38 0-.52.07-.51.49.06 1.44.04 2.87.04 4.3zM92 9.36v-4.8c0-.43.21-.42.49-.39s.56-.14.56.38v9.59c0 .43-.21.41-.49.39s-.57.14-.56-.38V9.36zM62.26 27.1v-4.71c0-.37.07-.5.47-.49s.51.05.5.47v9.45c0 .42-.15.45-.5.47s-.47-.12-.47-.49c.01-1.57 0-3.14 0-4.7zM141.76 39.81v-1.54c0-.3 0-.46.41-.45s.44.1.43.43v2.4c0 .36.1.46.46.46 1.14 0 1.14 0 1.14-1.14v-1.63c0-.28 0-.52.4-.52s.42.19.41.49v2.35c0 .21-.07.47.3.45.19 0 .18.16.18.3v.76c0 .25 0 .48-.38.48s-.43-.18-.4-.47-.1-.37-.38-.36h-2.09c-.4 0-.49-.13-.47-.49.01-.5-.01-1.01-.01-1.52zM87.18 39.72c.63.41.79.73.65 1.3a1.24 1.24 0 01-1.19.8c-1.58.12-1.58.12-1.58-1.45v-2.19c0-.27.08-.37.35-.35.42 0 .85 0 1.27.05a1 1 0 011 .73 1 1 0 01-.5 1.11zm-1.28 1c0 .18-.14.53.37.49s.73-.21.73-.59-.35-.5-.72-.54-.4.27-.38.63zm0-1.72c0 .2-.11.5.34.48s.63-.12.64-.49-.3-.48-.63-.51-.36.24-.36.52zM136.49 39.85a1.8 1.8 0 011.94-2 1.83 1.83 0 011.94 2 1.89 1.89 0 01-2 2.06 1.84 1.84 0 01-1.88-2.06zm3 0c0-.91-.38-1.44-1.05-1.47s-1.11.58-1.11 1.44.42 1.5 1.1 1.49 1.06-.56 1.06-1.47zM81.72 41.84a1.82 1.82 0 01-2-2 2 2 0 113.9 0 1.8 1.8 0 01-1.9 2zm1.09-2.08c0-.15 0-.37-.1-.58a1.06 1.06 0 00-1-.81 1 1 0 00-1 .75 2.22 2.22 0 000 1.44 1 1 0 001.65.49 1.75 1.75 0 00.45-1.29zM102.89 39.82a1.92 1.92 0 11-3.83 0 1.92 1.92 0 113.83 0zm-.85.06a1.93 1.93 0 00-.16-1 1 1 0 00-.91-.55.92.92 0 00-.9.56 2.08 2.08 0 000 1.82 1 1 0 001.75 0 1.42 1.42 0 00.18-.83zM94.38 39.83v-1.69c0-.31.16-.33.38-.31s.49-.08.45.3v.2c0 1.23.1 1.3 1.36 1.13.19 0 .27-.09.26-.28s0-.62 0-.92.07-.45.42-.44.4.12.39.42v3.17c0 .29-.06.42-.39.42s-.47-.1-.42-.43a1.13 1.13 0 000-.26c0-.33.16-.82-.08-1s-.9-.07-1.35-.07c-.2 0-.19.16-.19.3v1.12c0 .37-.24.29-.45.3s-.4 0-.39-.31c.02-.48.01-1.09.01-1.65zM75.15 39.82v-1.64c0-.31.13-.36.4-.35s.45 0 .41.33v.16c0 1.19 0 1.18 1.19 1.15.28 0 .41-.08.39-.38s0-.61 0-.92.16-.34.41-.34.41 0 .41.34v3.27c0 .35-.14.39-.42.39s-.42 0-.4-.37 0-.57 0-.86v-.3c-.35-.45-.83-.12-1.25-.2-.26-.06-.32.11-.31.33s0 .62 0 .92-.06.48-.44.49-.38-.22-.38-.49c-.01-.51-.01-1.02-.01-1.53zM69.52 41.77c-.56.13-1 .13-1.13-.56a.36.36 0 00-.42-.29 3.11 3.11 0 01-.61 0c-.49-.07-.81.07-.92.6-.06.27-.62.43-.83.28s-.06-.22 0-.32c.45-1.13.92-2.27 1.35-3.41.11-.27.29-.25.49-.23s.48-.14.61.19c.47 1.25.94 2.49 1.46 3.74zm-2-3.09c-.16.46-.26.81-.4 1.14s-.1.51.31.46h.36c.19 0 .3-.05.22-.27zM89.06 41.83c.52-1.31 1-2.55 1.51-3.79.11-.28.32-.21.51-.2s.45-.12.57.19c.48 1.24 1 2.48 1.48 3.75-.56.11-1 .13-1.14-.56 0-.23-.21-.32-.45-.3a2.9 2.9 0 01-.51 0 .77.77 0 00-1 .64c-.13.51-.59.16-.97.27zm2-3.16c-.17.49-.27.85-.41 1.18s0 .46.31.43h.36c.22 0 .31-.06.21-.29-.13-.39-.26-.79-.45-1.32zM119.33 40.29a1.25 1.25 0 01-1.92-1.37 1.19 1.19 0 011.2-1.1c.85 0 1.33.26 1.49 1a3.94 3.94 0 010 1.87 1.67 1.67 0 01-2.22 1.13c-.3-.11-.18-.33-.17-.51s.2-.14.35-.12c.87.14 1.26-.13 1.27-.9zm0-1.06c0-.42-.07-.75-.52-.78s-.55.35-.56.69.08.72.53.72.54-.31.54-.63zM128.35 39.84a6.11 6.11 0 01-.08.85 1.25 1.25 0 01-1.51 1.15c-.7 0-1.09-.45-1.21-1.26a4.51 4.51 0 010-1.42c.16-.93.58-1.34 1.41-1.34s1.25.46 1.36 1.35a4.85 4.85 0 010 .66zm-.85.08a2.64 2.64 0 00-.13-1.15.44.44 0 00-.41-.32.45.45 0 00-.48.3 3.4 3.4 0 000 2.14.44.44 0 00.46.33.48.48 0 00.46-.35 2.17 2.17 0 00.1-.95zM132.51 39.82v-1.63c0-.25.06-.38.34-.36a7.22 7.22 0 011.47.09 1.22 1.22 0 01-.15 2.38c-.83.09-.82.09-.83 1 0 .24.14.56-.34.56s-.52-.07-.49-.47 0-1.06 0-1.57zm.82-.74c.09.22-.19.62.34.62a.62.62 0 00.68-.64c0-.45-.31-.56-.67-.59-.53-.03-.27.38-.35.61zM63.66 39.71a1.17 1.17 0 01.62 1.3 1.19 1.19 0 01-1.17.82 3.42 3.42 0 01-1.31-.11c-.34-.1-.28-.36-.23-.57s.26-.09.39-.06a2.21 2.21 0 00.8.11c.33 0 .62-.14.63-.53s-.29-.52-.63-.59-.6.22-.6-.29c0-.21 0-.36.3-.35a1.37 1.37 0 00.4 0 .45.45 0 00.41-.5c0-.26-.22-.35-.45-.41a1.44 1.44 0 00-.79.1c-.17 0-.31.08-.34-.15s-.14-.4.13-.47a2.54 2.54 0 011.84 0c.66.31.65 1.1 0 1.7zM122.46 41.18h1.4c.27 0 .36.09.36.36s-.16.28-.36.28H122c-.16 0-.39.09-.45-.12a.63.63 0 01.14-.71 6.19 6.19 0 001.11-1.12c.26-.34.66-.72.33-1.17s-.8-.24-1.21-.07l-.23.08c-.21-.48 0-.71.43-.82a3 3 0 011.11 0 1.07 1.07 0 01.72 1.63 5.13 5.13 0 01-1.49 1.66zM106.78 37.89a.83.83 0 011.2.62 15.41 15.41 0 00.65 1.4c.28-.64.56-1.19.78-1.77s.51-.3.81-.29.06.16 0 .24c-.52 1.11-1 2.22-1.57 3.31a1.06 1.06 0 01-1.26.41c-.2-.08-.15-.23-.15-.38s.1-.21.27-.23c.66-.08.77-.29.47-.9zM72.84 41.84c-1.41 0-2.19-.73-2.19-2a1.91 1.91 0 012.08-2.05h.61c.2 0 .42.22.38.52s-.31.18-.47.16a1.36 1.36 0 00-1.69 1.72 1.33 1.33 0 001.63.93c.17 0 .45-.36.53.12s-.15.51-.48.53zM115.15 38.78c-.24.2-.38.3-.5.41s-.27 0-.37-.12-.2-.22 0-.37.58-.52.88-.77a.74.74 0 01.69-.07c.24.06.12.32.12.48v3.07c0 .3 0 .42-.38.42s-.44-.11-.43-.44c.01-.82-.01-1.65-.01-2.61zM169.57 1.74c.51.57.51.57-.06 1.05a2.6 2.6 0 01-3.51-.16c-.26-.26-.24-.44 0-.72s.37 0 .49.11c.92.79 1.93.71 3.08-.28zM146.73 39.77V38.2c0-.36.16-.38.43-.37s.41 0 .4.34v3.31c0 .33-.15.34-.4.35s-.45 0-.43-.38c.02-.56 0-1.12 0-1.68zM119.33 40.29z"/></g></g></svg>