<svg xmlns="http://www.w3.org/2000/svg" viewBox="0 0 293.79 87.32"><defs><style>.cls-1{fill:#fff;fill-rule:evenodd;}</style></defs><g id="Слой_2" data-name="Слой 2"><g id="Layer_2" data-name="Layer 2"><path class="cls-1" d="M39.68,24.57,33,14.78l11.12,4.15L52,9.79l-.16,12L62.92,25.9l-11.29,3V41.34L44.16,30.71,31.54,33.87l8.14-9.3Zm1.82-.83a4.41,4.41,0,0,0,.34,3.82,5.25,5.25,0,0,0,2.65,2.32,4.68,4.68,0,0,0,3.32-.16,3.69,3.69,0,0,0,2.66-2.49,5.54,5.54,0,0,0,.33-2.83A3.87,3.87,0,0,0,48,20.75a5,5,0,0,0-3.82,0,5,5,0,0,0-2.66,2.82v.17Z"/><path class="cls-1" d="M40.84,21.42,29.55,24.57l11,4.15v12l7.63-9.13,11.13,4L52.79,25.9l8-9.46L48.31,19.59,40.84,9V21.42Zm.83,1.82a5.09,5.09,0,0,1,2.66-2.65,4.63,4.63,0,0,1,3.65,0,5.21,5.21,0,0,1,2.49,2.15,5,5,0,0,1,.33,3.82,7.07,7.07,0,0,1-1.49,2.33,5.9,5.9,0,0,1-2.33,1,3.62,3.62,0,0,1-2.32-.16,4.22,4.22,0,0,1-2.82-2.49,4.73,4.73,0,0,1-.34-4Z"/><path class="cls-1" d="M48.31,19.42a6.81,6.81,0,1,1-8.8,4,6.84,6.84,0,0,1,8.8-4Z"/><path class="cls-1" d="M142.28,78.19h5.47a4.19,4.19,0,0,0,.5,2.83c.33.82,1.5,1.16,3.49,1.16a9.68,9.68,0,0,0,3.15-.5,2.81,2.81,0,0,0,1.66-2.16,2.09,2.09,0,0,0-.16-1.49,2.29,2.29,0,0,0-1.17-1,5.58,5.58,0,0,0-1.49-.66,14.86,14.86,0,0,0-2.49-.5c-1.16-.33-2-.67-2.82-.83a5.75,5.75,0,0,1-2-1.16,5.81,5.81,0,0,1-1.33-2.16,10.73,10.73,0,0,1,0-3.32,8.1,8.1,0,0,1,1.33-3,6.62,6.62,0,0,1,2.15-2.16,12.11,12.11,0,0,1,3.32-1.49,34.45,34.45,0,0,1,4.32-.33c2.66,0,4.48.33,5.65,1.32a5.34,5.34,0,0,1,2,3,8.33,8.33,0,0,1,0,2.82h-5.48c.16-1.16,0-1.82-.83-2.32a6.93,6.93,0,0,0-2.66-.5,4.72,4.72,0,0,0-2.82.67,3,3,0,0,0-1.49,1.82,1.5,1.5,0,0,0,.49,1.66,3.21,3.21,0,0,0,1.5.83,21.77,21.77,0,0,0,2.16.5c1.49.33,2.65.66,3.81,1A6,6,0,0,1,161,73.54a4.52,4.52,0,0,1,1.5,2,10.25,10.25,0,0,1,0,3.15,7.37,7.37,0,0,1-1,2.66A8.05,8.05,0,0,1,159.37,84a11.24,11.24,0,0,1-3.48,1.83,15.92,15.92,0,0,1-5.15.83c-2.82,0-4.65-.5-6-1.49A5.61,5.61,0,0,1,142.28,82a7.27,7.27,0,0,1,0-3.82ZM174,71.55h11.63l-.83,4.32H173l-1.16,5.48h13.61l-1,4.65H165.19l1.66-7.48,3.48-16.43h18.93l-1,4.65H175l-1,4.81ZM188.43,86h5.48l2-9h4.31a4.64,4.64,0,0,1,2.49.5,2.87,2.87,0,0,1,.83,1.33,9.9,9.9,0,0,1-.16,2,12.66,12.66,0,0,0-.33,2.32,6.75,6.75,0,0,0-.17,1.66A3.23,3.23,0,0,0,203.2,86h5.65a7,7,0,0,1-.33-1.83,21,21,0,0,1,.49-3.49,9.14,9.14,0,0,0,.17-3.65,2.85,2.85,0,0,0-2.32-2.16h0v-.16h0a7,7,0,0,0,3.32-2,7.56,7.56,0,0,0,2-4,6.13,6.13,0,0,0-.17-3.49,4.22,4.22,0,0,0-2.16-2.32,8.12,8.12,0,0,0-4.15-.83H193.41l-3.49,16.43L188.43,86Zm9.63-19.26h5a5.23,5.23,0,0,1,2.65.5c.67.49.83,1.32.5,2.49a2.68,2.68,0,0,1-1.49,2.32,5.45,5.45,0,0,1-2.83.66h-5.14l1.33-6Zm25.23,12.45.33-.67,7.81-16.43h6.3l-4.15,7.3L224.45,86h-5.81l-1-7.48-2-16.43H222l.17.5,1.16,16.6Zm17.27-17.1-3.49,16.43L235.41,86h5.64l3.49-16.61,1.66-7.3Zm14.94,9.46h11.62l-1,4.32H254.5l-1.16,5.48H267L266,86H246.7l1.66-7.48,3.49-16.43h18.92l-1,4.65H256.49l-1,4.81ZM269.78,86h5.64l2-9h4.32a4.69,4.69,0,0,1,2.49.5,1.71,1.71,0,0,1,.66,1.33,7.67,7.67,0,0,1,0,2c-.16.83-.33,1.66-.5,2.32v1.66a3.06,3.06,0,0,0,.34,1.17h5.64a3.63,3.63,0,0,1-.33-1.83,21.36,21.36,0,0,1,.5-3.49,9.3,9.3,0,0,0,.16-3.65,2.82,2.82,0,0,0-2.32-2.16h0v-.16h0a7.84,7.84,0,0,0,3.32-2,8.94,8.94,0,0,0,2-4,8,8,0,0,0-.16-3.49,4.29,4.29,0,0,0-2.16-2.32,8.12,8.12,0,0,0-4.15-.83H274.92l-3.48,16.43L269.78,86Zm9.79-19.26h5a5.3,5.3,0,0,1,2.66.5c.66.49.83,1.32.49,2.49a3,3,0,0,1-1.49,2.32,5.44,5.44,0,0,1-2.82.66h-5.15l1.33-6Z"/><path class="cls-1" d="M111.23,9.13,120,0,144.6,8.47l-33.37.66Zm-2,1.66,63.25,7.31-72.22,2.49,9-9.8Zm-11,11.62,102.93,6L89.81,31.54l8.47-9.13ZM87.66,33.2l143.77,6L78.69,43.5l9-10.3Zm56.28,20.92L0,48.14l152.57-4.31-8.63,10.29Zm-10.8,10.79-102.93-6,111.57-3.16-8.64,9.13ZM122.19,76.53l-63.42-7.3,72.55-2.49-9.13,9.79Zm-1.83,1.66-9,9.13L86.83,78.86l33.53-.67Z"/></g></g></svg>