<svg xmlns="http://www.w3.org/2000/svg" viewBox="0 0 252.33 75"><defs><style>.cls-1{fill:#0067ab;fill-rule:evenodd}</style></defs><g id="Слой_2" data-name="Слой 2"><g id="main_page" data-name="main page"><path class="cls-1" d="M34.08 21.1l-5.71-8.41 9.56 3.56 6.7-7.84-.14 10.27L54 22.24l-9.7 2.57V35.5l-6.41-9.12-10.8 2.71 7-8zm1.57-.71a3.77 3.77 0 00.28 3.28 4.6 4.6 0 002.28 2 4 4 0 002.85-.15 3.13 3.13 0 002.29-2.14 4.81 4.81 0 00.28-2.38 3.41 3.41 0 00-.71-2 3.37 3.37 0 00-1.71-1.14 4.42 4.42 0 00-3.28 0 4.24 4.24 0 00-2.28 2.43v.14z"/><path class="cls-1" d="M35.08 18.39l-9.7 2.71 9.41 3.57v10.26l6.56-7.84 9.55 3.42-5.56-8.27 6.85-8.12-10.7 2.71-6.41-9.13v10.69zm.71 1.61a4.44 4.44 0 012.28-2.28 4 4 0 013.14 0 4.5 4.5 0 012.14 1.85 4.26 4.26 0 01.28 3.28 5.84 5.84 0 01-1.28 2 5.11 5.11 0 01-2 .86 3.1 3.1 0 01-2-.15 3.61 3.61 0 01-2.43-2.14 4 4 0 01-.27-3.42z"/><path class="cls-1" d="M41.49 16.68a5.84 5.84 0 11-7.55 3.42 5.87 5.87 0 017.55-3.42zM122.2 67.16h4.7a3.55 3.55 0 00.43 2.42c.28.71 1.28 1 3 1a8.15 8.15 0 002.71-.43 2.41 2.41 0 001.43-1.85 1.8 1.8 0 00-.14-1.28 1.92 1.92 0 00-1-.86 4.94 4.94 0 00-1.28-.57 13.91 13.91 0 00-2.14-.43c-1-.28-1.71-.57-2.43-.71a5 5 0 01-1.71-1 5.11 5.11 0 01-1.14-1.85 9.61 9.61 0 010-2.85 7.11 7.11 0 011.14-2.57 5.87 5.87 0 011.85-1.86 10.52 10.52 0 012.85-1.32 30.57 30.57 0 013.7-.28c2.29 0 3.85.28 4.85 1.14a4.5 4.5 0 011.71 2.56 6.61 6.61 0 010 2.43H136c.14-1 0-1.57-.72-2a6 6 0 00-2.28-.43 4.14 4.14 0 00-2.42.57 2.66 2.66 0 00-1.28 1.57 1.3 1.3 0 00.42 1.43 2.83 2.83 0 001.29.71 18.1 18.1 0 001.85.43c1.28.28 2.28.57 3.28.85a5.19 5.19 0 012.14 1.15 3.77 3.77 0 011.28 1.71 8.67 8.67 0 010 2.71 6.47 6.47 0 01-.85 2.28 6.91 6.91 0 01-1.86 2.28 9.76 9.76 0 01-3 1.57 13.88 13.88 0 01-4.42.71c-2.43 0-4-.43-5.13-1.28a4.82 4.82 0 01-2.14-2.71 6.29 6.29 0 010-3.28zm27.23-5.71h10l-.71 3.71h-10.14l-1 4.71h11.69l-.86 4h-16.54l1.43-6.42 3-14.11h16.26l-.86 4h-11.4l-.86 4.13zm12.41 12.41h4.7l1.71-7.7H172a4 4 0 012.14.43 2.47 2.47 0 01.71 1.14 8.3 8.3 0 01-.14 1.71 11.34 11.34 0 00-.29 2 6 6 0 00-.14 1.42 2.53 2.53 0 00.29 1h4.84a6.18 6.18 0 01-.28-1.57 17.47 17.47 0 01.43-3 8.21 8.21 0 00.14-3.14 2.43 2.43 0 00-2-1.85v-.15a5.82 5.82 0 002.85-1.71 6.47 6.47 0 001.68-3.44 5.21 5.21 0 00-.15-3 3.58 3.58 0 00-1.85-2 7 7 0 00-3.57-.71h-10.55l-3 14.11-1.28 6.42zm8.27-16.54h4.27a4.52 4.52 0 012.28.43c.58.42.72 1.14.43 2.14a2.31 2.31 0 01-1.28 2 4.66 4.66 0 01-2.42.57H169l1.14-5.13zM191.78 68l.28-.57 6.71-14.11h5.41l-3.56 6.27-7.84 14.26h-5l-.86-6.42-1.71-14.11h5.42l.14.42 1 14.26zm14.83-14.68l-3 14.11-1.42 6.42H207l3-14.26 1.43-6.27zm12.83 8.12h10l-.85 3.71h-10l-1 4.71h11.69l-.86 4h-16.54l1.43-6.42 3-14.11h16.26l-.86 4H220.3l-.86 4.13zm12.26 12.42h4.85l1.71-7.7H242a4 4 0 012.14.43 1.46 1.46 0 01.57 1.14 6.88 6.88 0 010 1.71c-.14.71-.29 1.42-.43 2v1.42a2.53 2.53 0 00.29 1h4.84a3.13 3.13 0 01-.28-1.57 17.47 17.47 0 01.43-3 8.21 8.21 0 00.14-3.14 2.43 2.43 0 00-2-1.85v-.15a6.51 6.51 0 002.85-1.71 7.67 7.67 0 001.69-3.44 6.78 6.78 0 00-.15-3 3.58 3.58 0 00-1.85-2 7 7 0 00-3.57-.71h-10.55l-3 14.11-1.43 6.42zm8.42-16.54h4.27a4.52 4.52 0 012.28.43c.58.42.72 1.14.43 2.14a2.61 2.61 0 01-1.28 2 4.66 4.66 0 01-2.42.57H239l1.14-5.13zM95.53 7.84L103.09 0l21.1 7.27-28.66.57zm-1.71 1.43l54.33 6.27-62 2.14 7.7-8.41zm-9.41 10l88.4 5.13-95.67 2.69 7.27-7.84zm-9.12 9.27l123.48 5.13-131.18 3.69 7.7-8.84zm48.33 18L0 41.35l131-3.71-7.42 8.84zm-9.27 9.27L26 50.62l95.82-2.71-7.42 7.84zm-9.41 10l-54.46-6.35 62.31-2.14-7.85 8.41zm-1.56 1.43L95.68 75l-21.11-7.27 28.81-.57z"/></g></g></svg>