<svg xmlns="http://www.w3.org/2000/svg" viewBox="0 0 181.73 60"><defs><style>.cls-1{fill:#00394d}</style></defs><g id="Слой_2" data-name="Слой 2"><g id="main_page" data-name="main page"><path class="cls-1" d="M13.22 17.23A13.49 13.49 0 000 31.09c0 6.34 4.3 13.23 13.31 13.23 6.06 0 12.7-4.71 12.7-14-.01-6.98-5.13-13.09-12.79-13.09zm.5 25.77c-4.19 0-7-5.67-7-13.75 0-6.81 2.16-10.65 5.69-10.65 4.32 0 6.91 5.37 6.91 13.12 0 9.18-2.68 11.28-5.6 11.28zM37.42 37.24V8.42c0-4.76.16-7.18.22-8.38a42.43 42.43 0 01-9.5 2.07v.8c3.25.67 3.48 1 3.48 5.21v29.12c0 4.61-.3 4.92-3.64 5.47v.88h12.91v-.88c-3.31-.61-3.47-.9-3.47-5.47zM108.36 37.78V26.55c0-5.79-2.48-9.32-7-9.32a7.56 7.56 0 00-4.38 1.53c-1.46.93-2.91 2-4.34 3.13-1.13-3.07-3.33-4.66-6.2-4.66-1.64 0-3 .61-5 1.9-1.29.88-2.3 1.72-3.46 2.48 0-1.26 0-3.15.12-4.54-2.65 1.11-6.36.89-9.38.89H58.56v.83c3.93.79 4.23 1.41 3.5 3.7-1.11 3.76-3.42 9.67-5.17 14.42l-5.68-14.73c-.88-2.24-.71-2.68 2.45-3.39V18H40.78v.83c2.91.59 3.23 1.33 4.44 4.25 1.55 3.93 5.19 12.45 7.85 19.8a5.74 5.74 0 01.57 2.63A42.54 42.54 0 0152 49.39a12.77 12.77 0 01-5 5.74c-1.25.88-1.5 1.38-1.5 1.94 0 1.6 1.89 2.93 3.69 2.93.77 0 1.36-.37 1.74-1.7.91-3.2 2.16-7.09 5.77-16.59 3.77-9.79 5.62-14.54 7.27-18.31 1.49-3.42 2-4.66 4.75-4.61 2.63.05 3.52 2.64 3.52 6.35v12.42c0 4.23-.23 4.58-3.68 5.15v.88h12.58v-.88c-3-.58-3.21-1-3.21-4.83V23a7.74 7.74 0 014.95-2.18c3 0 4.53 1.7 4.53 6.13V38c0 3.84-.15 4.22-3.3 4.76v.88h12.24v-.88c-2.76-.54-3.19-.94-3.19-4.76V25.84a17.06 17.06 0 00-.22-2.8 7.73 7.73 0 015.19-2.22c3 0 4.51 2 4.51 6.44v10.08c0 4.43-.1 4.82-3.39 5.37v.88h12.26v-.88c-2.92-.58-3.15-.8-3.15-4.93zM135.67 25.9a8.84 8.84 0 00-9.12-8.67 11.92 11.92 0 00-8.58 4 15 15 0 00-4.07 10.46c0 6.63 4.37 12.66 11.82 12.66 2 0 6.33-1.49 9.94-6.42l-.53-.68a9.1 9.1 0 01-6.67 2.91c-4.24 0-8.91-3.4-8.88-11.72 6.63-.2 14.13-.68 15.78-1.07.25-.09.31-.52.31-1.47zm-7 .63c-2 .2-6 .23-8.92.18.48-5.51 2.59-7.87 5.11-7.87 3.12 0 4.88 3.39 4.88 6.79-.02.69-.41.84-1.09.9zM163.27 36.44V7.57c0-2.68.08-6 .2-7.57a45.2 45.2 0 01-10.32 2v.78c4 .75 4.3 1.23 4.3 5.07v9.71a14.59 14.59 0 00-3.25-.32c-8.5 0-15.27 6.38-15.27 14.26 0 8.47 6 12.83 10.78 12.83a7.84 7.84 0 003.25-1 46.14 46.14 0 004.49-2.61c0 1.19-.06 3-.13 3.84a54.58 54.58 0 019.79-2.38v-.86l-1.4-.31c-2.01-.45-2.44-1.01-2.44-4.57zm-5.82 3a6.94 6.94 0 01-4.21 1.56c-3.68 0-7.68-3.86-7.72-11.61 0-8.45 3.49-10.45 6.1-10.45a6.63 6.63 0 015.83 3.06zM178 37.49a3.69 3.69 0 103.69 3.69 3.69 3.69 0 00-3.69-3.69z"/></g></g></svg>