<svg xmlns="http://www.w3.org/2000/svg" viewBox="0 0 181.26 81.83"><defs><style>.cls-1,.cls-2{fill:#fff;}.cls-2{fill-rule:evenodd;}</style></defs><g id="Слой_2" data-name="Слой 2"><g id="Layer_2" data-name="Layer 2"><path class="cls-1" d="M8,78.89a5.49,5.49,0,0,1-.68,0c-.24,0-.47,0-.7-.09A6.38,6.38,0,0,1,6,78.61a2.9,2.9,0,0,1-.55-.2l.45-1.29a4.31,4.31,0,0,0,.61.19c.2,0,.4.08.59.11l.51.06H8a2.36,2.36,0,0,0,1.33-.33A1.32,1.32,0,0,0,9.77,76a2,2,0,0,0-.1-.7,1.42,1.42,0,0,0-.32-.45,1.75,1.75,0,0,0-.52-.31l-.74-.26L7,73.85a3.34,3.34,0,0,1-.87-.52,2.19,2.19,0,0,1-.56-.77,3,3,0,0,1-.2-1.17,2.61,2.61,0,0,1,.29-1.28,2.36,2.36,0,0,1,.76-.84,3.21,3.21,0,0,1,1.07-.46,5.58,5.58,0,0,1,1.23-.13l.58,0,.62.1.61.15a3.46,3.46,0,0,1,.5.2l-.39,1.22a3.55,3.55,0,0,0-.75-.22,6.54,6.54,0,0,0-.7-.08c-.22,0-.4,0-.54,0H8.34a2,2,0,0,0-.38.05,1,1,0,0,0-.4.18,1,1,0,0,0-.34.36,1,1,0,0,0-.15.57,1.72,1.72,0,0,0,.09.6,1,1,0,0,0,.27.4,1.86,1.86,0,0,0,.48.29,5.32,5.32,0,0,0,.72.26,13,13,0,0,1,1.24.48,2.93,2.93,0,0,1,.92.6,2.4,2.4,0,0,1,.57.86,3.48,3.48,0,0,1,.2,1.25,3,3,0,0,1-.28,1.34,2.46,2.46,0,0,1-.74.91,3.29,3.29,0,0,1-1.12.51A6,6,0,0,1,8,78.89Z"/><path class="cls-1" d="M15.85,78.9a2.84,2.84,0,0,1-1.37-.29,2.32,2.32,0,0,1-.89-.78,3.23,3.23,0,0,1-.49-1.15,6.39,6.39,0,0,1-.15-1.4,6.72,6.72,0,0,1,.14-1.35,3.55,3.55,0,0,1,.49-1.18,2.6,2.6,0,0,1,.91-.83,2.9,2.9,0,0,1,1.42-.31,3,3,0,0,1,1.38.28,2.44,2.44,0,0,1,.92.79,3.26,3.26,0,0,1,.49,1.14,6.23,6.23,0,0,1,.15,1.39,6.37,6.37,0,0,1-.15,1.39,3.41,3.41,0,0,1-.49,1.17,2.52,2.52,0,0,1-.92.82A3,3,0,0,1,15.85,78.9Zm.06-6.12a1.12,1.12,0,0,0-.66.18,1.21,1.21,0,0,0-.38.5,2.75,2.75,0,0,0-.19.75,9,9,0,0,0,0,.94c0,.39,0,.74,0,1a2.77,2.77,0,0,0,.19.79,1.22,1.22,0,0,0,.4.51,1.08,1.08,0,0,0,.64.18,1,1,0,0,0,1-.66,5.1,5.1,0,0,0,.26-1.84,6.86,6.86,0,0,0-.06-.94,2.64,2.64,0,0,0-.19-.76,1.18,1.18,0,0,0-.38-.51A1,1,0,0,0,15.91,72.78Z"/><path class="cls-1" d="M23.32,77.64a4.65,4.65,0,0,0,.93-.1c.3-.07.6-.16.91-.26l.33,1.09a5.87,5.87,0,0,1-1,.39,5.5,5.5,0,0,1-1.32.14,3,3,0,0,1-1.28-.25,2.51,2.51,0,0,1-.93-.71,3.24,3.24,0,0,1-.57-1.11,4.88,4.88,0,0,1-.19-1.42,5.85,5.85,0,0,1,.19-1.56,3.72,3.72,0,0,1,.58-1.2,2.66,2.66,0,0,1,1-.77,3,3,0,0,1,1.31-.27,5.33,5.33,0,0,1,1.25.13,4.78,4.78,0,0,1,1,.35l-.32,1.08a7,7,0,0,0-.8-.21,4.86,4.86,0,0,0-.92-.09,1.25,1.25,0,0,0-1.16.6,3.47,3.47,0,0,0-.37,1.78,6.86,6.86,0,0,0,.07.92,2.71,2.71,0,0,0,.22.76,1.3,1.3,0,0,0,.45.51A1.26,1.26,0,0,0,23.32,77.64Z"/><path class="cls-1" d="M27.07,72.9l-.76-.19v-.93h2.37V78.7H27.07Zm.7-2.52a.94.94,0,0,1-.95-1,.94.94,0,0,1,.28-.69.88.88,0,0,1,.67-.28.89.89,0,0,1,.68.29,1,1,0,0,1,.27.68,1,1,0,0,1-.27.68A.91.91,0,0,1,27.77,70.38Z"/><path class="cls-1" d="M32.08,75.66c0,.25,0,.5.06.74a1.63,1.63,0,0,0,.23.64,1.16,1.16,0,0,0,.48.45,1.77,1.77,0,0,0,.84.16,6.35,6.35,0,0,0,.83-.06,5,5,0,0,0,1.06-.3l.35,1.08a6.62,6.62,0,0,1-1.11.39,5.81,5.81,0,0,1-1.27.14A3.59,3.59,0,0,1,32,78.61a2.34,2.34,0,0,1-1-.78,2.93,2.93,0,0,1-.49-1.14,7.52,7.52,0,0,1-.13-1.38,8.07,8.07,0,0,1,.09-1.1A3.86,3.86,0,0,1,30.86,73a2.81,2.81,0,0,1,.86-1,2.63,2.63,0,0,1,1.54-.41,2.9,2.9,0,0,1,1.57.36,2.3,2.3,0,0,1,.85.93A3.61,3.61,0,0,1,36,74.19a14.46,14.46,0,0,1,.07,1.47Zm2.4-1a5.31,5.31,0,0,0,0-.72,2,2,0,0,0-.18-.6,1,1,0,0,0-.37-.4,1.13,1.13,0,0,0-.61-.15.9.9,0,0,0-.55.17,1.3,1.3,0,0,0-.37.43,2.49,2.49,0,0,0-.21.6,3.71,3.71,0,0,0-.07.67Z"/><path class="cls-1" d="M40,78.9a2.44,2.44,0,0,1-1.07-.19,1.29,1.29,0,0,1-.59-.51,2,2,0,0,1-.26-.76,5.9,5.9,0,0,1-.07-1V72.94h-1.1v-.83l1.15-.3L38.52,70h1.07v1.86h1.74v1.13H39.59v3.69a1.18,1.18,0,0,0,.2.78.92.92,0,0,0,.68.21l.5,0,.58-.09c0,.17.05.35.08.52s.06.36.1.54a3.53,3.53,0,0,1-.49.17l-.51.1-.46,0Z"/><path class="cls-1" d="M45.25,77l.52-1.69,1.09-3.48h1.58l-3.22,9.78H43.67l1-3.26-.62-.64-1.94-5.88H43.8l1,3.62L45.21,77Z"/><path class="cls-1" d="M56.32,78.9A2.86,2.86,0,0,1,55,78.61a2.4,2.4,0,0,1-.89-.78,3.42,3.42,0,0,1-.49-1.15,6.39,6.39,0,0,1-.15-1.4,6.07,6.07,0,0,1,.15-1.35,3.35,3.35,0,0,1,.49-1.18,2.52,2.52,0,0,1,.91-.83,2.88,2.88,0,0,1,1.41-.31,3.08,3.08,0,0,1,1.39.28,2.41,2.41,0,0,1,.91.79,3.47,3.47,0,0,1,.5,1.14,6.23,6.23,0,0,1,.15,1.39,6.37,6.37,0,0,1-.15,1.39,3.63,3.63,0,0,1-.5,1.17,2.52,2.52,0,0,1-.92.82A3,3,0,0,1,56.32,78.9Zm.06-6.12a1.09,1.09,0,0,0-.65.18,1.15,1.15,0,0,0-.39.5,3.16,3.16,0,0,0-.19.75,9,9,0,0,0,0,.94c0,.39,0,.74,0,1a2.76,2.76,0,0,0,.2.79,1.2,1.2,0,0,0,.39.51,1.08,1.08,0,0,0,.64.18,1,1,0,0,0,1-.66,5.33,5.33,0,0,0,.26-1.84,6.86,6.86,0,0,0-.06-.94,2.63,2.63,0,0,0-.2-.76A1.11,1.11,0,0,0,57,73,1,1,0,0,0,56.38,72.78Z"/><path class="cls-1" d="M64.7,69.88l-.45-.06-.46,0a1,1,0,0,0-.73.22,1,1,0,0,0-.24.72v1.05h1.63v1.12H62.82V78.7H61.21V72.91h-1v-.83l1-.29V70.74a3.4,3.4,0,0,1,.11-.84,2.08,2.08,0,0,1,.38-.74,1.83,1.83,0,0,1,.69-.51,2.46,2.46,0,0,1,1-.19,3.86,3.86,0,0,1,.71.08,3.72,3.72,0,0,1,.8.26Z"/><path class="cls-1" d="M72.32,78.89a5.33,5.33,0,0,1-.67,0c-.24,0-.47,0-.7-.09a6.38,6.38,0,0,1-.66-.15,2.67,2.67,0,0,1-.55-.2l.44-1.29a4.89,4.89,0,0,0,.62.19c.2,0,.4.08.58.11l.51.06h.36a2.3,2.3,0,0,0,1.32-.33A1.3,1.3,0,0,0,74.06,76a2,2,0,0,0-.1-.7,1.42,1.42,0,0,0-.32-.45,1.69,1.69,0,0,0-.53-.31l-.73-.26-1.14-.42a3.34,3.34,0,0,1-.87-.52,2.19,2.19,0,0,1-.56-.77,3,3,0,0,1-.2-1.17,2.61,2.61,0,0,1,.29-1.28,2.36,2.36,0,0,1,.76-.84,3.13,3.13,0,0,1,1.07-.46A5.58,5.58,0,0,1,73,68.68l.58,0,.62.1.61.15a3.46,3.46,0,0,1,.5.2l-.39,1.22a3.55,3.55,0,0,0-.75-.22,6.71,6.71,0,0,0-.71-.08c-.21,0-.39,0-.53,0h-.26a2,2,0,0,0-.38.05,1.14,1.14,0,0,0-.41.18,1,1,0,0,0-.33.36,1,1,0,0,0-.15.57,1.72,1.72,0,0,0,.09.6,1,1,0,0,0,.27.4,1.86,1.86,0,0,0,.48.29,5.68,5.68,0,0,0,.71.26,12.23,12.23,0,0,1,1.25.48,3.05,3.05,0,0,1,.92.6,2.4,2.4,0,0,1,.57.86A3.5,3.5,0,0,1,75.84,76a3,3,0,0,1-.27,1.34,2.39,2.39,0,0,1-.75.91,3.15,3.15,0,0,1-1.11.51A6.09,6.09,0,0,1,72.32,78.89Z"/><path class="cls-1" d="M79.06,76.33a3.84,3.84,0,0,0,0,.5,1,1,0,0,0,.13.41.7.7,0,0,0,.28.26,1.07,1.07,0,0,0,.48.1,1.58,1.58,0,0,0,.78-.21,5.2,5.2,0,0,0,.61-.38V71.79H83V78.7H81.69l-.3-.72-1,.58a3.59,3.59,0,0,1-.48.23,1.53,1.53,0,0,1-.47.1,2.08,2.08,0,0,1-1.12-.26,1.72,1.72,0,0,1-.61-.65,2.37,2.37,0,0,1-.26-.83c0-.3,0-.57,0-.82V71.79h1.61Z"/><path class="cls-1" d="M86,71.78l.27,1.06A4.59,4.59,0,0,1,87.39,72a3.12,3.12,0,0,1,1.24-.4l.26,1.66-1.44.15a8,8,0,0,0-1.09.23V78.7H84.75V71.78Z"/><path class="cls-1" d="M91.77,81.83a5.55,5.55,0,0,1-1.32-.13,2.81,2.81,0,0,1-.85-.37,1.23,1.23,0,0,1-.44-.51,1.33,1.33,0,0,1-.13-.58,1.38,1.38,0,0,1,.13-.57,2.11,2.11,0,0,1,.33-.54l.57-.72-.73-.27a.77.77,0,0,1-.1-.28,1.68,1.68,0,0,1,0-.29,1,1,0,0,1,.1-.45,2.11,2.11,0,0,1,.24-.44,2.64,2.64,0,0,1,.34-.41,2.38,2.38,0,0,1,.38-.34,2.5,2.5,0,0,1-.66-.78,2.34,2.34,0,0,1-.24-1.07,2.42,2.42,0,0,1,.2-1,2.34,2.34,0,0,1,.58-.78,2.6,2.6,0,0,1,.9-.54,3.27,3.27,0,0,1,1.21-.2,3.54,3.54,0,0,1,1.23.17h2.3v.74l-1,.25A2.43,2.43,0,0,1,95.12,74a2.37,2.37,0,0,1-.19,1,2.27,2.27,0,0,1-.58.77,2.62,2.62,0,0,1-.93.52,3.94,3.94,0,0,1-1.24.19,4.21,4.21,0,0,1-1-.12,1.41,1.41,0,0,0-.3.39.85.85,0,0,0-.08.29.32.32,0,0,0,.09.23.37.37,0,0,0,.29.1h2.2a2.86,2.86,0,0,1,1.75.48,1.64,1.64,0,0,1,.64,1.38,2,2,0,0,1-.3,1,2.7,2.7,0,0,1-.82.83,4.28,4.28,0,0,1-1.26.55A5.89,5.89,0,0,1,91.77,81.83Zm2.44-2.54a.53.53,0,0,0-.27-.47,1.23,1.23,0,0,0-.65-.16H91.11c-.16.19-.31.38-.44.56a.86.86,0,0,0-.2.53.66.66,0,0,0,.42.61,2.4,2.4,0,0,0,1.07.21,4.19,4.19,0,0,0,.89-.09,2.64,2.64,0,0,0,.72-.25,1.33,1.33,0,0,0,.47-.4A.87.87,0,0,0,94.21,79.29ZM93.51,74a1.86,1.86,0,0,0-.06-.45,1.13,1.13,0,0,0-.2-.43,1.18,1.18,0,0,0-.4-.32,1.4,1.4,0,0,0-.62-.12,1.32,1.32,0,0,0-.64.13,1.12,1.12,0,0,0-.38.33,1.26,1.26,0,0,0-.19.43A2.18,2.18,0,0,0,91,74a2.05,2.05,0,0,0,.06.49,1.3,1.3,0,0,0,.19.45,1.1,1.1,0,0,0,.38.32,1.49,1.49,0,0,0,.64.12,1.41,1.41,0,0,0,.61-.12,1,1,0,0,0,.39-.31,1.12,1.12,0,0,0,.21-.44A2.07,2.07,0,0,0,93.51,74Z"/><path class="cls-1" d="M97.53,72.9l-.76-.19v-.93h2.37V78.7H97.53Zm.71-2.52a.92.92,0,0,1-.95-1,1,1,0,0,1,.27-.69.9.9,0,0,1,.68-.28.87.87,0,0,1,.67.29,1,1,0,0,1,.27.68,1,1,0,0,1-.27.68A.89.89,0,0,1,98.24,70.38Z"/><path class="cls-1" d="M104,77.64a4.65,4.65,0,0,0,.93-.1c.3-.07.6-.16.91-.26l.33,1.09a5.87,5.87,0,0,1-1,.39,5.5,5.5,0,0,1-1.32.14,3,3,0,0,1-1.28-.25,2.51,2.51,0,0,1-.93-.71,3.24,3.24,0,0,1-.57-1.11,4.88,4.88,0,0,1-.19-1.42,5.85,5.85,0,0,1,.19-1.56,3.54,3.54,0,0,1,.59-1.2,2.55,2.55,0,0,1,1-.77,3,3,0,0,1,1.31-.27,5.33,5.33,0,0,1,1.25.13,4.78,4.78,0,0,1,1,.35l-.32,1.08A7,7,0,0,0,105,73a4.86,4.86,0,0,0-.92-.09,1.25,1.25,0,0,0-1.16.6,3.47,3.47,0,0,0-.37,1.78,6.86,6.86,0,0,0,.07.92,2.71,2.71,0,0,0,.22.76,1.3,1.3,0,0,0,.45.51A1.26,1.26,0,0,0,104,77.64Z"/><path class="cls-1" d="M112.93,78.63a5.17,5.17,0,0,1-.68.16,2.94,2.94,0,0,1-.62.07,1,1,0,0,1-.55-.12.81.81,0,0,1-.26-.47l-.07-.27-.75.47a2,2,0,0,1-1,.4,2.34,2.34,0,0,1-1.07-.21,1.69,1.69,0,0,1-.61-.53,1.56,1.56,0,0,1-.25-.66,3.72,3.72,0,0,1-.06-.64,1.9,1.9,0,0,1,.31-1.12,2.26,2.26,0,0,1,.82-.74,4,4,0,0,1,1.17-.4,10.5,10.5,0,0,1,1.41-.15V74a1.14,1.14,0,0,0-.26-.81,1.13,1.13,0,0,0-.89-.28,4.08,4.08,0,0,0-.93.1c-.3.06-.58.13-.84.2l-.3-1a5.39,5.39,0,0,1,1.2-.43,4.63,4.63,0,0,1,1.12-.14,3.72,3.72,0,0,1,1.19.16,1.75,1.75,0,0,1,.77.48,2,2,0,0,1,.42.79,4.49,4.49,0,0,1,.12,1.09V77.6h.65Zm-2.24-3.22-.66.06a2.74,2.74,0,0,0-.71.18,1.53,1.53,0,0,0-.55.39.94.94,0,0,0-.22.66,1.32,1.32,0,0,0,.17.72.69.69,0,0,0,.62.25,1,1,0,0,0,.32-.06l.38-.15a3.07,3.07,0,0,0,.36-.2,1.82,1.82,0,0,0,.29-.21Z"/><path class="cls-1" d="M114.45,69.65l-.73-.2v-.92h2.34V78.7h-1.61Z"/><path class="cls-1" d="M125.33,78.9a3.38,3.38,0,0,1-1.67-.37,2.82,2.82,0,0,1-1.08-1.06,4.7,4.7,0,0,1-.59-1.62,12.11,12.11,0,0,1-.17-2.09,10.33,10.33,0,0,1,.19-2.09,4.65,4.65,0,0,1,.6-1.61,2.91,2.91,0,0,1,1.09-1,3.25,3.25,0,0,1,1.63-.37A3.34,3.34,0,0,1,127,69a2.74,2.74,0,0,1,1.08,1,4.58,4.58,0,0,1,.6,1.61,12,12,0,0,1,0,4.19,4.69,4.69,0,0,1-.57,1.62A2.82,2.82,0,0,1,127,78.53,3.37,3.37,0,0,1,125.33,78.9Zm0-8.85a1.34,1.34,0,0,0-.88.28,1.74,1.74,0,0,0-.51.77,4.64,4.64,0,0,0-.24,1.17c0,.45-.06.94-.06,1.49s0,1.09.07,1.55a4.63,4.63,0,0,0,.24,1.18,1.67,1.67,0,0,0,.51.75,1.33,1.33,0,0,0,.87.27,1.28,1.28,0,0,0,.84-.27,1.65,1.65,0,0,0,.51-.76,5.08,5.08,0,0,0,.25-1.18c0-.46.06-1,.06-1.54s0-1-.06-1.49a4.26,4.26,0,0,0-.23-1.17,1.74,1.74,0,0,0-.51-.77A1.33,1.33,0,0,0,125.33,70.05Z"/><path class="cls-1" d="M134.19,78.7V74.44c0-.21,0-.4,0-.58a1.53,1.53,0,0,0-.1-.49.82.82,0,0,0-.27-.34,1,1,0,0,0-.53-.12,1.09,1.09,0,0,0-.4.07,2.15,2.15,0,0,0-.38.15l-.34.18a2.21,2.21,0,0,0-.26.19v5.2h-1.61V71.81h1.28l.3.71.95-.57a2.93,2.93,0,0,1,.47-.23,1.28,1.28,0,0,1,.46-.1,2.11,2.11,0,0,1,1.12.26,1.65,1.65,0,0,1,.62.64,2.65,2.65,0,0,1,.26.84,6.21,6.21,0,0,1,.06.82V78.7Z"/><path class="cls-1" d="M140.42,77.64a4.57,4.57,0,0,0,.93-.1c.3-.07.6-.16.91-.26l.33,1.09a6.07,6.07,0,0,1-1,.39,5.65,5.65,0,0,1-1.33.14,3,3,0,0,1-1.28-.25,2.51,2.51,0,0,1-.93-.71,3.24,3.24,0,0,1-.57-1.11,5.24,5.24,0,0,1-.19-1.42,6.29,6.29,0,0,1,.19-1.56,3.54,3.54,0,0,1,.59-1.2,2.63,2.63,0,0,1,1-.77,3.05,3.05,0,0,1,1.32-.27,5.3,5.3,0,0,1,1.24.13,4.57,4.57,0,0,1,1,.35l-.32,1.08a6.46,6.46,0,0,0-.8-.21,4.86,4.86,0,0,0-.92-.09,1.26,1.26,0,0,0-1.16.6,3.49,3.49,0,0,0-.36,1.78,6.88,6.88,0,0,0,.06.92,2.71,2.71,0,0,0,.22.76,1.39,1.39,0,0,0,.45.51A1.26,1.26,0,0,0,140.42,77.64Z"/><path class="cls-1" d="M146.34,78.9a2.81,2.81,0,0,1-1.37-.29,2.43,2.43,0,0,1-.9-.78,3.41,3.41,0,0,1-.48-1.15,6.39,6.39,0,0,1-.15-1.4,6.07,6.07,0,0,1,.14-1.35,3.55,3.55,0,0,1,.49-1.18,2.6,2.6,0,0,1,.91-.83,2.9,2.9,0,0,1,1.42-.31,3.06,3.06,0,0,1,1.38.28,2.41,2.41,0,0,1,.91.79,3.27,3.27,0,0,1,.5,1.14,6.23,6.23,0,0,1,.15,1.39,6.37,6.37,0,0,1-.15,1.39,3.43,3.43,0,0,1-.5,1.17,2.48,2.48,0,0,1-.91.82A3,3,0,0,1,146.34,78.9Zm.06-6.12a1.12,1.12,0,0,0-.66.18,1.07,1.07,0,0,0-.38.5,2.43,2.43,0,0,0-.19.75,6.93,6.93,0,0,0,0,.94,8.4,8.4,0,0,0,0,1,2.77,2.77,0,0,0,.19.79,1.22,1.22,0,0,0,.4.51,1.05,1.05,0,0,0,.64.18,1,1,0,0,0,1-.66,5.33,5.33,0,0,0,.26-1.84,6.86,6.86,0,0,0-.06-.94,3,3,0,0,0-.19-.76A1.18,1.18,0,0,0,147,73,1.07,1.07,0,0,0,146.4,72.78Z"/><path class="cls-1" d="M151.09,69.65l-.73-.2v-.92h2.34V78.7h-1.61Z"/><path class="cls-1" d="M157.24,78.9a2.84,2.84,0,0,1-1.37-.29,2.32,2.32,0,0,1-.89-.78,3.23,3.23,0,0,1-.49-1.15,6.39,6.39,0,0,1-.15-1.4,6.72,6.72,0,0,1,.14-1.35,3.55,3.55,0,0,1,.49-1.18,2.69,2.69,0,0,1,.91-.83,2.9,2.9,0,0,1,1.42-.31,3,3,0,0,1,1.38.28,2.44,2.44,0,0,1,.92.79,3.26,3.26,0,0,1,.49,1.14,6.23,6.23,0,0,1,.15,1.39,6.37,6.37,0,0,1-.15,1.39,3.41,3.41,0,0,1-.49,1.17,2.52,2.52,0,0,1-.92.82A3,3,0,0,1,157.24,78.9Zm.06-6.12a1.12,1.12,0,0,0-.66.18,1.21,1.21,0,0,0-.38.5,2.75,2.75,0,0,0-.19.75,9,9,0,0,0,0,.94c0,.39,0,.74,0,1a2.77,2.77,0,0,0,.19.79,1.22,1.22,0,0,0,.4.51,1.08,1.08,0,0,0,.64.18,1,1,0,0,0,1-.66,5.1,5.1,0,0,0,.26-1.84,6.86,6.86,0,0,0-.06-.94,2.64,2.64,0,0,0-.19-.76,1.18,1.18,0,0,0-.38-.51A1,1,0,0,0,157.3,72.78Z"/><path class="cls-1" d="M164.05,81.83a5.44,5.44,0,0,1-1.32-.13,2.71,2.71,0,0,1-.85-.37,1.34,1.34,0,0,1-.45-.51,1.48,1.48,0,0,1-.13-.58,1.56,1.56,0,0,1,.13-.57,2.44,2.44,0,0,1,.33-.54l.58-.72-.73-.27a.63.63,0,0,1-.1-.28,1.68,1.68,0,0,1,0-.29,1.2,1.2,0,0,1,.09-.45,2.7,2.7,0,0,1,.24-.44,3.36,3.36,0,0,1,.34-.41,3,3,0,0,1,.39-.34,2.26,2.26,0,0,1-.66-.78,2.34,2.34,0,0,1-.24-1.07,2.25,2.25,0,0,1,.2-1,2.19,2.19,0,0,1,.57-.78,2.7,2.7,0,0,1,.9-.54,3.3,3.3,0,0,1,1.21-.2,3.6,3.6,0,0,1,1.24.17h2.3v.74l-1,.25a2.43,2.43,0,0,1,.35,1.25,2.37,2.37,0,0,1-.19,1,2.24,2.24,0,0,1-.57.77,2.8,2.8,0,0,1-.93.52,4,4,0,0,1-1.25.19,4.13,4.13,0,0,1-1-.12,1.1,1.1,0,0,0-.3.39.71.71,0,0,0-.09.29.32.32,0,0,0,.09.23.39.39,0,0,0,.3.1h2.2a2.81,2.81,0,0,1,1.74.48A1.61,1.61,0,0,1,168,79.2a2.05,2.05,0,0,1-.29,1,2.81,2.81,0,0,1-.82.83,4.23,4.23,0,0,1-1.27.55A5.87,5.87,0,0,1,164.05,81.83Zm2.44-2.54a.53.53,0,0,0-.27-.47,1.23,1.23,0,0,0-.65-.16h-2.18l-.45.56a.92.92,0,0,0-.2.53.66.66,0,0,0,.42.61,2.43,2.43,0,0,0,1.07.21,4.29,4.29,0,0,0,.9-.09,2.69,2.69,0,0,0,.71-.25,1.37,1.37,0,0,0,.48-.4A.94.94,0,0,0,166.49,79.29Zm-.7-5.26a1.86,1.86,0,0,0-.06-.45,1.3,1.3,0,0,0-.2-.43,1.18,1.18,0,0,0-.4-.32,1.48,1.48,0,0,0-.63-.12,1.28,1.28,0,0,0-.63.13,1.07,1.07,0,0,0-.39.33,1.49,1.49,0,0,0-.19.43,2.18,2.18,0,0,0,0,.42,2.05,2.05,0,0,0,.06.49,1.32,1.32,0,0,0,.2.45,1,1,0,0,0,.38.32,1.46,1.46,0,0,0,.64.12,1.34,1.34,0,0,0,.6-.12,1,1,0,0,0,.4-.31,1.12,1.12,0,0,0,.21-.44A2.07,2.07,0,0,0,165.79,74Z"/><path class="cls-1" d="M171.85,77l.52-1.69,1.09-3.48H175l-3.22,9.78h-1.55l1-3.26-.62-.64-1.94-5.88h1.67l1,3.62L171.8,77Z"/><path class="cls-1" d="M69.8,59a2.35,2.35,0,0,1-.64.94,2.69,2.69,0,0,1-1.06.61,4.43,4.43,0,0,1-1.48.22,4.23,4.23,0,0,1-1.46-.22,2.58,2.58,0,0,1-1-.6A2.31,2.31,0,0,1,63.6,59a3.69,3.69,0,0,1-.19-1.23v-7h1.7v6.93a2.08,2.08,0,0,0,.33,1.23,1.36,1.36,0,0,0,1.19.48,1.68,1.68,0,0,0,1.28-.45,1.77,1.77,0,0,0,.41-1.26V50.69H70v7A3.16,3.16,0,0,1,69.8,59Z"/><path class="cls-1" d="M77.63,53.63,76.3,55.22c-.43.53-.88,1.06-1.34,1.59l1.38,1.86,1.38,1.85H75.84l-2.4-3.46v3.46H71.83V50.35h1.61v6.28l2.38-3Z"/><path class="cls-1" d="M80.16,53.6l.27,1.06a4.35,4.35,0,0,1,1.08-.86,3.25,3.25,0,0,1,1.23-.41L83,55.06l-1.43.15a7.77,7.77,0,0,0-1.09.22v5.09H78.87V53.6Z"/><path class="cls-1" d="M89.55,60.45a6.77,6.77,0,0,1-.68.16,3.79,3.79,0,0,1-.62.07,1,1,0,0,1-.55-.12.87.87,0,0,1-.26-.47l-.07-.27-.75.47a2,2,0,0,1-1,.4,2.36,2.36,0,0,1-1.08-.21,1.61,1.61,0,0,1-.86-1.19,3.81,3.81,0,0,1-.06-.64,2,2,0,0,1,.31-1.13,2.41,2.41,0,0,1,.82-.73,4,4,0,0,1,1.18-.4,10.18,10.18,0,0,1,1.4-.15v-.42a1.24,1.24,0,0,0-.25-.82,1.21,1.21,0,0,0-.9-.27,4.73,4.73,0,0,0-.93.09l-.84.21-.3-1a5.39,5.39,0,0,1,1.2-.43,4.75,4.75,0,0,1,1.13-.15,3.75,3.75,0,0,1,1.19.17,1.81,1.81,0,0,1,.77.48,1.92,1.92,0,0,1,.41.79A4.46,4.46,0,0,1,88.91,56v3.46h.64Zm-2.24-3.22-.66.06a2.67,2.67,0,0,0-.7.18,1.46,1.46,0,0,0-.55.38,1,1,0,0,0-.23.67,1.26,1.26,0,0,0,.17.71.69.69,0,0,0,.62.25,1,1,0,0,0,.33,0l.37-.15.37-.2.28-.21Z"/><path class="cls-1" d="M91.36,54.72l-.76-.19V53.6H93v6.92H91.36Zm.71-2.52a.92.92,0,0,1-.95-1,1,1,0,0,1,.27-.69.91.91,0,0,1,.68-.29.87.87,0,0,1,.67.3,1,1,0,0,1,.27.68,1,1,0,0,1-.27.68A.89.89,0,0,1,92.07,52.2Z"/><path class="cls-1" d="M98.82,60.52V56.25c0-.2,0-.39,0-.57a1.47,1.47,0,0,0-.1-.49.76.76,0,0,0-.27-.34,1,1,0,0,0-.53-.12,1.09,1.09,0,0,0-.4.07,2.15,2.15,0,0,0-.38.15,2.71,2.71,0,0,0-.34.18,2.21,2.21,0,0,0-.26.19v5.2H94.91V53.63h1.28l.3.71,1-.57a2.93,2.93,0,0,1,.47-.23,1.28,1.28,0,0,1,.46-.1,2,2,0,0,1,1.12.26,1.58,1.58,0,0,1,.62.64,2.65,2.65,0,0,1,.26.84,6.09,6.09,0,0,1,.06.82v4.52Z"/><path class="cls-1" d="M102.62,54.72l-.76-.19V53.6h2.37v6.92h-1.61Zm.71-2.52a.92.92,0,0,1-1-1,1,1,0,0,1,.27-.69.91.91,0,0,1,.68-.29.86.86,0,0,1,.67.3,1,1,0,0,1,.28.68,1,1,0,0,1-.28.68A.88.88,0,0,1,103.33,52.2Z"/><path class="cls-1" d="M111.84,60.45a6.18,6.18,0,0,1-.68.16,3.79,3.79,0,0,1-.62.07,1,1,0,0,1-.54-.12.81.81,0,0,1-.27-.47l-.07-.27-.75.47a2,2,0,0,1-1,.4,2.36,2.36,0,0,1-1.08-.21,1.57,1.57,0,0,1-.6-.53,1.72,1.72,0,0,1-.26-.66,3.81,3.81,0,0,1-.06-.64,2,2,0,0,1,.31-1.13,2.41,2.41,0,0,1,.82-.73,4,4,0,0,1,1.18-.4,10.18,10.18,0,0,1,1.4-.15v-.42a1.18,1.18,0,0,0-.25-.82,1.21,1.21,0,0,0-.9-.27,4.81,4.81,0,0,0-.93.09l-.84.21-.3-1a5.39,5.39,0,0,1,1.2-.43,4.82,4.82,0,0,1,1.13-.15,3.75,3.75,0,0,1,1.19.17,1.81,1.81,0,0,1,.77.48,1.92,1.92,0,0,1,.41.79A4,4,0,0,1,111.2,56v3.46h.64Zm-2.23-3.22-.67.06a2.67,2.67,0,0,0-.7.18,1.55,1.55,0,0,0-.55.38,1,1,0,0,0-.23.67,1.26,1.26,0,0,0,.17.71.69.69,0,0,0,.62.25,1,1,0,0,0,.33,0l.37-.15.37-.2.29-.21Z"/><path class="cls-1" d="M117,60.52V56.25c0-.2,0-.39,0-.57a1.47,1.47,0,0,0-.11-.49.65.65,0,0,0-.27-.34,1,1,0,0,0-.53-.12,1.12,1.12,0,0,0-.4.07,2.15,2.15,0,0,0-.38.15,3.65,3.65,0,0,0-.34.18,2.21,2.21,0,0,0-.26.19v5.2h-1.61V53.63h1.28l.3.71,1-.57a2.93,2.93,0,0,1,.47-.23,1.28,1.28,0,0,1,.47-.1,2,2,0,0,1,1.11.26,1.58,1.58,0,0,1,.62.64,2.42,2.42,0,0,1,.26.84,6.09,6.09,0,0,1,.06.82v4.52Z"/><g id="mB8zI5"><path class="cls-1" d="M23.75,59.56V62.4l1.44.1c0,.51.07.93.11,1.34h1.33c0-.47.07-.88.11-1.33l1.35-.12v-2.8H26.78c0,.49-.08.93-.11,1.34H25.24c0-.49-.07-.91-.11-1.41l-1.4.07c0-.48,0-1,0-1.48H22.35v1.3ZM2.84,54.92l-1.35.26v1.23H2.82V54.89L4.3,55c0-.57.07-1,.11-1.43H5.82c0,.49.1.93.15,1.35H7.25V52.14L5.89,52c0-.49-.09-.93-.13-1.38H4.44c0,.5-.07.94-.1,1.38L3,52.15C2.92,53.11,2.88,54,2.84,54.92Zm0,4.68c0,.93,0,1.86,0,2.82l1.47.12c0,.49.07.91.11,1.33H5.79c0-.46.08-.87.12-1.33l1.34-.13V59.6H6c0,.49-.1.92-.14,1.37H4.42c0-.5-.09-.93-.13-1.43l-1.43.09c0-.5,0-1,0-1.49H1.5v1.3ZM49,54.87V52.08L47.55,52c0-.5-.09-.94-.12-1.38H46.1c0,.5-.08.94-.12,1.38l-1.35.11v2.8h1.31c.05-.49.09-.92.13-1.36h1.42c0,.48.06.9.1,1.43l1.46-.12v1.53H50.4c0-.47,0-.87,0-1.27Zm0,4.66,1.38-.18V58.07H49v1.5l-1.44-.08c0,.56-.08,1-.11,1.44h-1.4c-.06-.48-.11-.92-.16-1.37H44.64v2.82l1.37.09c0,.51.08.92.12,1.33h1.32c0-.47.08-.89.12-1.34l1.45-.1C49,61.36,49,60.45,49,59.53ZM50.57,61v1.35l1.37.1c.05.51.08.92.12,1.33h1.32c0-.47.08-.88.12-1.33l1.35-.11c0-.47.09-.91.14-1.38l1.39-.11V58H53.55c0,.48-.08.92-.11,1.39l-1.4.12c0,.49-.07.9-.1,1.37ZM55,53.45c0-.51-.08-.92-.12-1.37L53.47,52c0-.51-.08-1-.12-1.38H52.06c-.06.48-.1.92-.15,1.39l-1.34.11c0,.51,0,.92,0,1.33l1.34.09c0,.51.09,1,.13,1.4l1.36.09c.06.49.11.92.16,1.34h2.81c0-1,0-1.88,0-2.79Zm-25.22,0,1.38.11c.05.51.09,1,.14,1.47,1.25-.32,1.66.23,1.42,1.36h2.85c0-1,0-1.87,0-2.79l-1.36-.1c0-.49-.08-.92-.13-1.38L32.69,52c0-.49-.1-.93-.15-1.39h-1.3c0,.5-.09.94-.13,1.39l-1.37.11Zm0,7.62V62.4l1.35.09c.06.47.12.9.17,1.33h1.3c0-.47.08-.88.12-1.33l1.35-.08c0-.47.08-.91.13-1.39l1.37-.13V58.1h-2.8c0,.49-.09.91-.13,1.35l-1.37.12c-.05.5-.08.91-.12,1.37Zm-12,0c0,.51.06.93.09,1.38l1.38.11c.05.48.09.89.13,1.35h1.32c0-.48.08-.92.12-1.35l1.35-.1V61.06L20.79,61c-.05-.49-.09-.93-.14-1.4l-1.35-.08c0-.47-.09-.91-.14-1.36H16.37v2.8ZM10.42,55l1.37.12c.05.48.09.91.14,1.35h2.79v-2.8l-1.39-.14c0-.48-.06-.9-.1-1.35L11.85,52c0-.52-.08-1-.11-1.38H10.41c0,.5-.07.91-.1,1.37L9,52.16v1.3l1.36.11C10.34,54,10.38,54.46,10.42,55Zm1.46,7.58,1.37-.12c0-.5.07-.93.11-1.37l1.34-.12v-2.8H11.91c0,.5-.08.94-.12,1.37l-1.37.1c0,.5-.07.94-.11,1.38L9,61.09v1.34l1.34.11c0,.49.09.9.13,1.32h1.31C11.8,63.39,11.84,63,11.88,62.53ZM43,61l-1.37-.11c-.06-.49-.1-.93-.15-1.38l-1.35-.1c0-.49-.09-.92-.14-1.38H37.21V60.9l1.36.11c0,.48.06.9.09,1.36l1.38.12c.05.47.09.88.13,1.33h1.31c0-.46.08-.87.12-1.33L43,62.35Zm-3-4.65c0-.49.07-.92.1-1.38l1.38-.1c0-.49.08-.93.12-1.39l1.33-.1V52.08L41.58,52c0-.52-.09-.95-.12-1.39H40.15c0,.48-.09.92-.13,1.4l-1.37.12c0,.5-.07.91-.1,1.37l-1.37.12c0,1,0,1.87,0,2.8ZM20.65,50.62H19.36c-.05.48-.1.92-.15,1.39l-1.38.12c0,.51-.06.95-.09,1.37l-1.37.13c0,1,0,1.89,0,2.78h2.88c-.36-1.31.34-1.61,1.39-1.44.05-.53.08-.95.12-1.4l1.39-.13V52.12L20.77,52C20.73,51.53,20.69,51.11,20.65,50.62ZM23.8,54.9h1.34c0-.5.07-.91.1-1.35h1.42c0,.5.08.94.12,1.35h1.29V52.11L26.72,52c0-.49-.08-.93-.12-1.38H25.27c0,.5-.07.94-.1,1.39l-1.37.11ZM25.25,58h1.4V56.55H25.24C25.24,57,25.25,57.48,25.25,58ZM5.8,58V56.59H4.43V58Zm41.68-1.5H46.07v1.42h1.41ZM35.67,52H37V50.54H35.67Zm0,11.88h1.37c0-.49,0-.93,0-1.35H35.68ZM14.85,50.58c0,.52,0,1,0,1.43H16.2V50.58Zm1.4,13.32c0-.51,0-.92,0-1.37H14.86V63.9Zm34.31-7.34v1.33h1.32V56.56ZM8.93,57.92h1.31V56.65H8.93ZM23.66,55.1H22.33c0,.47,0,.88,0,1.3h1.33C23.67,56,23.66,55.56,23.66,55.1Zm4.61,3v1.34h1.3V58.07Zm0-1.69h1.31V55.1H28.24ZM0,58H1.33v-1.3H0Zm44.47-2.88H43.14c0,.46,0,.86,0,1.31h1.32Zm0,3H43.09c0,.48,0,.9.06,1.34h1.31ZM37,57.9V56.61H35.69v1.3Zm-14.87,0c0-.46,0-.87,0-1.32H20.84v1.33Zm-6-1.29H14.87v1.27h1.34Zm13.54,0c0,.47,0,.89,0,1.32h1.31V56.59Zm13.22,0H41.66v1.31H43ZM8.75,59.44V58.12H7.45v1.31Zm-1.25-3H8.74V55.16C7.35,55,7.25,55.05,7.5,56.43Z"/><path class="cls-2" d="M50.57,61l1.37-.1c0-.47.06-.88.1-1.37l1.4-.12c0-.47.07-.91.11-1.39h2.83v2.82L55,61c-.05.47-.1.91-.14,1.38l-1.35.11c0,.45-.08.86-.12,1.33H52.06c0-.41-.07-.82-.12-1.33l-1.37-.1Z"/><path class="cls-2" d="M55,53.45l1.41.09c0,.91,0,1.81,0,2.79H53.57c0-.42-.1-.85-.16-1.34l-1.36-.09c0-.45-.08-.89-.13-1.4l-1.34-.09c0-.41,0-.82,0-1.33L51.91,52c.05-.47.09-.91.15-1.39h1.29c0,.42.08.87.12,1.38l1.37.13C54.88,52.53,54.92,52.94,55,53.45Z"/><path class="cls-2" d="M29.74,53.43V52.11L31.11,52c0-.45.09-.89.13-1.39h1.3c.05.46.1.9.15,1.39l1.34.1c0,.46.09.89.13,1.38l1.36.1c0,.92,0,1.81,0,2.79H32.68c.24-1.13-.17-1.68-1.42-1.36-.05-.52-.09-1-.14-1.47Z"/><path class="cls-2" d="M29.76,61.05l1.37-.1c0-.46.07-.87.12-1.37l1.37-.12c0-.44.08-.86.13-1.35h2.8v2.78L34.18,61c0,.48-.09.92-.13,1.39l-1.35.08c0,.45-.08.86-.12,1.33h-1.3c-.05-.43-.11-.86-.17-1.33l-1.35-.09Z"/><path class="cls-2" d="M17.76,61l-1.39-.09v-2.8h2.79c.05.45.1.89.14,1.36l1.35.08c.05.47.09.91.14,1.4l1.36.09V62.4l-1.35.1c0,.43-.08.87-.12,1.35H19.36c0-.46-.08-.87-.13-1.35l-1.38-.11C17.82,62,17.79,61.53,17.76,61Z"/><path class="cls-2" d="M10.42,55c0-.49-.08-.91-.11-1.38L9,53.46v-1.3L10.31,52c0-.46.06-.87.1-1.37h1.33c0,.42.07.86.11,1.38l1.38.1c0,.45.07.87.1,1.35l1.39.14v2.8H11.93c0-.44-.09-.87-.14-1.35Z"/><path class="cls-2" d="M11.88,62.53c0,.45-.08.86-.12,1.33H10.45c0-.42-.08-.83-.13-1.32L9,62.43V61.09L10.31,61c0-.44.07-.88.11-1.38l1.37-.1c0-.43.08-.87.12-1.37H14.7v2.8L13.36,61c0,.44-.07.87-.11,1.37Z"/><path class="cls-2" d="M43,61v1.31l-1.38.14c0,.46-.08.87-.12,1.33H40.17c0-.45-.08-.86-.13-1.33l-1.38-.12c0-.46-.06-.88-.09-1.36l-1.36-.11V58.08H40c.05.46.09.89.14,1.38l1.35.1c0,.45.09.89.15,1.38Z"/><path class="cls-2" d="M40,56.39h-2.8c0-.93,0-1.83,0-2.8l1.37-.12c0-.46.06-.87.1-1.37L40,52c0-.48.09-.92.13-1.4h1.31c0,.44.07.87.12,1.39l1.34.11v1.34l-1.33.1c0,.46-.08.9-.12,1.39l-1.38.1C40.06,55.47,40,55.9,40,56.39Z"/><path class="cls-2" d="M20.65,50.62c0,.49.08.91.12,1.39l1.39.11v1.32l-1.39.13c0,.45-.07.87-.12,1.4-1-.17-1.75.13-1.39,1.44H16.38c0-.89,0-1.78,0-2.78l1.37-.13c0-.42.06-.86.09-1.37L19.21,52c.05-.47.1-.91.15-1.39Z"/><path class="cls-2" d="M49,59.54v2.82l-1.45.1c0,.45-.08.87-.12,1.34H46.13c0-.41-.08-.82-.12-1.33l-1.37-.09V59.56h1.29c0,.45.1.89.16,1.37h1.4c0-.44.07-.88.11-1.44l1.44.08Z"/><path class="cls-2" d="M49.05,54.84,47.59,55c0-.53-.07-1-.1-1.43H46.07c0,.44-.08.87-.13,1.36H44.63v-2.8L46,52c0-.44.08-.88.12-1.38h1.33c0,.44.07.88.12,1.38l1.48.11v2.79Z"/><path class="cls-2" d="M23.8,54.9V52.12L25.17,52c0-.45.06-.89.1-1.39H26.6c0,.45.08.89.12,1.38l1.35.11v2.78H26.78c0-.41-.08-.85-.12-1.35H25.24c0,.44-.06.85-.1,1.35Z"/><path class="cls-2" d="M2.85,59.63l1.44-.09c0,.5.08.93.13,1.43H5.83c0-.45.09-.88.14-1.37H7.25v2.81l-1.34.13c0,.46-.08.87-.12,1.33H4.47c0-.42-.07-.84-.11-1.33l-1.47-.12c0-1,0-1.89,0-2.82Z"/><path class="cls-2" d="M2.83,54.92c0-.91.09-1.81.14-2.77L4.34,52c0-.44.06-.88.1-1.38H5.76c0,.45.09.89.13,1.38l1.36.11v2.79H6c0-.42-.1-.86-.15-1.35H4.41c0,.45-.07.86-.11,1.43l-1.48-.12Z"/><path class="cls-2" d="M23.73,59.59l1.4-.07c0,.5.07.92.11,1.41h1.43c0-.41.07-.85.11-1.34h1.31v2.8l-1.35.12c0,.45-.07.86-.11,1.33H25.3c0-.41-.07-.83-.11-1.34l-1.44-.1V59.56Z"/><path class="cls-2" d="M25.25,58c0-.49,0-.93,0-1.42h1.41V58Z"/><path class="cls-2" d="M5.8,58H4.43V56.59H5.8Z"/><path class="cls-2" d="M47.48,56.51v1.42H46.07V56.52Z"/><path class="cls-2" d="M35.67,52V50.54H37V52Z"/><path class="cls-2" d="M35.68,63.84V62.49H37c0,.42,0,.86,0,1.35Z"/><path class="cls-2" d="M49,59.57v-1.5h1.35v1.28L49,59.53Z"/><path class="cls-2" d="M49,54.87l1.36.23c0,.4,0,.8,0,1.27H49.05V54.84Z"/><path class="cls-2" d="M2.88,59.6,1.5,59.44v-1.3H2.85c0,.49,0,1,0,1.49Z"/><path class="cls-2" d="M2.82,54.89v1.52H1.49V55.18l1.35-.26Z"/><path class="cls-2" d="M23.75,59.56l-1.4-.14v-1.3h1.37c0,.52,0,1,0,1.48Z"/><path class="cls-2" d="M14.85,50.58H16.2V52H14.86C14.86,51.56,14.86,51.1,14.85,50.58Z"/><path class="cls-2" d="M16.25,63.9H14.86V62.53h1.38C16.24,63,16.24,63.39,16.25,63.9Z"/><path class="cls-2" d="M50.56,56.56h1.32v1.33H50.56Z"/><path class="cls-2" d="M8.93,57.92V56.65h1.31v1.27Z"/><path class="cls-2" d="M23.66,55.1c0,.46,0,.85,0,1.3H22.34c0-.42,0-.83,0-1.3Z"/><path class="cls-2" d="M28.27,58.07h1.3v1.34h-1.3Z"/><path class="cls-2" d="M28.24,56.38V55.1h1.31v1.28Z"/><path class="cls-2" d="M0,58v-1.3H1.33V58Z"/><path class="cls-2" d="M44.47,55.07v1.31H43.15c0-.45,0-.85,0-1.31Z"/><path class="cls-2" d="M44.46,58.06V59.4H43.15c0-.44,0-.86-.06-1.34Z"/><path class="cls-2" d="M37,57.9H35.69v-1.3H37Z"/><path class="cls-2" d="M22.17,57.93H20.84V56.61h1.32C22.17,57.06,22.17,57.47,22.17,57.93Z"/><path class="cls-2" d="M16.21,56.64v1.27H14.87V56.64Z"/><path class="cls-2" d="M29.75,56.59h1.32v1.32H29.76C29.75,57.48,29.75,57.06,29.75,56.59Z"/><path class="cls-2" d="M43,56.58v1.31H41.66V56.58Z"/><path class="cls-2" d="M8.75,59.44H7.45V58.13h1.3Z"/><path class="cls-2" d="M7.5,56.43c-.25-1.38-.15-1.48,1.24-1.27v1.26Z"/></g><g id="mB8zI5-2" data-name="mB8zI5"><path class="cls-1" d="M158.91,59.42v-1.3h-1.38v1.48l-1.4-.07c0,.5-.07.92-.11,1.41h-1.43c0-.41-.07-.85-.11-1.34h-1.31c0,.91,0,1.81,0,2.8l1.36.12c0,.45.07.86.11,1.33H156c0-.41.07-.83.11-1.34l1.43-.1c0-1,0-1.9,0-2.84Zm19.38-7.27L176.92,52c0-.44-.06-.88-.1-1.38H175.5c-.05.45-.09.89-.14,1.38l-1.35.11v2.79h1.28c.05-.42.09-.86.15-1.35h1.41c0,.45.07.86.11,1.43l1.48-.12v1.52h1.33V55.18l-1.35-.26C178.38,54,178.33,53.11,178.29,52.15Zm1.47,7.29v-1.3H178.4v1.49L177,59.54c0,.5-.08.93-.13,1.43h-1.41c-.05-.45-.09-.88-.15-1.37H174v2.81l1.34.13c0,.46.07.87.12,1.33h1.32c0-.42.07-.84.11-1.33l1.47-.12c0-1,0-1.89,0-2.82Zm-48.9-4.34v1.27h1.35V54.84l1.45.12c0-.53.07-1,.11-1.43h1.42c0,.44.08.87.12,1.36h1.32v-2.8L135.27,52c0-.44-.07-.88-.11-1.38h-1.33c0,.44-.07.88-.12,1.38l-1.48.11v2.79Zm1.38,7.26,1.45.1c0,.45.07.87.11,1.34h1.33c0-.41.07-.82.12-1.33l1.37-.09V59.56h-1.3c0,.45-.09.89-.15,1.37h-1.4c0-.44-.07-.88-.11-1.44l-1.44.08v-1.5h-1.36v1.28l1.38.18Zm-2.92-1.44c0-.47-.06-.88-.1-1.37l-1.4-.12c0-.47-.07-.91-.11-1.39h-2.83v2.82l1.39.11c0,.47.09.91.14,1.38l1.35.11c0,.45.07.86.12,1.33h1.32c0-.41.07-.82.11-1.33l1.37-.1c0-.44,0-.86,0-1.35Zm-4.44-7.38v2.79h2.81c0-.42.1-.85.16-1.34l1.36-.09c0-.45.08-.89.13-1.4l1.34-.09V52.08L129.35,52c0-.47-.1-.91-.15-1.39h-1.29c0,.42-.08.87-.13,1.38l-1.36.13c0,.45-.08.86-.12,1.37Zm26.64-1.43L150.15,52c0-.45-.09-.89-.14-1.39h-1.29c-.05.46-.1.9-.15,1.39l-1.35.1c0,.46-.08.89-.13,1.38l-1.35.1c0,.92,0,1.81,0,2.79h2.85c-.24-1.13.16-1.68,1.42-1.36.05-.52.09-1,.13-1.47l1.39-.11ZM150.13,61c0-.46-.07-.87-.12-1.37l-1.38-.12c0-.44-.07-.86-.12-1.35h-2.8v2.78l1.37.13c0,.48.08.92.13,1.39l1.35.08c0,.45.07.86.12,1.33H150c.05-.43.1-.86.16-1.33l1.36-.09V61.05Zm14.76,0v-2.8H162.1c0,.45-.1.89-.15,1.36l-1.34.08c-.05.47-.1.91-.14,1.4l-1.36.09c0,.42,0,.82,0,1.34l1.36.1c0,.43.08.87.12,1.35h1.31c.05-.46.09-.87.13-1.35l1.39-.11c0-.45.05-.87.09-1.38ZM171,53.57l1.35-.11c0-.42,0-.83,0-1.3L171,52c0-.46-.06-.87-.1-1.37h-1.33c0,.42-.07.86-.11,1.38l-1.39.1c0,.45-.06.87-.1,1.35l-1.38.14v2.8h2.79c0-.44.09-.87.14-1.35l1.37-.12C170.88,54.46,170.91,54,171,53.57Zm-1.46,10.29h1.32c0-.42.08-.83.13-1.32l1.34-.11V61.09L170.94,61c0-.44-.06-.88-.1-1.38l-1.38-.1c0-.43-.07-.87-.11-1.37h-2.79v2.8l1.34.12c0,.44.07.87.1,1.37l1.38.12C169.42,63,169.46,63.39,169.49,63.86Zm-31.22-1.51,1.39.14c0,.46.08.87.12,1.33h1.31c0-.45.08-.86.12-1.33l1.39-.12c0-.46.06-.88.09-1.36L144,60.9c0-.92,0-1.84,0-2.82h-2.76c0,.46-.09.89-.14,1.38l-1.35.1c-.05.45-.1.89-.15,1.38l-1.37.11C138.28,61.52,138.28,61.9,138.27,62.35Zm5.8-6v-2.8l-1.36-.12c0-.46-.07-.87-.1-1.37L141.24,52c-.05-.48-.09-.92-.14-1.4h-1.3c0,.44-.07.87-.12,1.39l-1.34.11v1.34l1.33.1c0,.46.08.9.12,1.39l1.37.1c0,.46.07.89.11,1.38ZM160.49,52l-1.39.11v1.32l1.39.13c0,.45.07.87.11,1.4,1.06-.17,1.75.13,1.4,1.44h2.88V53.63l-1.36-.13c0-.42-.06-.86-.09-1.37L162.05,52c-.05-.47-.1-.91-.15-1.39h-1.29C160.57,51.11,160.53,51.53,160.49,52Zm-3,.11L156.09,52c0-.45-.06-.89-.1-1.39h-1.34c0,.45-.07.89-.11,1.38l-1.35.11v2.78h1.29c0-.41.07-.85.12-1.35H156c0,.44.06.85.1,1.35h1.34ZM156,56.55h-1.41V58H156C156,57.48,156,57,156,56.55ZM176.82,58c0-.47,0-.91,0-1.42h-1.37c0,.44,0,.88,0,1.42Zm-43-.08h1.41V56.52h-1.41Zm11.81-7.39h-1.37V52h1.37Zm0,12h-1.37v1.35h1.37Zm19.48-11.91V52h1.34V50.58ZM166.4,63.9V62.53H165c0,.45,0,.86,0,1.37Zm-37-7.34c0,.47,0,.87,0,1.33h1.33V56.56Zm43,.09H171v1.27h1.31Zm-14.74-.25h1.33c0-.42,0-.83,0-1.3h-1.34Zm-5.9,1.67v1.34H153V58.07Zm1.33-3h-1.31v1.28H153C153,55.94,153,55.56,153,55.1Zm28.24,1.55h-1.33V58h1.33Zm-44.47-.27h1.32V55.07h-1.32Zm0,3h1.31c0-.44,0-.86.06-1.34H136.8Zm8.77-1.49v-1.3h-1.35V57.9Zm14.84,0V56.61h-1.32v1.32Zm4.64,0h1.34V56.64h-1.34Zm-14.86-1.32v1.32h1.31c0-.43,0-.85,0-1.32Zm-11.9,1.3h1.31V56.58h-1.31Zm35.52,1.55V58.13h-1.3v1.32Zm-1.29-4.28v1.26h1.24C174,55.05,173.91,55,172.52,55.16Z"/><path class="cls-2" d="M130.69,61l-1.37-.1c0-.47-.06-.88-.1-1.37l-1.4-.12c0-.47-.07-.91-.11-1.39h-2.83v2.82l1.39.11c0,.47.09.91.14,1.38l1.35.11c0,.45.07.86.12,1.33h1.32c0-.41.07-.82.11-1.33l1.37-.1C130.69,61.93,130.69,61.51,130.69,61Z"/><path class="cls-2" d="M126.3,53.45l-1.42.09v2.79h2.81c0-.42.1-.85.16-1.34l1.36-.09c0-.45.08-.89.13-1.4l1.34-.09V52.08L129.35,52c0-.47-.1-.91-.15-1.39h-1.29c0,.42-.08.87-.13,1.38l-1.36.13C126.38,52.53,126.34,52.94,126.3,53.45Z"/><path class="cls-2" d="M151.52,53.43V52.11L150.15,52c0-.45-.09-.89-.14-1.39h-1.29c-.05.46-.1.9-.15,1.39l-1.35.1c0,.46-.08.89-.13,1.38l-1.35.1c0,.92,0,1.81,0,2.79h2.85c-.24-1.13.16-1.68,1.42-1.36.05-.52.09-1,.13-1.47Z"/><path class="cls-2" d="M151.5,61.05l-1.37-.1c0-.46-.07-.87-.12-1.37l-1.38-.12c0-.44-.07-.86-.12-1.35h-2.8v2.78l1.37.13c0,.48.08.92.13,1.39l1.35.08c0,.45.07.86.12,1.33H150c.05-.43.1-.86.16-1.33l1.36-.09Z"/><path class="cls-2" d="M163.5,61l1.39-.09v-2.8H162.1c0,.45-.1.89-.15,1.36l-1.34.08c-.05.47-.1.91-.14,1.4l-1.36.09c0,.42,0,.82,0,1.34l1.36.1c0,.43.08.87.12,1.35h1.31c.05-.46.09-.87.13-1.35l1.39-.11C163.44,62,163.46,61.53,163.5,61Z"/><path class="cls-2" d="M170.84,55c0-.49.07-.91.11-1.38l1.35-.11c0-.42,0-.83,0-1.3L171,52c0-.46-.06-.87-.1-1.37h-1.33c0,.42-.07.86-.11,1.38l-1.39.1c0,.45-.06.87-.1,1.35l-1.38.14v2.8h2.79c0-.44.09-.87.14-1.35Z"/><path class="cls-2" d="M169.38,62.53c0,.45.08.86.11,1.33h1.32c0-.42.08-.83.13-1.32l1.34-.11V61.09L170.94,61c0-.44-.06-.88-.1-1.38l-1.38-.1c0-.43-.07-.87-.11-1.37h-2.79v2.8l1.34.12c0,.44.07.87.1,1.37Z"/><path class="cls-2" d="M138.28,61c0,.48,0,.86,0,1.31l1.39.14c0,.46.08.87.12,1.33h1.31c0-.45.08-.86.12-1.33l1.39-.12c0-.46.06-.88.09-1.36L144,60.9c0-.92,0-1.84,0-2.82h-2.76c0,.46-.09.89-.14,1.38l-1.35.1c-.05.45-.1.89-.15,1.38Z"/><path class="cls-2" d="M141.27,56.39h2.8v-2.8l-1.36-.12c0-.46-.07-.87-.1-1.37L141.24,52c-.05-.48-.09-.92-.14-1.4h-1.3c0,.44-.07.87-.12,1.39l-1.34.11v1.34l1.33.1c0,.46.08.9.12,1.39l1.37.1C141.2,55.47,141.23,55.9,141.27,56.39Z"/><path class="cls-2" d="M160.61,50.62c0,.49-.08.91-.12,1.39l-1.39.11v1.32l1.39.13c0,.45.07.87.11,1.4,1.06-.17,1.75.13,1.4,1.44h2.88V53.63l-1.36-.13c0-.42-.06-.86-.09-1.37L162.05,52c-.05-.47-.1-.91-.15-1.39Z"/><path class="cls-2" d="M132.24,59.54v2.82l1.45.1c0,.45.07.87.11,1.34h1.33c0-.41.07-.82.12-1.33l1.37-.09V59.56h-1.3c0,.45-.09.89-.15,1.37h-1.4c0-.44-.07-.88-.11-1.44l-1.44.08Z"/><path class="cls-2" d="M132.21,54.84l1.45.12c0-.53.07-1,.11-1.43h1.42c0,.44.08.87.12,1.36h1.32v-2.8L135.27,52c0-.44-.07-.88-.11-1.38h-1.33c0,.44-.07.88-.12,1.38l-1.48.11v2.79Z"/><path class="cls-2" d="M157.46,54.9V52.12L156.09,52c0-.45-.06-.89-.1-1.39h-1.34c0,.45-.07.89-.11,1.38l-1.35.11v2.78h1.29c0-.41.07-.85.12-1.35H156c0,.44.06.85.1,1.35Z"/><path class="cls-2" d="M178.4,59.63,177,59.54c0,.5-.08.93-.13,1.43h-1.41c-.05-.45-.09-.88-.15-1.37H174v2.81l1.34.13c0,.46.07.87.12,1.33h1.32c0-.42.07-.84.11-1.33l1.47-.12c0-1,0-1.89,0-2.82Z"/><path class="cls-2" d="M178.42,54.92c0-.91-.09-1.81-.13-2.77L176.92,52c0-.44-.06-.88-.1-1.38H175.5c-.05.45-.09.89-.14,1.38l-1.35.11v2.79h1.28c.05-.42.09-.86.15-1.35h1.41c0,.45.07.86.11,1.43l1.48-.12Z"/><path class="cls-2" d="M157.53,59.59l-1.4-.07c0,.5-.07.92-.11,1.41h-1.43c0-.41-.07-.85-.11-1.34h-1.31c0,.91,0,1.81,0,2.8l1.36.12c0,.45.07.86.11,1.33H156c0-.41.07-.83.11-1.34l1.43-.1c0-1,0-1.9,0-2.84Z"/><path class="cls-2" d="M156,58c0-.49,0-.93,0-1.42h-1.41V58Z"/><path class="cls-2" d="M175.45,58h1.37c0-.47,0-.91,0-1.42h-1.37C175.46,57,175.46,57.47,175.45,58Z"/><path class="cls-2" d="M133.78,56.51v1.42h1.41V56.52Z"/><path class="cls-2" d="M145.59,52V50.54h-1.37V52Z"/><path class="cls-2" d="M145.58,63.84V62.49h-1.37v1.35Z"/><path class="cls-2" d="M132.22,59.57v-1.5h-1.36v1.28l1.38.18Z"/><path class="cls-2" d="M132.23,54.87l-1.37.23v1.27h1.35V54.84Z"/><path class="cls-2" d="M178.38,59.6l1.38-.16v-1.3H178.4v1.49Z"/><path class="cls-2" d="M178.44,54.89v1.52h1.33V55.18l-1.35-.26Z"/><path class="cls-2" d="M157.51,59.56l1.4-.14v-1.3h-1.38v1.48Z"/><path class="cls-2" d="M166.4,50.58h-1.34V52h1.34Z"/><path class="cls-2" d="M165,63.9h1.39V62.53H165C165,63,165,63.39,165,63.9Z"/><path class="cls-2" d="M130.7,56.56h-1.32c0,.47,0,.87,0,1.33h1.33Z"/><path class="cls-2" d="M172.33,57.92V56.65H171v1.27Z"/><path class="cls-2" d="M157.59,55.1v1.3h1.33c0-.42,0-.83,0-1.3Z"/><path class="cls-2" d="M153,58.07h-1.3v1.34H153Z"/><path class="cls-2" d="M153,56.38c0-.44,0-.82,0-1.28h-1.31v1.28Z"/><path class="cls-2" d="M181.26,58v-1.3h-1.33V58Z"/><path class="cls-2" d="M136.79,55.07v1.31h1.32V55.07Z"/><path class="cls-2" d="M136.8,58.06V59.4h1.31c0-.44,0-.86.06-1.34Z"/><path class="cls-2" d="M144.22,57.9h1.35v-1.3h-1.35Z"/><path class="cls-2" d="M159.09,57.93h1.32V56.61h-1.32Z"/><path class="cls-2" d="M165.05,56.64v1.27h1.34V56.64Z"/><path class="cls-2" d="M151.51,56.59h-1.32v1.32h1.31C151.5,57.48,151.5,57.06,151.51,56.59Z"/><path class="cls-2" d="M138.29,56.58v1.31h1.31V56.58Z"/><path class="cls-2" d="M172.51,59.44h1.3V58.13h-1.3Z"/><path class="cls-2" d="M173.76,56.43c.25-1.38.15-1.48-1.24-1.27v1.26Z"/></g><path class="cls-1" d="M54.53,37.32a11.48,11.48,0,0,1-3.1,4.22,14.55,14.55,0,0,1-5.1,2.74,22.93,22.93,0,0,1-7,1,21.72,21.72,0,0,1-6.89-1,13.13,13.13,0,0,1-4.8-2.71,10.56,10.56,0,0,1-2.81-4.22,15.9,15.9,0,0,1-.91-5.52V1.25h9.92V31A8.28,8.28,0,0,0,35,35.64q1.22,1.8,4.35,1.8a5.81,5.81,0,0,0,4.76-1.83A7.09,7.09,0,0,0,45.65,31V1.25h9.92V31.83A14,14,0,0,1,54.53,37.32Z"/><path class="cls-1" d="M73.57,41c-.85,0-1.78,0-2.78-.14s-2-.23-3.05-.41a28.17,28.17,0,0,1-3-.72,13.13,13.13,0,0,1-2.55-1.06l2.2-6.12a20.41,20.41,0,0,0,2.7.82c.9.2,1.76.37,2.57.5s1.53.21,2.15.25,1.1.06,1.45.06a8.16,8.16,0,0,0,4.58-1c1-.69,1.5-1.92,1.5-3.67A5.27,5.27,0,0,0,79,27.43,3.4,3.4,0,0,0,78,26a7,7,0,0,0-1.79-1q-1.11-.45-2.67-1c-1.82-.6-3.44-1.18-4.87-1.76A13.1,13.1,0,0,1,65,20.14,8.55,8.55,0,0,1,62.67,17a12.17,12.17,0,0,1-.81-4.79,10.3,10.3,0,0,1,1.19-5.13,9.71,9.71,0,0,1,3.13-3.39,13.2,13.2,0,0,1,4.49-1.85,24.74,24.74,0,0,1,5.27-.56c.78,0,1.62.05,2.52.14a23.76,23.76,0,0,1,2.79.45A24.72,24.72,0,0,1,84,2.59a16.07,16.07,0,0,1,2.38,1c-.08.19-.21.56-.38,1.12s-.37,1.17-.58,1.82S85,7.8,84.84,8.36s-.3.93-.38,1.12a21.47,21.47,0,0,0-2.81-.82A23.89,23.89,0,0,0,79,8.24c-.81-.07-1.51-.12-2.11-.14l-1.19,0A7.53,7.53,0,0,0,74,8.27a4.79,4.79,0,0,0-1.5.62,3.05,3.05,0,0,0-1.08,1.17,3.82,3.82,0,0,0-.4,1.82,3.41,3.41,0,0,0,1.24,2.94,13.94,13.94,0,0,0,4,1.76,53.58,53.58,0,0,1,5.65,2.13,13.5,13.5,0,0,1,3.83,2.49,8.41,8.41,0,0,1,2.14,3.38,14.72,14.72,0,0,1,.67,4.76,11.83,11.83,0,0,1-1.13,5.37,9.77,9.77,0,0,1-3.13,3.64,13.67,13.67,0,0,1-4.75,2A26.35,26.35,0,0,1,73.57,41Z"/><path class="cls-1" d="M103,41c-.85,0-1.78,0-2.78-.14s-2-.23-3.05-.41a28.17,28.17,0,0,1-3-.72,13.13,13.13,0,0,1-2.55-1.06l2.2-6.12a20.41,20.41,0,0,0,2.7.82c.9.2,1.76.37,2.57.5s1.53.21,2.15.25,1.1.06,1.45.06a8.16,8.16,0,0,0,4.58-1,4.16,4.16,0,0,0,1.51-3.67,5.46,5.46,0,0,0-.35-2.07,3.51,3.51,0,0,0-1-1.41,7,7,0,0,0-1.79-1q-1.11-.45-2.67-1c-1.82-.6-3.44-1.18-4.87-1.76a13.25,13.25,0,0,1-3.65-2.16A8.66,8.66,0,0,1,92.14,17a12.17,12.17,0,0,1-.81-4.79,10.3,10.3,0,0,1,1.19-5.13,9.71,9.71,0,0,1,3.13-3.39,13.2,13.2,0,0,1,4.49-1.85,24.74,24.74,0,0,1,5.27-.56c.78,0,1.62.05,2.52.14a23.76,23.76,0,0,1,2.79.45,24.72,24.72,0,0,1,2.75.75,16.07,16.07,0,0,1,2.38,1c-.08.19-.21.56-.38,1.12l-.58,1.82c-.21.65-.41,1.26-.58,1.82s-.3.93-.38,1.12a21.47,21.47,0,0,0-2.81-.82,24.1,24.1,0,0,0-2.63-.42c-.82-.07-1.52-.12-2.12-.14l-1.19,0a7.53,7.53,0,0,0-1.71.19,5,5,0,0,0-1.51.62,3.11,3.11,0,0,0-1.07,1.17,3.82,3.82,0,0,0-.4,1.82,3.41,3.41,0,0,0,1.24,2.94,13.94,13.94,0,0,0,4,1.76,52.74,52.74,0,0,1,5.65,2.13,13.5,13.5,0,0,1,3.83,2.49,8.41,8.41,0,0,1,2.14,3.38,14.72,14.72,0,0,1,.67,4.76,11.83,11.83,0,0,1-1.13,5.37,9.86,9.86,0,0,1-3.13,3.64,13.67,13.67,0,0,1-4.75,2A26.35,26.35,0,0,1,103,41Z"/><path class="cls-1" d="M140.72,44.89a17.65,17.65,0,0,1-8.13-1.7,13.81,13.81,0,0,1-5.29-4.73,20.35,20.35,0,0,1-2.84-7.16,44.65,44.65,0,0,1-.85-9,40.8,40.8,0,0,1,.92-9,20,20,0,0,1,2.93-7,14,14,0,0,1,5.29-4.57,20.28,20.28,0,0,1,15.91,0,13.65,13.65,0,0,1,5.25,4.54,19.37,19.37,0,0,1,2.91,7,43.1,43.1,0,0,1,.88,9.08,44.77,44.77,0,0,1-.85,9,20.7,20.7,0,0,1-2.8,7.19,13.64,13.64,0,0,1-5.23,4.73A17.47,17.47,0,0,1,140.72,44.89Zm0-37.07a5.14,5.14,0,0,0-3.43,1.07,6.67,6.67,0,0,0-1.95,3,17.47,17.47,0,0,0-.89,4.58q-.19,2.64-.19,5.8c0,2.27.07,4.31.23,6.11A18.42,18.42,0,0,0,135.4,33a6.55,6.55,0,0,0,2,3,5.17,5.17,0,0,0,3.36,1,5,5,0,0,0,3.3-1.07,6.65,6.65,0,0,0,1.93-3,20.35,20.35,0,0,0,.88-4.66q.22-2.71.23-6c0-2.06-.07-4-.2-5.74a17.73,17.73,0,0,0-.88-4.6,6.87,6.87,0,0,0-1.93-3A4.87,4.87,0,0,0,140.72,7.82Z"/></g></g></svg>