<svg xmlns="http://www.w3.org/2000/svg" viewBox="0 0 181.73 60"><defs><style>.cls-1{fill:#00394d;}</style></defs><g id="Слой_2" data-name="Слой 2"><g id="main_page" data-name="main page"><path class="cls-1" d="M13.22,17.23A13.49,13.49,0,0,0,0,31.09c0,6.34,4.3,13.23,13.31,13.23,6.06,0,12.7-4.71,12.7-14C26,23.34,20.88,17.23,13.22,17.23ZM13.72,43c-4.19,0-7-5.67-7-13.75,0-6.81,2.16-10.65,5.69-10.65,4.32,0,6.91,5.37,6.91,13.12C19.32,40.9,16.64,43,13.72,43Z"/><path class="cls-1" d="M37.42,37.24V8.42c0-4.76.16-7.18.22-8.38a42.43,42.43,0,0,1-9.5,2.07v.8c3.25.67,3.48,1,3.48,5.21V37.24c0,4.61-.3,4.92-3.64,5.47v.88H40.89v-.88C37.58,42.1,37.42,41.81,37.42,37.24Z"/><path class="cls-1" d="M108.36,37.78V26.55c0-5.79-2.48-9.32-7-9.32a7.56,7.56,0,0,0-4.38,1.53c-1.46.93-2.91,2-4.34,3.13-1.13-3.07-3.33-4.66-6.2-4.66-1.64,0-3,.61-5,1.9-1.29.88-2.3,1.72-3.46,2.48,0-1.26,0-3.15.12-4.54-2.65,1.11-6.36.89-9.38.89H58.56v.83c3.93.79,4.23,1.41,3.5,3.7-1.11,3.76-3.42,9.67-5.17,14.42L51.21,22.18c-.88-2.24-.71-2.68,2.45-3.39V18H40.78v.83c2.91.59,3.23,1.33,4.44,4.25,1.55,3.93,5.19,12.45,7.85,19.8a5.74,5.74,0,0,1,.57,2.63A42.54,42.54,0,0,1,52,49.39a12.77,12.77,0,0,1-5,5.74c-1.25.88-1.5,1.38-1.5,1.94,0,1.6,1.89,2.93,3.69,2.93.77,0,1.36-.37,1.74-1.7.91-3.2,2.16-7.09,5.77-16.59,3.77-9.79,5.62-14.54,7.27-18.31,1.49-3.42,2-4.66,4.75-4.61,2.63.05,3.52,2.64,3.52,6.35V37.56c0,4.23-.23,4.58-3.68,5.15v.88H81.14v-.88c-3-.58-3.21-1-3.21-4.83V23a7.74,7.74,0,0,1,4.95-2.18c3,0,4.53,1.7,4.53,6.13V38c0,3.84-.15,4.22-3.3,4.76v.88H96.35v-.88c-2.76-.54-3.19-.94-3.19-4.76V25.84a17.06,17.06,0,0,0-.22-2.8,7.73,7.73,0,0,1,5.19-2.22c3,0,4.51,2,4.51,6.44V37.34c0,4.43-.1,4.82-3.39,5.37v.88h12.26v-.88C108.59,42.13,108.36,41.91,108.36,37.78Z"/><path class="cls-1" d="M135.67,25.9a8.84,8.84,0,0,0-9.12-8.67,11.92,11.92,0,0,0-8.58,4,15,15,0,0,0-4.07,10.46c0,6.63,4.37,12.66,11.82,12.66,2,0,6.33-1.49,9.94-6.42l-.53-.68a9.1,9.1,0,0,1-6.67,2.91c-4.24,0-8.91-3.4-8.88-11.72,6.63-.2,14.13-.68,15.78-1.07C135.61,27.28,135.67,26.85,135.67,25.9Zm-7,.63c-2,.2-6,.23-8.92.18.48-5.51,2.59-7.87,5.11-7.87,3.12,0,4.88,3.39,4.88,6.79C129.72,26.32,129.33,26.47,128.65,26.53Z"/><path class="cls-1" d="M163.27,36.44V7.57c0-2.68.08-6,.2-7.57a45.2,45.2,0,0,1-10.32,2v.78c4,.75,4.3,1.23,4.3,5.07v9.71a14.59,14.59,0,0,0-3.25-.32c-8.5,0-15.27,6.38-15.27,14.26,0,8.47,6,12.83,10.78,12.83a7.84,7.84,0,0,0,3.25-1,46.14,46.14,0,0,0,4.49-2.61c0,1.19-.06,3-.13,3.84a54.58,54.58,0,0,1,9.79-2.38v-.86l-1.4-.31C163.7,40.56,163.27,40,163.27,36.44Zm-5.82,3A6.94,6.94,0,0,1,153.24,41c-3.68,0-7.68-3.86-7.72-11.61,0-8.45,3.49-10.45,6.1-10.45A6.63,6.63,0,0,1,157.45,22Z"/><path class="cls-1" d="M178,37.49a3.69,3.69,0,1,0,3.69,3.69A3.69,3.69,0,0,0,178,37.49Z"/></g></g></svg>