<svg xmlns="http://www.w3.org/2000/svg">
    <symbol id="iconLogo" width="172" height="118" viewBox="0 0 172 118" fill="none">
        <path d="M92.1661 36.4803C95.6772 36.4803 98.5234 33.6422 98.5234 30.1413C98.5234 26.6404 95.6772 23.8024 92.1661 23.8024C88.6549 23.8024 85.8086 26.6404 85.8086 30.1413C85.8086 33.6422 88.6549 36.4803 92.1661 36.4803Z" fill="#6DCFF6"/>
        <path d="M102.099 46.3978C99.4156 49.0702 96.113 51.0418 92.4835 52.1378C88.8539 53.2339 85.0092 53.4207 81.29 52.6816C77.5707 51.9426 74.0916 50.3005 71.1607 47.9009C68.2298 45.5012 65.9376 42.4179 64.487 38.9242C63.0364 35.4304 62.4722 31.6338 62.8443 27.8707C63.2164 24.1076 64.5134 20.494 66.6204 17.35C68.7274 14.206 71.5795 11.6285 74.924 9.84577C78.2685 8.06305 82.0022 7.13012 85.7946 7.12959V0C80.8243 0.0020851 75.9312 1.22613 71.5486 3.56374C67.1659 5.90136 63.429 9.28041 60.6686 13.4017C57.9083 17.523 56.2097 22.2594 55.7232 27.1914C55.2368 32.1235 55.9776 37.099 57.8799 41.6775C59.7822 46.256 62.7875 50.2961 66.6295 53.4402C70.4715 56.5843 75.0317 58.7352 79.9064 59.7026C84.7811 60.67 89.8198 60.424 94.5764 58.9864C99.333 57.5488 103.661 54.9639 107.176 51.4607L102.099 46.3978Z" fill="#005DA3"/>
        <path d="M71.4802 30.2106C71.4802 26.4233 72.9891 22.7911 75.6749 20.1131C78.3608 17.4351 82.0035 15.9306 85.8019 15.9306C89.6002 15.9306 93.243 17.4351 95.9288 20.1131C98.6146 22.7911 100.124 26.4233 100.124 30.2106H107.288C107.288 24.5306 105.025 19.0832 100.997 15.0668C96.9687 11.0504 91.5054 8.79407 85.8088 8.79407C80.1123 8.79407 74.649 11.0504 70.6209 15.0668C66.5928 19.0832 64.3298 24.5306 64.3298 30.2106H71.4802Z" fill="#00AEEF"/>
        <path d="M0.310059 91.2422H11.2304V88.038H3.55141V81.5742H11.2304V78.3701H3.55141V73.4598H11.3139V70.2695H0.310059V91.2422Z" fill="#005DA3"/>
        <path d="M24.8353 75.4016V82.8364C24.8992 83.966 24.815 85.0991 24.5849 86.207C24.3558 86.8883 23.9054 87.474 23.3051 87.8715C22.6194 88.3158 21.813 88.5385 20.9958 88.5095C20.162 88.5353 19.3406 88.3027 18.6448 87.8438C18.0157 87.424 17.5571 86.7946 17.3511 86.0683C17.1349 84.9959 17.0508 83.9013 17.1007 82.8086V75.3739H13.9428V83.0306C13.8568 84.7069 14.1172 86.383 14.7079 87.9547C15.2096 89.0753 16.045 90.0148 17.1007 90.6457C18.2867 91.3142 19.6341 91.6452 20.9958 91.6027C24.1537 91.6027 25.1692 90.0076 25.1692 90.0076V91.2421H27.9515V75.4016H24.7519H24.8353Z" fill="#005DA3"/>
        <path d="M38.8304 75.5959C38.1771 75.193 37.4186 74.9924 36.6509 75.0195C35.8832 75.0467 35.1409 75.3004 34.5179 75.7485C34.2199 75.9445 33.9405 76.1674 33.6832 76.4143V75.4017H30.4836V91.2422H33.6832V85.6938C33.6139 84.0642 33.7212 82.4319 34.0032 80.8252C34.1772 80.0335 34.5727 79.3073 35.1439 78.7307C35.5142 78.3601 36.0109 78.1422 36.5351 78.1204C36.792 78.1414 37.0424 78.2121 37.2724 78.3284L37.7732 78.5504L39.4008 75.9427L38.8304 75.5959Z" fill="#005DA3"/>
        <path d="M46.8153 75.0272C45.6688 75.0038 44.5309 75.2299 43.4809 75.6899C42.431 76.1498 41.4943 76.8325 40.7361 77.6904C39.313 79.2655 38.5359 81.3166 38.5591 83.4364C38.5823 85.5563 39.4041 87.59 40.8613 89.1338C41.6382 89.9222 42.5648 90.5485 43.5871 90.976C44.6093 91.4035 45.7068 91.6237 46.8153 91.6237C47.9238 91.6237 49.0213 91.4035 50.0435 90.976C51.0658 90.5485 51.9924 89.9222 52.7693 89.1338C54.2275 87.5877 55.0497 85.5517 55.0729 83.4295C55.0961 81.3073 54.3186 79.2539 52.8945 77.6765C52.135 76.8212 51.1977 76.1411 50.1479 75.6835C49.098 75.226 47.9608 75.002 46.8153 75.0272ZM51.1973 86.0406C50.7694 86.8211 50.1341 87.469 49.3611 87.9131C48.5776 88.3455 47.6968 88.5723 46.8014 88.5723C45.9059 88.5723 45.0252 88.3455 44.2417 87.9131C43.4682 87.4696 42.8328 86.8216 42.4054 86.0406C41.9532 85.2358 41.7183 84.3277 41.7238 83.4051C41.7086 82.7143 41.8339 82.0275 42.0921 81.3863C42.3504 80.745 42.7361 80.1625 43.2262 79.6739C43.6853 79.1877 44.2393 78.8003 44.8542 78.5355C45.469 78.2707 46.1316 78.1341 46.8014 78.1341C47.4711 78.1341 48.1338 78.2707 48.7486 78.5355C49.3634 78.8003 49.9175 79.1877 50.3766 79.6739C50.8698 80.1609 51.2586 80.7427 51.5193 81.3842C51.7799 82.0256 51.9071 82.7132 51.8929 83.4051C51.8935 84.3288 51.6539 85.2369 51.1973 86.0406Z" fill="#005DA3"/>
        <path d="M65.401 75.027C63.4819 74.9924 61.6268 75.7153 60.2399 77.0383V75.4015H57.082V96.5683H60.2399V89.6329C60.763 90.0889 61.3427 90.4758 61.9649 90.7842C63.4836 91.5101 65.1928 91.7413 66.8506 91.445C68.5083 91.1488 70.0306 90.3402 71.202 89.1336C71.9743 88.3571 72.5828 87.4341 72.9914 86.4192C73.4 85.4043 73.6004 84.3181 73.5808 83.2246C73.596 82.1429 73.3919 81.0694 72.9808 80.0683C72.5696 79.0672 71.9598 78.1592 71.1881 77.3989C70.4377 76.6295 69.5369 76.022 68.5414 75.614C67.546 75.206 66.4771 75.0062 65.401 75.027ZM69.6856 85.971C69.2427 86.7806 68.5892 87.4562 67.7937 87.9268C67.0136 88.3842 66.1251 88.6253 65.2201 88.6253C64.3152 88.6253 63.4266 88.3842 62.6465 87.9268C61.8517 87.4989 61.1955 86.8542 60.7546 86.0681C60.3031 85.2485 60.073 84.326 60.0869 83.3911C60.0639 82.6922 60.1841 81.9959 60.44 81.3449C60.6959 80.6938 61.0823 80.1016 61.5754 79.6043C62.045 79.1108 62.6133 78.7212 63.2436 78.4607C63.8739 78.2003 64.552 78.0748 65.234 78.0924C66.1433 78.0845 67.0377 78.3229 67.8217 78.7822C68.6057 79.2415 69.2499 79.9044 69.6856 80.7001C70.1496 81.5014 70.3939 82.4104 70.3939 83.3356C70.3939 84.2608 70.1496 85.1698 69.6856 85.971Z" fill="#005DA3"/>
        <path d="M88.3267 77.0246C87.8393 76.5648 87.2918 76.1729 86.6991 75.8595C85.6025 75.2975 84.3846 75.0118 83.1517 75.0272C82.0717 75.0144 81.0006 75.2233 80.005 75.6409C79.0094 76.0585 78.1107 76.6759 77.3646 77.4546C76.5903 78.2137 75.978 79.1212 75.5644 80.1223C75.1508 81.1235 74.9445 82.1977 74.958 83.2803C74.9376 84.3739 75.1377 85.4604 75.5463 86.4754C75.9549 87.4904 76.5638 88.4133 77.3368 89.1893C78.5115 90.3952 80.0361 91.2032 81.6958 91.4993C83.3555 91.7955 85.0665 91.5648 86.5878 90.8399C87.2155 90.5281 87.8 90.1365 88.3267 89.6748V91.2422H91.4567V75.4017H88.3267V77.0246ZM87.7841 86.0684C87.3458 86.8516 86.6949 87.4958 85.9061 87.927C85.1234 88.3842 84.2327 88.6252 83.3256 88.6252C82.4185 88.6252 81.5278 88.3842 80.745 87.927C79.9501 87.4559 79.2966 86.7804 78.8531 85.9713C78.3891 85.17 78.1449 84.2611 78.1449 83.3358C78.1449 82.4106 78.3891 81.5016 78.8531 80.7004C79.29 79.9056 79.9345 79.2435 80.7182 78.7844C81.502 78.3253 82.3957 78.0862 83.3047 78.0926C83.9866 78.0759 84.6645 78.2017 85.2947 78.4621C85.9248 78.7226 86.4933 79.1117 86.9634 79.6046C87.4565 80.1018 87.8428 80.694 88.0988 81.3451C88.3547 81.9961 88.4748 82.6924 88.4519 83.3913C88.4651 84.3262 88.235 85.2485 87.7841 86.0684Z" fill="#005DA3"/>
        <path d="M111.517 85.5828C110.741 86.5458 109.755 87.3191 108.634 87.8432C107.513 88.3674 106.286 88.6285 105.048 88.6067C103.977 88.6461 102.91 88.4685 101.911 88.0846C100.911 87.7007 100 87.1186 99.2329 86.3735C98.4851 85.6588 97.8957 84.7959 97.5027 83.8403C97.1098 82.8847 96.922 81.8575 96.9515 80.8251C96.9283 79.4317 97.2789 78.0573 97.967 76.8442C98.6591 75.6781 99.654 74.7197 100.847 74.0701C102.032 73.4293 103.351 73.073 104.698 73.0297C106.046 72.9864 107.385 73.2571 108.609 73.8204C109.738 74.369 110.72 75.1772 111.475 76.1784L111.864 76.6778L114.424 74.722L114.062 74.2226C113.055 72.8308 111.717 71.7106 110.167 70.963C108.522 70.1805 106.718 69.7866 104.895 69.8117C103.408 69.7702 101.928 70.0261 100.542 70.5646C99.1564 71.103 97.8929 71.9129 96.8263 72.9465C95.7775 73.9422 94.9478 75.1444 94.3898 76.4768C93.8318 77.8093 93.5577 79.2428 93.585 80.6864C93.5308 83.4074 94.4814 86.0534 96.2559 88.1212C97.3352 89.3373 98.6737 90.2974 100.173 90.931C101.673 91.5646 103.296 91.8557 104.923 91.7831C106.715 91.8062 108.491 91.4369 110.125 90.7012C111.66 89.9994 113.004 88.9439 114.048 87.6218L114.452 87.1086L111.906 85.1806L111.517 85.5828Z" fill="#00AEEF"/>
        <path d="M123.911 75.0272C122.765 75.0038 121.627 75.2299 120.577 75.6899C119.527 76.1498 118.59 76.8325 117.832 77.6904C116.409 79.2655 115.632 81.3166 115.655 83.4364C115.678 85.5563 116.5 87.59 117.957 89.1338C118.734 89.9222 119.661 90.5485 120.683 90.976C121.706 91.4035 122.803 91.6237 123.911 91.6237C125.02 91.6237 126.117 91.4035 127.14 90.976C128.162 90.5485 129.089 89.9222 129.866 89.1338C131.324 87.5877 132.146 85.5517 132.169 83.4295C132.192 81.3073 131.415 79.2539 129.991 77.6765C129.231 76.8212 128.294 76.1411 127.244 75.6835C126.194 75.226 125.057 75.002 123.911 75.0272ZM128.294 86.0406C127.869 86.8193 127.239 87.467 126.471 87.9131C125.688 88.3455 124.807 88.5723 123.911 88.5723C123.016 88.5723 122.135 88.3455 121.352 87.9131C120.578 87.4696 119.943 86.8216 119.516 86.0406C119.063 85.2358 118.828 84.3277 118.834 83.4051C118.819 82.7143 118.944 82.0275 119.202 81.3863C119.46 80.745 119.846 80.1625 120.336 79.6739C120.795 79.1877 121.349 78.8003 121.964 78.5355C122.579 78.2707 123.242 78.1341 123.911 78.1341C124.581 78.1341 125.244 78.2707 125.859 78.5355C126.474 78.8003 127.028 79.1877 127.487 79.6739C127.98 80.1609 128.369 80.7427 128.629 81.3842C128.89 82.0256 129.017 82.7132 129.003 83.4051C129.004 84.3288 128.764 85.2369 128.307 86.0406H128.294Z" fill="#00AEEF"/>
        <path d="M137.044 69.7701H133.886V91.2421H137.044V69.7701Z" fill="#00AEEF"/>
        <path d="M147.018 75.0272C145.872 75.0038 144.734 75.2299 143.684 75.6899C142.634 76.1498 141.697 76.8325 140.939 77.6904C139.516 79.2655 138.739 81.3166 138.762 83.4364C138.785 85.5563 139.607 87.59 141.064 89.1338C141.841 89.9222 142.768 90.5485 143.79 90.976C144.812 91.4035 145.91 91.6237 147.018 91.6237C148.127 91.6237 149.224 91.4035 150.246 90.976C151.269 90.5485 152.195 89.9222 152.972 89.1338C154.43 87.5877 155.253 85.5517 155.276 83.4295C155.299 81.3073 154.521 79.2539 153.097 77.6765C152.338 76.8212 151.401 76.1411 150.351 75.6835C149.301 75.226 148.164 75.002 147.018 75.0272ZM151.4 86.0406C150.972 86.8211 150.337 87.469 149.564 87.9131C148.78 88.3455 147.9 88.5723 147.004 88.5723C146.109 88.5723 145.228 88.3455 144.445 87.9131C143.671 87.4696 143.036 86.8216 142.608 86.0406C142.156 85.2358 141.921 84.3277 141.927 83.4051C141.911 82.7143 142.037 82.0275 142.295 81.3863C142.553 80.745 142.939 80.1625 143.429 79.6739C143.888 79.1877 144.442 78.8003 145.057 78.5355C145.672 78.2707 146.335 78.1341 147.004 78.1341C147.674 78.1341 148.337 78.2707 148.951 78.5355C149.566 78.8003 150.12 79.1877 150.579 79.6739C151.073 80.1609 151.461 80.7427 151.722 81.3842C151.983 82.0256 152.11 82.7132 152.096 83.4051C152.096 84.3288 151.857 85.2369 151.4 86.0406Z" fill="#00AEEF"/>
        <path d="M170.64 78.481C170.205 77.4508 169.468 76.5757 168.525 75.9703C167.541 75.3825 166.418 75.0629 165.271 75.0434C164.123 75.024 162.991 75.3053 161.987 75.8594C161.421 76.1711 160.898 76.5533 160.429 76.9968V75.4155H157.271V91.2421H160.429V85.2638C160.385 83.9918 160.469 82.7185 160.679 81.4632C160.923 80.4968 161.475 79.6353 162.251 79.008C162.984 78.3738 163.924 78.0285 164.894 78.0371C165.615 78.0035 166.326 78.2137 166.911 78.6335C167.459 79.1048 167.823 79.7528 167.941 80.4645C168.114 81.5232 168.18 82.5968 168.136 83.6686V91.2421H171.294V83.1138C171.375 81.542 171.153 79.9692 170.64 78.481Z" fill="#00AEEF"/>
        <path d="M52.9502 103.892H54.3413V112.215C54.3084 112.825 54.3084 113.436 54.3413 114.046C54.3831 114.54 54.5455 115.016 54.8143 115.433C55.1058 115.834 55.4996 116.15 55.955 116.348C56.4406 116.584 56.9731 116.707 57.5131 116.709C57.9652 116.709 58.4116 116.609 58.8208 116.418C59.2258 116.233 59.5827 115.957 59.8641 115.613C60.154 115.25 60.3627 114.829 60.4762 114.379C60.5973 113.673 60.6439 112.957 60.6153 112.243V103.92H62.0064V112.243C62.0335 113.24 61.9116 114.236 61.6447 115.197C61.3937 115.98 60.9082 116.667 60.2536 117.167C59.5047 117.727 58.5884 118.02 57.6522 117.999C56.6669 118.015 55.6988 117.74 54.87 117.208C54.1087 116.72 53.5465 115.978 53.2841 115.114C53.0746 114.167 52.9904 113.197 53.0337 112.229L52.9502 103.892Z" fill="#005DA3"/>
        <path d="M65.1226 103.546H66.4302V111.535L71.1322 107.457H73.052L67.4875 112.284L73.3859 117.569H71.5496L66.4441 113.019V117.597H65.1365L65.1226 103.546Z" fill="#005DA3"/>
        <path d="M74.1648 107.443H75.5559V108.927C75.8841 108.416 76.3094 107.973 76.8079 107.624C77.2179 107.344 77.7026 107.195 78.1991 107.194C78.6074 107.208 79.0051 107.328 79.3537 107.54L78.6721 108.636C78.4545 108.531 78.2181 108.469 77.9765 108.456C77.5062 108.475 77.0598 108.667 76.7245 108.997C76.2653 109.453 75.9467 110.03 75.8063 110.661C75.5987 111.814 75.5194 112.986 75.5698 114.157V117.597H74.1787L74.1648 107.443Z" fill="#005DA3"/>
        <path d="M90.441 107.443V117.597H89.1611V115.863C88.6641 116.488 88.0378 116.999 87.3248 117.361C86.3527 117.824 85.2592 117.972 84.1985 117.783C83.1378 117.594 82.1634 117.077 81.4126 116.307C80.9152 115.811 80.5233 115.219 80.2604 114.569C79.9974 113.918 79.8689 113.221 79.8823 112.52C79.8734 111.826 80.0056 111.138 80.2711 110.497C80.5365 109.855 80.9295 109.274 81.4265 108.789C81.9029 108.29 82.4775 107.894 83.1142 107.627C83.7509 107.36 84.4361 107.226 85.1269 107.235C85.9147 107.222 86.6936 107.403 87.3944 107.762C88.1054 108.147 88.7155 108.694 89.175 109.357V107.499L90.441 107.443ZM85.2242 108.442C84.514 108.437 83.8157 108.625 83.2035 108.983C82.5912 109.342 82.0877 109.86 81.7464 110.481C81.3929 111.105 81.2072 111.81 81.2072 112.527C81.2072 113.244 81.3929 113.949 81.7464 114.573C82.0933 115.199 82.6025 115.722 83.221 116.085C83.8225 116.442 84.5102 116.629 85.2103 116.626C85.9231 116.626 86.6234 116.439 87.2414 116.085C87.8595 115.746 88.3702 115.241 88.716 114.628C89.0644 113.996 89.2418 113.283 89.2307 112.562C89.2471 112.019 89.1533 111.479 88.9549 110.974C88.7564 110.468 88.4575 110.008 88.076 109.621C87.7084 109.238 87.2651 108.936 86.7742 108.733C86.2833 108.53 85.7555 108.431 85.2242 108.442Z" fill="#005DA3"/>
        <path d="M93.7798 103.282C94.0657 103.282 94.3399 103.395 94.5421 103.597C94.7443 103.798 94.8579 104.072 94.8579 104.357C94.8579 104.642 94.7443 104.915 94.5421 105.117C94.3399 105.319 94.0657 105.432 93.7798 105.432C93.4968 105.428 93.2264 105.315 93.0263 105.115C92.8262 104.916 92.7122 104.646 92.7086 104.364C92.7068 104.222 92.7343 104.081 92.7893 103.949C92.8443 103.818 92.9258 103.7 93.0286 103.601C93.1253 103.499 93.2419 103.419 93.3711 103.364C93.5003 103.309 93.6393 103.281 93.7798 103.282ZM93.1259 107.443H94.4753V117.597H93.0842L93.1259 107.443Z" fill="#005DA3"/>
        <path d="M97.0908 107.443H98.3985V109.274C98.8588 108.637 99.4521 108.107 100.137 107.721C100.773 107.377 101.487 107.2 102.21 107.207C102.926 107.198 103.628 107.4 104.227 107.79C104.805 108.167 105.255 108.708 105.521 109.344C105.85 110.321 105.992 111.352 105.938 112.381V117.597H104.631V112.742C104.661 111.963 104.615 111.182 104.492 110.412C104.386 109.821 104.076 109.286 103.615 108.9C103.13 108.541 102.536 108.36 101.932 108.387C101.151 108.379 100.395 108.655 99.8035 109.163C99.1948 109.658 98.7608 110.333 98.5654 111.091C98.4092 112.007 98.3486 112.937 98.3846 113.865V117.597H97.0769L97.0908 107.443Z" fill="#005DA3"/>
        <path d="M117.22 114.212L118.319 114.795C118.007 115.433 117.583 116.011 117.067 116.501C116.602 116.928 116.059 117.262 115.468 117.486C114.826 117.718 114.147 117.831 113.464 117.819C112.737 117.857 112.01 117.731 111.338 117.45C110.666 117.169 110.066 116.74 109.583 116.196C108.688 115.184 108.194 113.882 108.192 112.534C108.179 111.29 108.597 110.08 109.374 109.108C109.842 108.491 110.451 107.995 111.151 107.662C111.85 107.329 112.62 107.168 113.395 107.194C114.197 107.162 114.994 107.324 115.721 107.664C116.447 108.004 117.081 108.514 117.568 109.149C118.317 110.144 118.709 111.36 118.681 112.603H109.555C109.545 113.674 109.948 114.707 110.682 115.488C111.028 115.853 111.447 116.142 111.912 116.335C112.377 116.529 112.877 116.623 113.381 116.612C113.893 116.613 114.402 116.524 114.883 116.348C115.34 116.191 115.765 115.951 116.135 115.641C116.566 115.221 116.931 114.739 117.22 114.212ZM117.22 111.438C117.087 110.835 116.826 110.268 116.455 109.773C116.099 109.343 115.646 109.001 115.134 108.775C114.593 108.525 114.004 108.397 113.409 108.4C112.46 108.38 111.539 108.722 110.835 109.357C110.25 109.93 109.841 110.656 109.653 111.452L117.22 111.438Z" fill="#005DA3"/>
    </symbol>
    <symbol id="iconMenu" width="29" height="18" viewBox="0 0 29 18" fill="none">
        <path d="M18.4999 18C20.9852 18 23 16.2091 23 14C23 11.7909 20.9852 10 18.4999 10C16.0147 10 14 11.7909 14 14C14 16.2091 16.0147 18 18.4999 18Z" fill="#6DCFF6"/>
        <path d="M4.83102 14C5.07164 11.6127 6.19416 9.39962 7.9808 7.79004C9.76744 6.18046 12.0908 5.2892 14.5 5.2892C16.9092 5.2892 19.2326 6.18046 21.0192 7.79004C22.8058 9.39962 23.9284 11.6127 24.169 14H29C28.8834 10.2476 27.3046 6.68782 24.5981 4.0746C21.8915 1.46138 18.2698 0 14.5 0C10.7302 0 7.1085 1.46138 4.40194 4.0746C1.69538 6.68782 0.116603 10.2476 0 14H4.83102Z" fill="#6DCFF6"/>
    </symbol>
    <symbol id="iconSearch" width="32" height="33" viewBox="0 0 32 33" fill="none">
        <path d="M22.9266 20.1515C21.7123 22.2339 19.806 23.791 17.5618 24.5333C15.3175 25.2755 12.8881 25.1525 10.7252 24.1871C8.56237 23.2216 6.81319 21.4794 5.80279 19.2844C4.79238 17.0893 4.58963 14.5907 5.23203 12.253C5.87443 9.91534 7.31827 7.89764 9.29535 6.57501C11.2724 5.25238 13.6481 4.71479 15.9808 5.06219C18.3135 5.40958 20.4446 6.61833 21.9777 8.46372C23.5108 10.3091 24.3417 12.6656 24.316 15.0951H29.1515C29.1666 11.7236 28.0812 8.44483 26.07 5.78608C24.0589 3.12732 21.2389 1.2431 18.0633 0.436424C14.8877 -0.370251 11.5412 -0.0524951 8.56193 1.33859C5.58271 2.72967 3.14389 5.11323 1.63769 8.10596C0.13149 11.0987 -0.354557 14.5267 0.257694 17.8386C0.869945 21.1506 2.54488 24.154 5.01322 26.3659C7.48157 28.5778 10.5998 29.8697 13.8665 30.0338C17.1332 30.1978 20.3585 29.2245 23.0237 27.2704L28.5817 33L32 29.4763L22.9266 20.1515Z" fill="#6DCFF6"/>
    </symbol>
    <symbol id="iconIntestines" width="638" height="683" viewBox="0 0 638 683" fill="none">
        <path d="M152.61 499.6C152.61 499.6 191.28 528.98 179.76 563.93C170.24 592.79 178.93 604.7 187.27 609.6C188.197 610.133 189.257 610.392 190.325 610.346C191.394 610.301 192.427 609.953 193.306 609.344C194.185 608.734 194.873 607.888 195.289 606.903C195.706 605.918 195.835 604.835 195.66 603.78C194.44 596.58 193.98 586.32 198.35 577.32C210.62 552.03 233.35 541.62 186.08 479.52C169.69 457.98 152.61 499.6 152.61 499.6Z" fill="white" stroke="#6DCFF6" stroke-width="1.14" stroke-miterlimit="10"/>
        <path d="M294.84 580.48L293.95 616.79C293.88 619.642 294.408 622.476 295.5 625.111C296.592 627.746 298.224 630.124 300.29 632.09C310.756 642.043 317.219 655.481 318.46 669.87C318.746 673.18 320.262 676.262 322.71 678.508C325.157 680.754 328.358 682 331.68 682H349.32C352.642 682 355.843 680.754 358.291 678.508C360.738 676.262 362.255 673.18 362.54 669.87C363.781 655.481 370.244 642.043 380.71 632.09C382.777 630.124 384.408 627.746 385.5 625.111C386.592 622.476 387.12 619.642 387.05 616.79L386.12 580.48H294.84Z" fill="white" stroke="#6DCFF6" stroke-width="1.14" stroke-miterlimit="10"/>
        <path d="M340.5 625.29C374.565 625.29 402.18 597.675 402.18 563.61C402.18 529.545 374.565 501.93 340.5 501.93C306.435 501.93 278.82 529.545 278.82 563.61C278.82 597.675 306.435 625.29 340.5 625.29Z" fill="white" stroke="#6DCFF6" stroke-width="1.14" stroke-miterlimit="10"/>
        <path d="M139.33 518.61C180.404 518.61 213.7 485.313 213.7 444.24C213.7 403.167 180.404 369.87 139.33 369.87C98.2568 369.87 64.9602 403.167 64.9602 444.24C64.9602 485.313 98.2568 518.61 139.33 518.61Z" fill="white" stroke="#6DCFF6" stroke-width="1.14" stroke-miterlimit="10"/>
        <path d="M96.5602 447.21C133.729 447.21 163.86 417.079 163.86 379.91C163.86 342.741 133.729 312.61 96.5602 312.61C59.3915 312.61 29.2603 342.741 29.2603 379.91C29.2603 417.079 59.3915 447.21 96.5602 447.21Z" fill="white" stroke="#6DCFF6" stroke-width="1.14" stroke-miterlimit="10"/>
        <path d="M74.2502 365.41C111.833 365.41 142.3 334.943 142.3 297.36C142.3 259.777 111.833 229.31 74.2502 229.31C36.6672 229.31 6.2002 259.777 6.2002 297.36C6.2002 334.943 36.6672 365.41 74.2502 365.41Z" fill="white" stroke="#6DCFF6" stroke-width="1.14" stroke-miterlimit="10"/>
        <path d="M64.21 283.6C99.1199 283.6 127.42 255.3 127.42 220.39C127.42 185.48 99.1199 157.18 64.21 157.18C29.3001 157.18 1 185.48 1 220.39C1 255.3 29.3001 283.6 64.21 283.6Z" fill="white" stroke="#6DCFF6" stroke-width="1.14" stroke-miterlimit="10"/>
        <path d="M67.19 218.15C102.1 218.15 130.4 189.85 130.4 154.94C130.4 120.03 102.1 91.73 67.19 91.73C32.2801 91.73 3.97998 120.03 3.97998 154.94C3.97998 189.85 32.2801 218.15 67.19 218.15Z" fill="white" stroke="#6DCFF6" stroke-width="1.14" stroke-miterlimit="10"/>
        <path d="M79.8301 163.86C113.508 163.86 140.81 136.558 140.81 102.88C140.81 69.2017 113.508 41.9 79.8301 41.9C46.1518 41.9 18.8501 69.2017 18.8501 102.88C18.8501 136.558 46.1518 163.86 79.8301 163.86Z" fill="white" stroke="#6DCFF6" stroke-width="1.14" stroke-miterlimit="10"/>
        <path d="M137.84 181.71C171.518 181.71 198.82 154.408 198.82 120.73C198.82 87.0517 171.518 59.75 137.84 59.75C104.162 59.75 76.8601 87.0517 76.8601 120.73C76.8601 154.408 104.162 181.71 137.84 181.71Z" fill="white" stroke="#6DCFF6" stroke-width="1.14" stroke-miterlimit="10"/>
        <path d="M205.52 192.13C239.198 192.13 266.5 164.828 266.5 131.15C266.5 97.4717 239.198 70.17 205.52 70.17C171.842 70.17 144.54 97.4717 144.54 131.15C144.54 164.828 171.842 192.13 205.52 192.13Z" fill="white" stroke="#6DCFF6" stroke-width="1.14" stroke-miterlimit="10"/>
        <path d="M269.47 195.1C301.917 195.1 328.22 168.797 328.22 136.35C328.22 103.903 301.917 77.6001 269.47 77.6001C237.023 77.6001 210.72 103.903 210.72 136.35C210.72 168.797 237.023 195.1 269.47 195.1Z" fill="white" stroke="#6DCFF6" stroke-width="1.14" stroke-miterlimit="10"/>
        <path d="M335.66 187.67C367.698 187.67 393.67 161.698 393.67 129.66C393.67 97.622 367.698 71.65 335.66 71.65C303.622 71.65 277.65 97.622 277.65 129.66C277.65 161.698 303.622 187.67 335.66 187.67Z" fill="white" stroke="#6DCFF6" stroke-width="1.14" stroke-miterlimit="10"/>
        <path d="M392.18 172.79C422.987 172.79 447.96 147.816 447.96 117.01C447.96 86.2035 422.987 61.23 392.18 61.23C361.374 61.23 336.4 86.2035 336.4 117.01C336.4 147.816 361.374 172.79 392.18 172.79Z" fill="white" stroke="#6DCFF6" stroke-width="1.14" stroke-miterlimit="10"/>
        <path d="M457.26 154.95C489.094 154.95 514.9 129.144 514.9 97.31C514.9 65.4764 489.094 39.67 457.26 39.67C425.426 39.67 399.62 65.4764 399.62 97.31C399.62 129.144 425.426 154.95 457.26 154.95Z" fill="white" stroke="#6DCFF6" stroke-width="1.14" stroke-miterlimit="10"/>
        <path d="M510.8 140.07C543.866 140.07 570.67 113.265 570.67 80.2001C570.67 47.1348 543.866 20.3301 510.8 20.3301C477.735 20.3301 450.93 47.1348 450.93 80.2001C450.93 113.265 477.735 140.07 510.8 140.07Z" fill="white" stroke="#6DCFF6" stroke-width="1.14" stroke-miterlimit="10"/>
        <path d="M571.79 120.74C604.855 120.74 631.66 93.9353 631.66 60.87C631.66 27.8047 604.855 1 571.79 1C538.725 1 511.92 27.8047 511.92 60.87C511.92 93.9353 538.725 120.74 571.79 120.74Z" fill="white" stroke="#6DCFF6" stroke-width="1.14" stroke-miterlimit="10"/>
        <path d="M576.62 178.74C607.427 178.74 632.4 153.766 632.4 122.96C632.4 92.1536 607.427 67.1801 576.62 67.1801C545.814 67.1801 520.84 92.1536 520.84 122.96C520.84 153.766 545.814 178.74 576.62 178.74Z" fill="white" stroke="#6DCFF6" stroke-width="1.14" stroke-miterlimit="10"/>
        <path d="M581.08 252.37C611.887 252.37 636.86 227.396 636.86 196.59C636.86 165.784 611.887 140.81 581.08 140.81C550.274 140.81 525.3 165.784 525.3 196.59C525.3 227.396 550.274 252.37 581.08 252.37Z" fill="white" stroke="#6DCFF6" stroke-width="1.14" stroke-miterlimit="10"/>
        <path d="M578.11 329.71C609.734 329.71 635.37 304.074 635.37 272.45C635.37 240.826 609.734 215.19 578.11 215.19C546.486 215.19 520.85 240.826 520.85 272.45C520.85 304.074 546.486 329.71 578.11 329.71Z" fill="white" stroke="#6DCFF6" stroke-width="1.14" stroke-miterlimit="10"/>
        <path d="M571.04 399.62C603.691 399.62 630.16 373.151 630.16 340.5C630.16 307.849 603.691 281.38 571.04 281.38C538.389 281.38 511.92 307.849 511.92 340.5C511.92 373.151 538.389 399.62 571.04 399.62Z" fill="white" stroke="#6DCFF6" stroke-width="1.14" stroke-miterlimit="10"/>
        <path d="M562.12 456.88C593.539 456.88 619.01 431.409 619.01 399.99C619.01 368.57 593.539 343.1 562.12 343.1C530.701 343.1 505.23 368.57 505.23 399.99C505.23 431.409 530.701 456.88 562.12 456.88Z" fill="white" stroke="#6DCFF6" stroke-width="1.14" stroke-miterlimit="10"/>
        <path d="M536.46 522.33C570.138 522.33 597.44 495.028 597.44 461.35C597.44 427.672 570.138 400.37 536.46 400.37C502.782 400.37 475.48 427.672 475.48 461.35C475.48 495.028 502.782 522.33 536.46 522.33Z" fill="white" stroke="#6DCFF6" stroke-width="1.14" stroke-miterlimit="10"/>
        <path d="M514.15 538.69C547.829 538.69 575.13 511.388 575.13 477.71C575.13 444.032 547.829 416.73 514.15 416.73C480.472 416.73 453.17 444.032 453.17 477.71C453.17 511.388 480.472 538.69 514.15 538.69Z" fill="white" stroke="#6DCFF6" stroke-width="1.14" stroke-miterlimit="10"/>
        <path d="M457.63 557.29C489.668 557.29 515.64 531.318 515.64 499.28C515.64 467.242 489.668 441.27 457.63 441.27C425.592 441.27 399.62 467.242 399.62 499.28C399.62 531.318 425.592 557.29 457.63 557.29Z" fill="white" stroke="#6DCFF6" stroke-width="1.14" stroke-miterlimit="10"/>
        <path d="M402.6 570.67C435.87 570.67 462.84 543.7 462.84 510.43C462.84 477.16 435.87 450.19 402.6 450.19C369.33 450.19 342.36 477.16 342.36 510.43C342.36 543.7 369.33 570.67 402.6 570.67Z" fill="white" stroke="#6DCFF6" stroke-width="1.14" stroke-miterlimit="10"/>
        <path d="M339.38 573.23C375.295 573.23 404.41 544.115 404.41 508.2C404.41 472.285 375.295 443.17 339.38 443.17C303.465 443.17 274.35 472.285 274.35 508.2C274.35 544.115 303.465 573.23 339.38 573.23Z" fill="white" stroke="#6DCFF6" stroke-width="1.14" stroke-miterlimit="10"/>
    </symbol>
</svg>
