<svg >
 <symbol xmlns="http://www.w3.org/2000/svg"
 xmlns:xlink="http://www.w3.org/1999/xlink" id="iconIntestines" width="638" height="683" viewBox="0 0 638 683" fill="none">
			<path
				d="M152.61 499.6C152.61 499.6 191.28 528.98 179.76 563.93C170.24 592.79 178.93 604.7 187.27 609.6C188.197 610.133 189.257 610.392 190.325 610.346C191.394 610.301 192.427 609.953 193.306 609.344C194.185 608.734 194.873 607.888 195.289 606.903C195.706 605.918 195.835 604.835 195.66 603.78C194.44 596.58 193.98 586.32 198.35 577.32C210.62 552.03 233.35 541.62 186.08 479.52C169.69 457.98 152.61 499.6 152.61 499.6Z"
				fill="white" stroke="#6DCFF6" stroke-width="1.14" stroke-miterlimit="10" />
			<path
				d="M294.84 580.48L293.95 616.79C293.88 619.642 294.408 622.476 295.5 625.111C296.592 627.746 298.224 630.124 300.29 632.09C310.756 642.043 317.219 655.481 318.46 669.87C318.746 673.18 320.262 676.262 322.71 678.508C325.157 680.754 328.358 682 331.68 682H349.32C352.642 682 355.843 680.754 358.291 678.508C360.738 676.262 362.255 673.18 362.54 669.87C363.781 655.481 370.244 642.043 380.71 632.09C382.777 630.124 384.408 627.746 385.5 625.111C386.592 622.476 387.12 619.642 387.05 616.79L386.12 580.48H294.84Z"
				fill="white" stroke="#6DCFF6" stroke-width="1.14" stroke-miterlimit="10" />
			<path
				d="M340.5 625.29C374.565 625.29 402.18 597.675 402.18 563.61C402.18 529.545 374.565 501.93 340.5 501.93C306.435 501.93 278.82 529.545 278.82 563.61C278.82 597.675 306.435 625.29 340.5 625.29Z"
				fill="white" stroke="#6DCFF6" stroke-width="1.14" stroke-miterlimit="10" />
			<path
				d="M139.33 518.61C180.404 518.61 213.7 485.313 213.7 444.24C213.7 403.167 180.404 369.87 139.33 369.87C98.2568 369.87 64.9602 403.167 64.9602 444.24C64.9602 485.313 98.2568 518.61 139.33 518.61Z"
				fill="white" stroke="#6DCFF6" stroke-width="1.14" stroke-miterlimit="10" />
			<path
				d="M96.5602 447.21C133.729 447.21 163.86 417.079 163.86 379.91C163.86 342.741 133.729 312.61 96.5602 312.61C59.3915 312.61 29.2603 342.741 29.2603 379.91C29.2603 417.079 59.3915 447.21 96.5602 447.21Z"
				fill="white" stroke="#6DCFF6" stroke-width="1.14" stroke-miterlimit="10" />
			<path
				d="M74.2502 365.41C111.833 365.41 142.3 334.943 142.3 297.36C142.3 259.777 111.833 229.31 74.2502 229.31C36.6672 229.31 6.2002 259.777 6.2002 297.36C6.2002 334.943 36.6672 365.41 74.2502 365.41Z"
				fill="white" stroke="#6DCFF6" stroke-width="1.14" stroke-miterlimit="10" />
			<path
				d="M64.21 283.6C99.1199 283.6 127.42 255.3 127.42 220.39C127.42 185.48 99.1199 157.18 64.21 157.18C29.3001 157.18 1 185.48 1 220.39C1 255.3 29.3001 283.6 64.21 283.6Z"
				fill="white" stroke="#6DCFF6" stroke-width="1.14" stroke-miterlimit="10" />
			<path
				d="M67.19 218.15C102.1 218.15 130.4 189.85 130.4 154.94C130.4 120.03 102.1 91.73 67.19 91.73C32.2801 91.73 3.97998 120.03 3.97998 154.94C3.97998 189.85 32.2801 218.15 67.19 218.15Z"
				fill="white" stroke="#6DCFF6" stroke-width="1.14" stroke-miterlimit="10" />
			<path
				d="M79.8301 163.86C113.508 163.86 140.81 136.558 140.81 102.88C140.81 69.2017 113.508 41.9 79.8301 41.9C46.1518 41.9 18.8501 69.2017 18.8501 102.88C18.8501 136.558 46.1518 163.86 79.8301 163.86Z"
				fill="white" stroke="#6DCFF6" stroke-width="1.14" stroke-miterlimit="10" />
			<path
				d="M137.84 181.71C171.518 181.71 198.82 154.408 198.82 120.73C198.82 87.0517 171.518 59.75 137.84 59.75C104.162 59.75 76.8601 87.0517 76.8601 120.73C76.8601 154.408 104.162 181.71 137.84 181.71Z"
				fill="white" stroke="#6DCFF6" stroke-width="1.14" stroke-miterlimit="10" />
			<path
				d="M205.52 192.13C239.198 192.13 266.5 164.828 266.5 131.15C266.5 97.4717 239.198 70.17 205.52 70.17C171.842 70.17 144.54 97.4717 144.54 131.15C144.54 164.828 171.842 192.13 205.52 192.13Z"
				fill="white" stroke="#6DCFF6" stroke-width="1.14" stroke-miterlimit="10" />
			<path
				d="M269.47 195.1C301.917 195.1 328.22 168.797 328.22 136.35C328.22 103.903 301.917 77.6001 269.47 77.6001C237.023 77.6001 210.72 103.903 210.72 136.35C210.72 168.797 237.023 195.1 269.47 195.1Z"
				fill="white" stroke="#6DCFF6" stroke-width="1.14" stroke-miterlimit="10" />
			<path
				d="M335.66 187.67C367.698 187.67 393.67 161.698 393.67 129.66C393.67 97.622 367.698 71.65 335.66 71.65C303.622 71.65 277.65 97.622 277.65 129.66C277.65 161.698 303.622 187.67 335.66 187.67Z"
				fill="white" stroke="#6DCFF6" stroke-width="1.14" stroke-miterlimit="10" />
			<path
				d="M392.18 172.79C422.987 172.79 447.96 147.816 447.96 117.01C447.96 86.2035 422.987 61.23 392.18 61.23C361.374 61.23 336.4 86.2035 336.4 117.01C336.4 147.816 361.374 172.79 392.18 172.79Z"
				fill="white" stroke="#6DCFF6" stroke-width="1.14" stroke-miterlimit="10" />
			<path
				d="M457.26 154.95C489.094 154.95 514.9 129.144 514.9 97.31C514.9 65.4764 489.094 39.67 457.26 39.67C425.426 39.67 399.62 65.4764 399.62 97.31C399.62 129.144 425.426 154.95 457.26 154.95Z"
				fill="white" stroke="#6DCFF6" stroke-width="1.14" stroke-miterlimit="10" />
			<path
				d="M510.8 140.07C543.866 140.07 570.67 113.265 570.67 80.2001C570.67 47.1348 543.866 20.3301 510.8 20.3301C477.735 20.3301 450.93 47.1348 450.93 80.2001C450.93 113.265 477.735 140.07 510.8 140.07Z"
				fill="white" stroke="#6DCFF6" stroke-width="1.14" stroke-miterlimit="10" />
			<path
				d="M571.79 120.74C604.855 120.74 631.66 93.9353 631.66 60.87C631.66 27.8047 604.855 1 571.79 1C538.725 1 511.92 27.8047 511.92 60.87C511.92 93.9353 538.725 120.74 571.79 120.74Z"
				fill="white" stroke="#6DCFF6" stroke-width="1.14" stroke-miterlimit="10" />
			<path
				d="M576.62 178.74C607.427 178.74 632.4 153.766 632.4 122.96C632.4 92.1536 607.427 67.1801 576.62 67.1801C545.814 67.1801 520.84 92.1536 520.84 122.96C520.84 153.766 545.814 178.74 576.62 178.74Z"
				fill="white" stroke="#6DCFF6" stroke-width="1.14" stroke-miterlimit="10" />
			<path
				d="M581.08 252.37C611.887 252.37 636.86 227.396 636.86 196.59C636.86 165.784 611.887 140.81 581.08 140.81C550.274 140.81 525.3 165.784 525.3 196.59C525.3 227.396 550.274 252.37 581.08 252.37Z"
				fill="white" stroke="#6DCFF6" stroke-width="1.14" stroke-miterlimit="10" />
			<path
				d="M578.11 329.71C609.734 329.71 635.37 304.074 635.37 272.45C635.37 240.826 609.734 215.19 578.11 215.19C546.486 215.19 520.85 240.826 520.85 272.45C520.85 304.074 546.486 329.71 578.11 329.71Z"
				fill="white" stroke="#6DCFF6" stroke-width="1.14" stroke-miterlimit="10" />
			<path
				d="M571.04 399.62C603.691 399.62 630.16 373.151 630.16 340.5C630.16 307.849 603.691 281.38 571.04 281.38C538.389 281.38 511.92 307.849 511.92 340.5C511.92 373.151 538.389 399.62 571.04 399.62Z"
				fill="white" stroke="#6DCFF6" stroke-width="1.14" stroke-miterlimit="10" />
			<path
				d="M562.12 456.88C593.539 456.88 619.01 431.409 619.01 399.99C619.01 368.57 593.539 343.1 562.12 343.1C530.701 343.1 505.23 368.57 505.23 399.99C505.23 431.409 530.701 456.88 562.12 456.88Z"
				fill="white" stroke="#6DCFF6" stroke-width="1.14" stroke-miterlimit="10" />
			<path
				d="M536.46 522.33C570.138 522.33 597.44 495.028 597.44 461.35C597.44 427.672 570.138 400.37 536.46 400.37C502.782 400.37 475.48 427.672 475.48 461.35C475.48 495.028 502.782 522.33 536.46 522.33Z"
				fill="white" stroke="#6DCFF6" stroke-width="1.14" stroke-miterlimit="10" />
			<path
				d="M514.15 538.69C547.829 538.69 575.13 511.388 575.13 477.71C575.13 444.032 547.829 416.73 514.15 416.73C480.472 416.73 453.17 444.032 453.17 477.71C453.17 511.388 480.472 538.69 514.15 538.69Z"
				fill="white" stroke="#6DCFF6" stroke-width="1.14" stroke-miterlimit="10" />
			<path
				d="M457.63 557.29C489.668 557.29 515.64 531.318 515.64 499.28C515.64 467.242 489.668 441.27 457.63 441.27C425.592 441.27 399.62 467.242 399.62 499.28C399.62 531.318 425.592 557.29 457.63 557.29Z"
				fill="white" stroke="#6DCFF6" stroke-width="1.14" stroke-miterlimit="10" />
			<path
				d="M402.6 570.67C435.87 570.67 462.84 543.7 462.84 510.43C462.84 477.16 435.87 450.19 402.6 450.19C369.33 450.19 342.36 477.16 342.36 510.43C342.36 543.7 369.33 570.67 402.6 570.67Z"
				fill="white" stroke="#6DCFF6" stroke-width="1.14" stroke-miterlimit="10" />
			<path
				d="M339.38 573.23C375.295 573.23 404.41 544.115 404.41 508.2C404.41 472.285 375.295 443.17 339.38 443.17C303.465 443.17 274.35 472.285 274.35 508.2C274.35 544.115 303.465 573.23 339.38 573.23Z"
				fill="white" stroke="#6DCFF6" stroke-width="1.14" stroke-miterlimit="10" />
		</symbol>
</svg>

